SplineFontDB: 3.0
FontName: Pliska-Bold
FullName: Pliska Bold
FamilyName: Pliska
Weight: Bold
Copyright: The font Pliska is modification of the Tempora Regular, created by Michael Sharpe \\(c\\) 2015 which on its turn was derived from TemporaLGCUni by Alexej Kryukov, issued in 2005 under the GPL.
Version: 001.001
ItalicAngle: 0
UnderlinePosition: -250
UnderlineWidth: 50
Ascent: 800
Descent: 200
InvalidEm: 0
sfntRevision: 0x00011999
LayerCount: 2
Layer: 0 0 "Back" 1
Layer: 1 0 "Fore" 0
XUID: [1021 174 -1597659960 21331]
StyleMap: 0x0040
FSType: 0
OS2Version: 3
OS2_WeightWidthSlopeOnly: 0
OS2_UseTypoMetrics: 0
CreationTime: 1132412635
ModificationTime: 1515097030
PfmFamily: 17
TTFWeight: 700
TTFWidth: 5
LineGap: 28
VLineGap: 0
Panose: 2 0 5 3 9 0 0 2 0 3
OS2TypoAscent: 676
OS2TypoAOffset: 0
OS2TypoDescent: -205
OS2TypoDOffset: 0
OS2TypoLinegap: 55
OS2WinAscent: 948
OS2WinAOffset: 0
OS2WinDescent: 219
OS2WinDOffset: 0
HheadAscent: 948
HheadAOffset: 0
HheadDescent: -219
HheadDOffset: 0
OS2SubXSize: 500
OS2SubYSize: 500
OS2SubXOff: 0
OS2SubYOff: 250
OS2SupXSize: 500
OS2SupYSize: 500
OS2SupXOff: 0
OS2SupYOff: 500
OS2StrikeYSize: 50
OS2StrikeYPos: 250
OS2CapHeight: 676
OS2XHeight: 461
OS2Vendor: 'PfEd'
OS2CodePages: 6000019f.9fd70000
OS2UnicodeRanges: e00002ff.500161fb.00000000.00000000
Lookup: 1 0 0 "'aalt' Access All Alternates lookup 0" { "'aalt' Access All Alternates lookup 0 subtable"  } ['aalt' ('DFLT' <'dflt' > 'cyrl' <'BGR ' 'MKD ' 'RUS ' 'SRB ' 'UKR ' 'dflt' > 'grek' <'dflt' > 'latn' <'CAT ' 'LTH ' 'MOL ' 'NLD ' 'ROM ' 'TRK ' 'VIT ' 'dflt' > ) ]
Lookup: 3 0 0 "'aalt' Access All Alternates lookup 1" { "'aalt' Access All Alternates lookup 1 subtable"  } ['aalt' ('DFLT' <'dflt' > 'cyrl' <'BGR ' 'MKD ' 'RUS ' 'SRB ' 'UKR ' 'dflt' > 'grek' <'dflt' > 'latn' <'CAT ' 'LTH ' 'MOL ' 'NLD ' 'ROM ' 'TRK ' 'VIT ' 'dflt' > ) ]

StartChar: .notdef
Encoding: 256 -1 0
Width: 586
Flags: HMW
HStem: 0 25 199 270 643 25
VStem: 42 25 116 270 433 25
CounterMasks: 1 e0
LayerCount: 2
Fore
SplineSet
50 0 m 1
 50 530 l 1
 536 530 l 1
 536 0 l 1
 50 0 l 1
69 74 m 1
 118 181 190 273 271 355 c 1
 242 368 220 375 194 380 c 1
 139 286 102 188 69 74 c 1
76 72 m 1
 180 145 288 209 416 255 c 1
 391 281 373 297 348 313 c 1
 234 255 153 173 76 72 c 1
97 72 m 1
 517 72 l 1
 511 111 500 141 477 173 c 1
 343 155 195 115 97 72 c 1
EndSplineSet
EndChar

StartChar: exclam
Encoding: 33 33 2
Width: 333
Flags: HMW
HStem: -13 169<143 189> 671 20G<139 192.5>
VStem: 82 169<48 93.5 47 94.5>
LayerCount: 2
Fore
SplineSet
81 591 m 0
 81 654 112 691 166 691 c 0
 219 691 250 654 250 589 c 0
 250 566 246 546 232 502 c 0
 202 406 193 357 180 234 c 1
 151 234 l 1
 138 357 128 407 99 502 c 0
 85 547 81 566 81 591 c 0
82 72 m 0
 82 117 120 156 166 156 c 0
 213 156 251 117 251 70 c 0
 251 24 213 -13 165 -13 c 0
 118 -13 82 24 82 72 c 0
EndSplineSet
EndChar

StartChar: quotedbl
Encoding: 34 34 3
Width: 555
Flags: HMW
HStem: 671 20G<128 165.5 388 425.5>
VStem: 83 129<613 641.5> 343 129<613 641.5>
LayerCount: 2
Fore
SplineSet
83 620 m 0
 83 663 109 691 147 691 c 0
 184 691 212 662 212 624 c 0
 212 602 202 551 168 404 c 1
 127 404 l 1
 122 426 118 445 116 452 c 0
 95 535 83 599 83 620 c 0
343 620 m 0
 343 663 369 691 407 691 c 0
 444 691 472 662 472 624 c 0
 472 602 459 537 428 404 c 1
 387 404 l 1
 382 425 377 445 376 452 c 0
 355 536 343 599 343 620 c 0
EndSplineSet
EndChar

StartChar: numbersign
Encoding: 35 35 4
Width: 500
Flags: HMW
HStem: 210 73<4 100 4 111 189 291 4 178 380 467> 417 73<33 129 33 139 33 207 217 320 408 496>
LayerCount: 2
Fore
SplineSet
4 210 m 1
 4 283 l 1
 111 283 l 1
 129 417 l 1
 33 417 l 1
 33 490 l 1
 139 490 l 1
 169 700 l 1
 246 700 l 1
 217 490 l 1
 330 490 l 1
 360 700 l 1
 437 700 l 1
 408 490 l 1
 496 490 l 1
 496 417 l 1
 398 417 l 1
 380 283 l 1
 467 283 l 1
 467 210 l 1
 369 210 l 1
 340 0 l 1
 262 0 l 1
 291 210 l 1
 178 210 l 1
 149 0 l 1
 71 0 l 1
 100 210 l 1
 4 210 l 1
189 283 m 1
 302 283 l 1
 320 417 l 1
 207 417 l 1
 189 283 l 1
EndSplineSet
EndChar

StartChar: dollar
Encoding: 36 36 5
Width: 500
Flags: HMW
HStem: 481 21G<407 428 407 407>
VStem: 29 95<451.5 578> 214 55<-99 0 -99 0 674 750> 362 110<104.5 220>
LayerCount: 2
Fore
SplineSet
29 496 m 0
 29 559 60 612 115 644 c 0
 146 661 168 667 214 672 c 1
 214 750 l 1
 269 750 l 1
 269 674 l 1
 347 661 381 650 428 622 c 1
 428 481 l 1
 407 481 l 1
 378 581 340 625 269 641 c 1
 269 426 l 1
 366 376 396 356 431 316 c 0
 457 287 472 244 472 196 c 0
 472 140 455 95 422 63 c 0
 390 32 351 15 269 0 c 1
 269 -99 l 1
 214 -99 l 1
 214 0 l 1
 152 3 128 9 46 43 c 1
 46 199 l 1
 67 197 l 1
 99 89 139 44 213 30 c 1
 213 281 l 1
 79 348 29 407 29 496 c 0
124 554 m 0
 124 508 153 475 213 454 c 1
 213 644 l 1
 150 628 124 602 124 554 c 0
269 30 m 1
 332 42 362 75 362 134 c 0
 362 188 349 205 269 250 c 1
 269 30 l 1
EndSplineSet
EndChar

StartChar: percent
Encoding: 37 37 6
Width: 850
Flags: HMW
HStem: -14 46<605 610> 294 47<193 203> 321 51<699 716 624.5 727> 585 38<425 449> 632 46<262.5 282.5 212 296.5>
VStem: 44 115<390 423.5 378 494> 353 32 455 117<83 108.5 70 186.5> 764 33<229 269.5>
LayerCount: 2
Fore
SplineSet
44 430 m 0
 44 558 154 678 270 678 c 0
 295 678 318 670 345 651 c 0
 376 629 397 623 438 623 c 0
 499 623 573 650 595 681 c 0
 600 688 605 692 610 692 c 2
 648 692 l 1
 254 -8 l 1
 199 -8 l 1
 547 612 l 1
 505 594 466 585 432 585 c 0
 418 585 406 586 385 590 c 1
 384 501 368 445 326 383 c 0
 286 325 233 294 173 294 c 0xdf80
 97 294 44 350 44 430 c 0
159 394 m 0xdf80
 159 362 177 341 209 341 c 0
 289 341 353 495 353 569 c 0
 353 599 337 609 324 614 c 0
 311 619 301 632 292 632 c 0
 233 632 159 453 159 394 c 0xdf80
455 125 m 0
 455 248 568 372 681 372 c 0xbf80
 751 372 797 327 797 257 c 0
 797 179 763 95 709 39 c 0
 678 6 632 -14 588 -14 c 0
 508 -14 455 41 455 125 c 0
572 88 m 0
 572 52 589 32 621 32 c 0
 658 32 693 61 723 116 c 0
 751 166 764 209 764 249 c 0
 764 290 742 321 712 321 c 0
 686 321 664 305 639 269 c 0
 606 220 572 129 572 88 c 0
EndSplineSet
EndChar

StartChar: ampersand
Encoding: 38 38 7
Width: 833
Flags: HMW
HStem: -16 101<597.5 721> 395 24<577 783 577 783> 658 33<359 399.5>
VStem: 62 139<109.5 282.5> 206 117 467 101<537.5 566.5>
LayerCount: 2
Fore
SplineSet
62 161 m 0
 62 255 116 318 258 388 c 1
 218 457 206 489 206 533 c 0
 206 630 281 691 401 691 c 0
 502 691 568 643 568 569 c 0
 568 506 522 462 416 423 c 1
 567 209 l 1
 625 281 643 314 643 354 c 0
 643 383 636 388 577 395 c 1
 577 419 l 1
 783 419 l 1
 783 395 l 1
 740 391 728 384 710 355 c 2
 683 311 l 2
 656 268 645 252 590 176 c 1
 646 104 671 85 709 85 c 0
 733 85 750 96 767 123 c 1
 787 111 l 1
 771 85 l 2
 746 44 733 28 717 15 c 0
 693 -3 655 -16 624 -16 c 0
 571 -16 535 6 475 72 c 1
 393 11 327 -15 253 -15 c 0
 141 -15 62 58 62 161 c 0
201 264 m 0
 201 212 230 148 273 103 c 0
 298 77 332 61 362 61 c 0
 388 61 413 72 452 100 c 1
 420 142 398 174 323 286 c 2
 275 358 l 1
 220 326 201 301 201 264 c 0
323 602 m 0
 323 561 344 518 397 452 c 1
 447 469 467 492 467 533 c 0
 467 600 424 658 375 658 c 0
 343 658 323 637 323 602 c 0
EndSplineSet
EndChar

StartChar: quotesingle
Encoding: 39 39 8
Width: 278
Flags: HMW
HStem: 671 20G<120 157.5>
LayerCount: 2
Fore
SplineSet
75 620 m 0
 75 663 101 691 139 691 c 0
 176 691 204 662 204 624 c 0
 204 602 193 548 160 404 c 1
 119 404 l 1
 114 425 109 445 108 452 c 0
 87 535 75 599 75 620 c 0
EndSplineSet
EndChar

StartChar: parenleft
Encoding: 40 40 9
Width: 333
Flags: HMW
HStem: -168 862<306 306>
VStem: 46 113<213.5 323.5>
LayerCount: 2
Fore
SplineSet
46 259 m 0
 46 388 92 507 177 599 c 0
 216 640 244 661 306 694 c 1
 306 667 l 1
 246 627 222 601 201 557 c 0
 173 497 159 396 159 258 c 0
 159 121 173 29 203 -33 c 0
 224 -78 249 -104 306 -140 c 1
 306 -168 l 1
 208 -109 165 -69 119 3 c 0
 71 79 46 168 46 259 c 0
EndSplineSet
EndChar

StartChar: parenright
Encoding: 41 41 10
Width: 333
Flags: HMW
HStem: -168 862<27 27>
VStem: 174 113<202 312 202 336>
LayerCount: 2
Fore
SplineSet
27 -141 m 1
 87 -101 112 -75 132 -31 c 0
 160 29 174 130 174 268 c 0
 174 404 160 497 130 559 c 0
 109 604 84 629 27 666 c 1
 27 694 l 1
 125 635 168 595 214 523 c 0
 262 447 287 358 287 266 c 0
 287 138 241 19 155 -73 c 0
 117 -114 89 -135 27 -168 c 1
 27 -141 l 1
EndSplineSet
EndChar

StartChar: asterisk
Encoding: 42 42 11
Width: 500
Flags: HMW
HStem: 339 106<114 117.5> 503 106<366 408.5> 671 20G<237 266>
VStem: 243 19<497 516>
LayerCount: 2
Fore
SplineSet
56 557 m 0
 56 586 75 606 104 606 c 0
 131 606 146 595 167 561 c 0
 192 521 198 515 236 494 c 1
 243 497 l 1
 242 539 239 550 218 588 c 0
 204 614 200 624 200 641 c 0
 200 669 222 691 252 691 c 0
 280 691 300 669 300 636 c 0
 300 621 297 611 284 588 c 0
 267 560 262 541 262 516 c 2
 262 497 l 1
 270 494 l 1
 307 523 315 533 341 570 c 0
 361 601 373 609 395 609 c 0
 422 609 447 585 447 559 c 0
 447 541 431 519 411 510 c 0
 399 505 390 503 366 503 c 0
 323 501 311 497 278 476 c 1
 278 468 l 1
 314 451 329 447 374 443 c 0
 428 439 447 425 447 392 c 0
 447 364 426 342 398 342 c 0
 371 342 355 355 323 404 c 0
 303 432 295 439 266 454 c 1
 259 449 l 1
 264 404 268 389 288 349 c 0
 299 328 302 319 302 307 c 0
 302 278 280 255 251 255 c 0
 222 255 203 278 203 312 c 0
 203 328 206 337 218 359 c 0
 238 393 240 403 241 449 c 1
 234 454 l 1
 196 426 188 418 161 379 c 0
 141 348 128 339 107 339 c 0
 79 339 57 361 57 389 c 0
 57 426 86 445 142 445 c 0
 184 447 194 450 226 472 c 1
 226 479 l 1
 186 497 170 501 124 505 c 0
 72 509 56 521 56 557 c 0
EndSplineSet
EndChar

StartChar: plus
Encoding: 43 43 12
Width: 570
Flags: HMW
HStem: 0 21G<241 329 241 241> 209 88<33 241 33 241 329 537>
VStem: 241 88<0 209 0 209 297 506>
LayerCount: 2
Fore
SplineSet
33 209 m 1
 33 297 l 1
 241 297 l 1
 241 506 l 1
 329 506 l 1
 329 297 l 1
 537 297 l 1
 537 209 l 1
 329 209 l 1
 329 0 l 1
 241 0 l 1
 241 209 l 1
 33 209 l 1
EndSplineSet
EndChar

StartChar: comma
Encoding: 44 44 13
Width: 250
Flags: HMW
HStem: -6 21G<90.5 119>
VStem: 155 68<-45 73.5>
LayerCount: 2
Fore
SplineSet
39 72 m 0
 39 122 72 155 122 155 c 0
 182 155 223 108 223 39 c 0
 223 -47 173 -113 57 -180 c 1
 46 -158 l 1
 121 -106 155 -64 155 -26 c 0
 155 -13 147 -4 136 -4 c 0
 130 -4 126 -6 112 -6 c 0
 69 -6 39 26 39 72 c 0
EndSplineSet
EndChar

StartChar: hyphen
Encoding: 45 45 14
Width: 333
Flags: HMW
HStem: 171 116<44 287 44 287>
LayerCount: 2
Fore
SplineSet
44 171 m 1
 44 287 l 1
 287 287 l 1
 287 171 l 1
 44 171 l 1
EndSplineSet
EndChar

StartChar: period
Encoding: 46 46 15
Width: 250
Flags: HMW
HStem: -13 169<102 148>
VStem: 41 169<48 93.5 47 94.5>
LayerCount: 2
Fore
SplineSet
41 72 m 0
 41 117 79 156 125 156 c 0
 172 156 210 117 210 70 c 0
 210 24 172 -13 124 -13 c 0
 77 -13 41 24 41 72 c 0
EndSplineSet
EndChar

StartChar: slash
Encoding: 47 47 16
Width: 278
Flags: HMW
HStem: -19 21G<-24 66 -24 -24> 671 20G<212 302 302 302>
LayerCount: 2
Fore
SplineSet
-24 -19 m 1
 212 691 l 1
 302 691 l 1
 66 -19 l 1
 -24 -19 l 1
EndSplineSet
Substitution2: "'frac' Diagonal Fractions in Cyrillic lookup 22 subtable" fraction
Substitution2: "'frac' Diagonal Fractions in Latin lookup 20 subtable" fraction
Substitution2: "'frac' Diagonal Fractions lookup 18 subtable" fraction
EndChar

StartChar: zero
Encoding: 48 48 17
Width: 500
Flags: HMW
HStem: -13 28<226 276 226 320> 660 28<225 273.5>
VStem: 24 158<231.5 451> 318 158<242 451 451 452 242 524.5>
LayerCount: 2
Fore
SplineSet
24 332 m 0
 24 584 150 688 251 688 c 0
 356 688 476 572 476 332 c 0
 476 152 390 -13 250 -13 c 0
 122 -13 24 131 24 332 c 0
182 222 m 2
 182 74 201 15 251 15 c 0
 301 15 318 74 318 222 c 2
 318 451 l 2
 318 598 298 660 249 660 c 0
 201 660 182 602 182 451 c 2
 182 222 l 2
EndSplineSet
Substitution2: "'zero' Slashed Zero lookup 53 subtable" zero.slash
Substitution2: "'sups' Superscript in Latin lookup 46 subtable" zero.superior
Substitution2: "'sups' Superscript in Cyrillic lookup 45 subtable" zero.superior
Substitution2: "'sups' Superscript in Greek lookup 44 subtable" zero.superior
Substitution2: "'subs' Subscript in Latin lookup 43 subtable" zero.inferior
Substitution2: "'subs' Subscript in Cyrillic lookup 42 subtable" zero.inferior
Substitution2: "'subs' Subscript in Greek lookup 41 subtable" zero.inferior
Substitution2: "'dnom' Denominators lookup 38 subtable" zero.denominator
Substitution2: "'numr' Numerators lookup 37 subtable" zero.numerator
Substitution2: "'onum' Oldstyle Figures in Latin lookup 36 subtable" uniF730
Substitution2: "'onum' Oldstyle Figures in Cyrillic lookup 35 subtable" uniF730
Substitution2: "'onum' Oldstyle Figures in Greek lookup 34 subtable" uniF730
Substitution2: "'frac' Diagonal Fractions in Cyrillic lookup 22 subtable" zero.numerator
Substitution2: "'frac' Diagonal Fractions in Latin lookup 20 subtable" zero.numerator
Substitution2: "'frac' Diagonal Fractions lookup 18 subtable" zero.numerator
AlternateSubs2: "'aalt' Access All Alternates lookup 1 subtable" uniF730 zero.inferior zero.superior
EndChar

StartChar: one
Encoding: 49 49 18
Width: 500
Flags: HMW
HStem: 0 24<67 442 67 67> 668 20G<317 334 334 334>
VStem: 186 148<124 509 509 532.5>
LayerCount: 2
Fore
SplineSet
65 553 m 1
 65 579 l 1
 317 688 l 1
 334 688 l 1
 334 118 l 2
 334 41 351 26 442 24 c 1
 442 0 l 1
 67 0 l 1
 67 24 l 1
 166 25 186 42 186 124 c 2
 186 509 l 2
 186 556 175 578 150 578 c 0
 137 578 112 571 85 561 c 0
 82 559 74 556 65 553 c 1
EndSplineSet
Substitution2: "'sups' Superscript in Latin lookup 46 subtable" one.superior
Substitution2: "'sups' Superscript in Cyrillic lookup 45 subtable" one.superior
Substitution2: "'sups' Superscript in Greek lookup 44 subtable" one.superior
Substitution2: "'subs' Subscript in Latin lookup 43 subtable" one.inferior
Substitution2: "'subs' Subscript in Cyrillic lookup 42 subtable" one.inferior
Substitution2: "'subs' Subscript in Greek lookup 41 subtable" one.inferior
Substitution2: "'dnom' Denominators lookup 38 subtable" one.denominator
Substitution2: "'numr' Numerators lookup 37 subtable" one.numerator
Substitution2: "'onum' Oldstyle Figures in Latin lookup 36 subtable" uniF731
Substitution2: "'onum' Oldstyle Figures in Cyrillic lookup 35 subtable" uniF731
Substitution2: "'onum' Oldstyle Figures in Greek lookup 34 subtable" uniF731
Substitution2: "'frac' Diagonal Fractions in Cyrillic lookup 22 subtable" one.numerator
Substitution2: "'frac' Diagonal Fractions in Latin lookup 20 subtable" one.numerator
Substitution2: "'frac' Diagonal Fractions lookup 18 subtable" one.numerator
AlternateSubs2: "'aalt' Access All Alternates lookup 1 subtable" uniF731 one.inferior one.superior
EndChar

StartChar: two
Encoding: 50 50 19
Width: 500
Flags: HMW
HStem: 0 133<160 311 311 364 160 433> 484 21G<31 59 31 31> 574 114<180.5 232.5>
VStem: 300 136<387 577>
LayerCount: 2
Fore
SplineSet
17 0 m 1
 17 23 l 1
 179 196 300 328 300 446 c 0
 300 474 284 574 181 574 c 0
 158 574 96 568 59 484 c 1
 31 484 l 1
 51 541 110 688 251 688 c 0
 313 688 436 653 436 501 c 0
 436 472 436 396 322 287 c 2
 160 133 l 1
 311 133 l 2
 417 133 426 143 454 211 c 1
 478 211 l 1
 433 0 l 1
 17 0 l 1
EndSplineSet
Substitution2: "'sups' Superscript in Latin lookup 46 subtable" two.superior
Substitution2: "'sups' Superscript in Cyrillic lookup 45 subtable" two.superior
Substitution2: "'sups' Superscript in Greek lookup 44 subtable" two.superior
Substitution2: "'subs' Subscript in Latin lookup 43 subtable" two.inferior
Substitution2: "'subs' Subscript in Cyrillic lookup 42 subtable" two.inferior
Substitution2: "'subs' Subscript in Greek lookup 41 subtable" two.inferior
Substitution2: "'dnom' Denominators lookup 38 subtable" two.denominator
Substitution2: "'numr' Numerators lookup 37 subtable" two.numerator
Substitution2: "'onum' Oldstyle Figures in Latin lookup 36 subtable" uniF732
Substitution2: "'onum' Oldstyle Figures in Cyrillic lookup 35 subtable" uniF732
Substitution2: "'onum' Oldstyle Figures in Greek lookup 34 subtable" uniF732
Substitution2: "'frac' Diagonal Fractions in Cyrillic lookup 22 subtable" two.numerator
Substitution2: "'frac' Diagonal Fractions in Latin lookup 20 subtable" two.numerator
Substitution2: "'frac' Diagonal Fractions lookup 18 subtable" two.numerator
AlternateSubs2: "'aalt' Access All Alternates lookup 1 subtable" uniF732 two.inferior two.superior
EndChar

StartChar: three
Encoding: 51 51 20
Width: 500
Flags: HMW
HStem: -14 148<62 257> 607 81<202 213.5>
VStem: 283 146<514.5 533.5> 354 114<178 221.5>
LayerCount: 2
Fore
SplineSet
16 78 m 0
 16 111 46 134 78 134 c 0
 162 134 192 36 254 36 c 0
 302 36 354 65 354 155 c 0xd0
 354 288 229 330 153 356 c 1
 153 373 l 1
 201 388 283 413 283 504 c 0
 283 563 250 607 177 607 c 0
 108 607 73 547 58 523 c 1xe0
 37 535 l 1
 66 598 143 688 261 688 c 0
 357 688 429 646 429 553 c 0xe0
 429 476 390 451 346 424 c 1
 425 395 468 323 468 248 c 0
 468 108 347 -14 167 -14 c 0
 87 -14 16 15 16 78 c 0
EndSplineSet
Substitution2: "'sups' Superscript in Latin lookup 46 subtable" three.superior
Substitution2: "'sups' Superscript in Cyrillic lookup 45 subtable" three.superior
Substitution2: "'sups' Superscript in Greek lookup 44 subtable" three.superior
Substitution2: "'subs' Subscript in Latin lookup 43 subtable" three.inferior
Substitution2: "'subs' Subscript in Cyrillic lookup 42 subtable" three.inferior
Substitution2: "'subs' Subscript in Greek lookup 41 subtable" three.inferior
Substitution2: "'dnom' Denominators lookup 38 subtable" three.denominator
Substitution2: "'numr' Numerators lookup 37 subtable" three.numerator
Substitution2: "'onum' Oldstyle Figures in Latin lookup 36 subtable" uniF733
Substitution2: "'onum' Oldstyle Figures in Cyrillic lookup 35 subtable" uniF733
Substitution2: "'onum' Oldstyle Figures in Greek lookup 34 subtable" uniF733
Substitution2: "'frac' Diagonal Fractions in Cyrillic lookup 22 subtable" three.numerator
Substitution2: "'frac' Diagonal Fractions in Latin lookup 20 subtable" three.numerator
Substitution2: "'frac' Diagonal Fractions lookup 18 subtable" three.numerator
AlternateSubs2: "'aalt' Access All Alternates lookup 1 subtable" uniF733 three.inferior three.superior
EndChar

StartChar: four
Encoding: 52 52 21
Width: 500
Flags: HMW
HStem: 0 21G<267 412 267 267> 144 111<60 267 19 269 412 475> 668 20G<332 412 412 412>
VStem: 267 145<0 144 0 144>
LayerCount: 2
Fore
SplineSet
19 144 m 1
 19 257 l 1
 79 352 145 444 273 611 c 2
 332 688 l 1
 412 688 l 1
 412 255 l 1
 475 255 l 1
 475 144 l 1
 412 144 l 1
 412 0 l 1
 267 0 l 1
 267 144 l 1
 19 144 l 1
60 255 m 1
 269 255 l 1
 269 552 l 1
 60 255 l 1
EndSplineSet
Substitution2: "'sups' Superscript in Latin lookup 46 subtable" four.superior
Substitution2: "'sups' Superscript in Cyrillic lookup 45 subtable" four.superior
Substitution2: "'sups' Superscript in Greek lookup 44 subtable" four.superior
Substitution2: "'subs' Subscript in Latin lookup 43 subtable" four.inferior
Substitution2: "'subs' Subscript in Cyrillic lookup 42 subtable" four.inferior
Substitution2: "'subs' Subscript in Greek lookup 41 subtable" four.inferior
Substitution2: "'dnom' Denominators lookup 38 subtable" four.denominator
Substitution2: "'numr' Numerators lookup 37 subtable" four.numerator
Substitution2: "'onum' Oldstyle Figures in Latin lookup 36 subtable" uniF734
Substitution2: "'onum' Oldstyle Figures in Cyrillic lookup 35 subtable" uniF734
Substitution2: "'onum' Oldstyle Figures in Greek lookup 34 subtable" uniF734
Substitution2: "'frac' Diagonal Fractions in Cyrillic lookup 22 subtable" four.numerator
Substitution2: "'frac' Diagonal Fractions in Latin lookup 20 subtable" four.numerator
Substitution2: "'frac' Diagonal Fractions lookup 18 subtable" four.numerator
AlternateSubs2: "'aalt' Access All Alternates lookup 1 subtable" uniF734 four.inferior four.superior
EndChar

StartChar: five
Encoding: 53 53 22
Width: 500
Flags: HMW
HStem: -8 148<62.5 256> 549 127<149 149 149 427>
VStem: 373 78<167.5 187.5>
LayerCount: 2
Fore
SplineSet
22 80 m 0
 22 108 41 140 84 140 c 0
 153 140 210 53 273 53 c 0
 307 53 373 75 373 157 c 0
 373 218 319 268 266 291 c 0
 199 321 123 326 51 331 c 1
 148 676 l 1
 470 676 l 1
 427 549 l 1
 149 549 l 1
 127 468 l 1
 218 463 280 457 347 419 c 0
 392 394 451 331 451 233 c 0
 451 102 347 -8 165 -8 c 0
 88 -8 22 23 22 80 c 0
EndSplineSet
Substitution2: "'sups' Superscript in Latin lookup 46 subtable" five.superior
Substitution2: "'sups' Superscript in Cyrillic lookup 45 subtable" five.superior
Substitution2: "'sups' Superscript in Greek lookup 44 subtable" five.superior
Substitution2: "'subs' Subscript in Latin lookup 43 subtable" five.inferior
Substitution2: "'subs' Subscript in Cyrillic lookup 42 subtable" five.inferior
Substitution2: "'subs' Subscript in Greek lookup 41 subtable" five.inferior
Substitution2: "'dnom' Denominators lookup 38 subtable" five.denominator
Substitution2: "'numr' Numerators lookup 37 subtable" five.numerator
Substitution2: "'onum' Oldstyle Figures in Latin lookup 36 subtable" uniF735
Substitution2: "'onum' Oldstyle Figures in Cyrillic lookup 35 subtable" uniF735
Substitution2: "'onum' Oldstyle Figures in Greek lookup 34 subtable" uniF735
Substitution2: "'frac' Diagonal Fractions in Cyrillic lookup 22 subtable" five.numerator
Substitution2: "'frac' Diagonal Fractions in Latin lookup 20 subtable" five.numerator
Substitution2: "'frac' Diagonal Fractions lookup 18 subtable" five.numerator
AlternateSubs2: "'aalt' Access All Alternates lookup 1 subtable" uniF735 five.inferior five.superior
EndChar

StartChar: six
Encoding: 54 54 23
Width: 500
Flags: HMW
HStem: -13 27<231 292.5 231 347> 376 45<270 272.5>
VStem: 28 157<174.5 289.5 174.5 375> 323 152<184 228>
LayerCount: 2
Fore
SplineSet
28 284 m 0
 28 466 170 658 470 688 c 1
 470 662 l 1
 370 642 248 588 204 404 c 1
 228 414 246 421 294 421 c 0
 363 421 475 383 475 211 c 0
 475 157 437 -13 257 -13 c 0
 167 -13 28 44 28 284 c 0
185 273 m 0
 185 76 200 14 262 14 c 0
 323 14 323 77 323 156 c 0
 323 300 307 376 238 376 c 0
 222 376 205 375 194 363 c 0
 193 362 185 306 185 273 c 0
EndSplineSet
Substitution2: "'sups' Superscript in Latin lookup 46 subtable" six.superior
Substitution2: "'sups' Superscript in Cyrillic lookup 45 subtable" six.superior
Substitution2: "'sups' Superscript in Greek lookup 44 subtable" six.superior
Substitution2: "'subs' Subscript in Latin lookup 43 subtable" six.inferior
Substitution2: "'subs' Subscript in Cyrillic lookup 42 subtable" six.inferior
Substitution2: "'subs' Subscript in Greek lookup 41 subtable" six.inferior
Substitution2: "'dnom' Denominators lookup 38 subtable" six.denominator
Substitution2: "'numr' Numerators lookup 37 subtable" six.numerator
Substitution2: "'onum' Oldstyle Figures in Latin lookup 36 subtable" uniF736
Substitution2: "'onum' Oldstyle Figures in Cyrillic lookup 35 subtable" uniF736
Substitution2: "'onum' Oldstyle Figures in Greek lookup 34 subtable" uniF736
Substitution2: "'frac' Diagonal Fractions in Cyrillic lookup 22 subtable" six.numerator
Substitution2: "'frac' Diagonal Fractions in Latin lookup 20 subtable" six.numerator
Substitution2: "'frac' Diagonal Fractions lookup 18 subtable" six.numerator
AlternateSubs2: "'aalt' Access All Alternates lookup 1 subtable" uniF736 six.inferior six.superior
EndChar

StartChar: seven
Encoding: 55 55 24
Width: 500
Flags: HMW
HStem: 0 21G<147 242 147 147> 539 137<112.5 140 140 347>
LayerCount: 2
Fore
SplineSet
17 454 m 1
 61 676 l 1
 477 676 l 1
 242 0 l 1
 147 0 l 1
 347 539 l 1
 140 539 l 2
 85 539 61 518 42 454 c 1
 17 454 l 1
EndSplineSet
Substitution2: "'sups' Superscript in Latin lookup 46 subtable" seven.superior
Substitution2: "'sups' Superscript in Cyrillic lookup 45 subtable" seven.superior
Substitution2: "'sups' Superscript in Greek lookup 44 subtable" seven.superior
Substitution2: "'subs' Subscript in Latin lookup 43 subtable" seven.inferior
Substitution2: "'subs' Subscript in Cyrillic lookup 42 subtable" seven.inferior
Substitution2: "'subs' Subscript in Greek lookup 41 subtable" seven.inferior
Substitution2: "'dnom' Denominators lookup 38 subtable" seven.denominator
Substitution2: "'numr' Numerators lookup 37 subtable" seven.numerator
Substitution2: "'onum' Oldstyle Figures in Latin lookup 36 subtable" uniF737
Substitution2: "'onum' Oldstyle Figures in Cyrillic lookup 35 subtable" uniF737
Substitution2: "'onum' Oldstyle Figures in Greek lookup 34 subtable" uniF737
Substitution2: "'frac' Diagonal Fractions in Cyrillic lookup 22 subtable" seven.numerator
Substitution2: "'frac' Diagonal Fractions in Latin lookup 20 subtable" seven.numerator
Substitution2: "'frac' Diagonal Fractions lookup 18 subtable" seven.numerator
AlternateSubs2: "'aalt' Access All Alternates lookup 1 subtable" uniF737 seven.inferior seven.superior
EndChar

StartChar: eight
Encoding: 56 56 25
Width: 500
Flags: HMW
HStem: -13 32<211.5 288.5 211.5 308.5> 659 29<225.5 287>
VStem: 28 121<121 193.5 121 209.5> 39 129<531.5 556.5> 333 139<127.5 177> 339 119<507 562.5>
LayerCount: 2
Fore
SplineSet
28 155 m 0xe8
 28 264 111 303 178 324 c 1
 103 366 39 427 39 510 c 0
 39 603 106 688 266 688 c 0
 418 688 458 600 458 543 c 0xd4
 458 458 377 422 322 404 c 1
 408 353 472 283 472 190 c 0
 472 65 380 -13 237 -13 c 0
 129 -13 28 45 28 155 c 0xe8
149 157 m 0xe8
 149 85 179 19 244 19 c 0
 333 19 333 110 333 136 c 0
 333 218 268 261 200 306 c 1
 170 261 149 230 149 157 c 0xe8
168 578 m 0xd4
 168 485 288 427 298 422 c 1
 321 453 339 477 339 537 c 0
 339 588 324 659 250 659 c 0
 201 659 168 619 168 578 c 0xd4
EndSplineSet
Substitution2: "'sups' Superscript in Latin lookup 46 subtable" eight.superior
Substitution2: "'sups' Superscript in Cyrillic lookup 45 subtable" eight.superior
Substitution2: "'sups' Superscript in Greek lookup 44 subtable" eight.superior
Substitution2: "'subs' Subscript in Latin lookup 43 subtable" eight.inferior
Substitution2: "'subs' Subscript in Cyrillic lookup 42 subtable" eight.inferior
Substitution2: "'subs' Subscript in Greek lookup 41 subtable" eight.inferior
Substitution2: "'dnom' Denominators lookup 38 subtable" eight.denominator
Substitution2: "'numr' Numerators lookup 37 subtable" eight.numerator
Substitution2: "'onum' Oldstyle Figures in Latin lookup 36 subtable" uniF738
Substitution2: "'onum' Oldstyle Figures in Cyrillic lookup 35 subtable" uniF738
Substitution2: "'onum' Oldstyle Figures in Greek lookup 34 subtable" uniF738
Substitution2: "'frac' Diagonal Fractions in Cyrillic lookup 22 subtable" eight.numerator
Substitution2: "'frac' Diagonal Fractions in Latin lookup 20 subtable" eight.numerator
Substitution2: "'frac' Diagonal Fractions lookup 18 subtable" eight.numerator
AlternateSubs2: "'aalt' Access All Alternates lookup 1 subtable" uniF738 eight.inferior eight.superior
EndChar

StartChar: nine
Encoding: 57 57 26
Width: 500
Flags: HMW
HStem: 254 45<172.5 271> 661 27<208.5 270>
VStem: 26 152<447 491> 316 157<390.5 500.5>
LayerCount: 2
Fore
SplineSet
26 464 m 0
 26 518 64 688 244 688 c 0
 334 688 473 631 473 391 c 0
 473 209 331 17 31 -13 c 1
 31 13 l 1
 131 33 248 84 299 273 c 1
 284 265 270 260 255 258 c 0
 240 255 225 254 207 254 c 0
 138 254 26 292 26 464 c 0
178 519 m 0
 178 375 194 299 263 299 c 0
 279 299 306 304 307 312 c 0
 310 328 316 379 316 402 c 0
 316 599 301 661 239 661 c 0
 178 661 178 598 178 519 c 0
EndSplineSet
Substitution2: "'sups' Superscript in Latin lookup 46 subtable" nine.superior
Substitution2: "'sups' Superscript in Cyrillic lookup 45 subtable" nine.superior
Substitution2: "'sups' Superscript in Greek lookup 44 subtable" nine.superior
Substitution2: "'subs' Subscript in Latin lookup 43 subtable" nine.inferior
Substitution2: "'subs' Subscript in Cyrillic lookup 42 subtable" nine.inferior
Substitution2: "'subs' Subscript in Greek lookup 41 subtable" nine.inferior
Substitution2: "'dnom' Denominators lookup 38 subtable" nine.denominator
Substitution2: "'numr' Numerators lookup 37 subtable" nine.numerator
Substitution2: "'onum' Oldstyle Figures in Latin lookup 36 subtable" uniF739
Substitution2: "'onum' Oldstyle Figures in Cyrillic lookup 35 subtable" uniF739
Substitution2: "'onum' Oldstyle Figures in Greek lookup 34 subtable" uniF739
Substitution2: "'frac' Diagonal Fractions in Cyrillic lookup 22 subtable" nine.numerator
Substitution2: "'frac' Diagonal Fractions in Latin lookup 20 subtable" nine.numerator
Substitution2: "'frac' Diagonal Fractions lookup 18 subtable" nine.numerator
AlternateSubs2: "'aalt' Access All Alternates lookup 1 subtable" uniF739 nine.inferior nine.superior
EndChar

StartChar: colon
Encoding: 58 58 27
Width: 333
Flags: HMW
HStem: -13 169<143 189> 303 169<143 189.5 143 189.5>
VStem: 82 169<48 93.5 47 94.5 364.5 410.5>
LayerCount: 2
Fore
SplineSet
82 72 m 0
 82 117 120 156 166 156 c 0
 213 156 251 117 251 70 c 0
 251 24 213 -13 165 -13 c 0
 118 -13 82 24 82 72 c 0
82 389 m 0
 82 434 120 472 166 472 c 0
 213 472 251 434 251 387 c 0
 251 341 213 303 166 303 c 0
 118 303 82 340 82 389 c 0
EndSplineSet
EndChar

StartChar: semicolon
Encoding: 59 59 28
Width: 333
Flags: HMW
HStem: -6 21G<131.5 160> 303 169<143 189.5 143 189.5>
VStem: 196 68<-45 73.5>
LayerCount: 2
Fore
SplineSet
80 72 m 0
 80 122 113 155 163 155 c 0
 223 155 264 108 264 39 c 0
 264 -47 214 -113 98 -180 c 1
 87 -158 l 1
 162 -106 196 -64 196 -26 c 0
 196 -13 188 -4 177 -4 c 0
 171 -4 167 -6 153 -6 c 0
 110 -6 80 26 80 72 c 0
82 389 m 0
 82 434 120 472 166 472 c 0
 213 472 251 434 251 387 c 0
 251 341 213 303 166 303 c 0
 118 303 82 340 82 389 c 0
EndSplineSet
EndChar

StartChar: less
Encoding: 60 60 29
Width: 570
Flags: HMW
HStem: -12 21G<539 539>
VStem: 31 508<-12 295 -12 295>
LayerCount: 2
Fore
SplineSet
31 211 m 1
 31 295 l 1
 539 518 l 1
 539 422 l 1
 154 253 l 1
 539 84 l 1
 539 -12 l 1
 31 211 l 1
EndSplineSet
EndChar

StartChar: equal
Encoding: 61 61 30
Width: 570
Flags: HMW
HStem: 107 88<33 537 33 537> 311 88<33 537 33 537>
LayerCount: 2
Fore
SplineSet
33 107 m 1
 33 195 l 1
 537 195 l 1
 537 107 l 1
 33 107 l 1
33 311 m 1
 33 399 l 1
 537 399 l 1
 537 311 l 1
 33 311 l 1
EndSplineSet
EndChar

StartChar: greater
Encoding: 62 62 31
Width: 570
Flags: MW
HStem: -12 21G<31 31>
VStem: 31 508<-12 295 84 295 211 518 211 518>
LayerCount: 2
Fore
SplineSet
31 -12 m 1
 31 84 l 1
 416 253 l 1
 31 422 l 1
 31 518 l 1
 539 295 l 1
 539 211 l 1
 31 -12 l 1
EndSplineSet
Validated: 1
EndChar

StartChar: question
Encoding: 63 63 32
Width: 500
Flags: HMW
HStem: -13 169<216 262 216 262.5> 469 21G<105.5 144> 653 36<194 238.5>
VStem: 57 131<523 543 514 587> 221 32<231 291> 296 149<497 564>
LayerCount: 2
Fore
SplineSet
57 545 m 0
 57 629 135 689 245 689 c 0
 365 689 445 623 445 523 c 0
 445 454 415 413 324 357 c 0
 261 318 253 304 253 231 c 1
 223 231 l 1
 221 261 221 266 221 277 c 0
 221 305 229 328 253 374 c 0
 286 436 296 471 296 523 c 0
 296 605 265 653 212 653 c 0
 176 653 151 637 151 613 c 0
 151 603 154 597 166 584 c 0
 183 565 188 553 188 533 c 0
 188 495 163 469 125 469 c 0
 86 469 57 501 57 545 c 0
154 72 m 0
 154 117 193 156 239 156 c 0
 285 156 323 117 323 71 c 0
 323 24 286 -13 239 -13 c 0
 191 -13 154 24 154 72 c 0
EndSplineSet
EndChar

StartChar: at
Encoding: 64 64 33
Width: 930
Flags: HMW
HStem: -19 46<411.5 524> 144 47<386.5 470> 652 39<403 564>
VStem: 108 92<238 420 238 430.5> 319 77<250.5 296> 775 47<332 457>
LayerCount: 2
Fore
SplineSet
108 330 m 0
 108 531 275 691 485 691 c 0
 675 691 822 560 822 390 c 0
 822 257 735 143 633 143 c 0
 583 143 546 173 539 218 c 1
 504 172 456 144 413 144 c 0
 360 144 319 194 319 259 c 0
 319 333 351 412 403 467 c 0
 435 500 478 519 522 519 c 0
 558 519 573 509 595 466 c 1
 606 506 l 1
 677 506 l 1
 611 246 l 2
 610 241 609 234 609 228 c 0
 609 197 622 180 647 180 c 0
 713 180 775 279 775 385 c 0
 775 529 642 652 486 652 c 0
 320 652 200 515 200 325 c 0
 200 151 324 27 499 27 c 0
 566 27 616 39 698 76 c 1
 711 41 l 1
 614 -5 561 -19 487 -19 c 0
 274 -19 108 134 108 330 c 0
396 277 m 0
 396 224 419 191 455 191 c 0
 485 191 515 216 537 259 c 0
 558 300 575 361 577 406 c 0
 577.118264106 408.306150064 577.177086017 410.559851132 577.177086017 412.759655877 c 0
 577.177086017 447.761413347 562.285170466 469.118264106 535 471 c 0
 533.852869847 471.091770412 532.686790625 471.137220877 531.50321147 471.137220877 c 0
 506.892438697 471.137220877 474.715214229 451.485788198 448 420 c 0
 414 382 396 331 396 277 c 0
EndSplineSet
EndChar

StartChar: A
Encoding: 65 65 34
Width: 722
Flags: MW
HStem: 0 25<9 212 9 9 685 689> 197 39<189 384 189 399 174 384> 670 20G<329 357 357 357>
LayerCount: 2
Fore
SplineSet
9 0 m 1
 9 25 l 1
 57 34 69 49 107 142 c 2
 329 690 l 1
 357 690 l 1
 580 164 l 2
 631.113579793 43.3719516886 644.570204106 25 689 25 c 1
 689 0 l 1
 365 0 l 1
 365 25 l 1
 415.0442028 25 439.328896126 47.7151801634 439.328896126 80.9999982613 c 3
 439.328896126 92.2774408805 436.656156266 104.768241581 431.25392637 118 c 2
 399 197 l 1
 174 197 l 1
 159 158 l 2
 138 104 130 79 130 66 c 0
 130 40 153 29 212 25 c 1
 212 0 l 1
 9 0 l 1
189 236 m 1
 384 236 l 1
 283 479 l 1
 189 236 l 1
EndSplineSet
EndChar

StartChar: B
Encoding: 66 66 35
Width: 667
Flags: MW
HStem: 0 25<16 338 16 16> 0 32<303 338> 343 30<264 264 264 294> 646 30<298.5 325 325 353>
VStem: 104 160<96 343 373 580 580 597> 420 165<478 556> 447 172<131.5 210.5 131.5 234>
LayerCount: 2
Fore
SplineSet
16 0 m 1
 16 25 l 1
 89 33 104 45 104 96 c 2
 104 580 l 2
 104 631 85 647 16 651 c 1
 16 676 l 1xba
 325 676 l 2
 492 676 585 619 585 516 c 0xbc
 585 441.222511688 542.715335853 400.492969761 426 367 c 1
 426 363 l 1
 531.206699027 340.710445121 619 295.420122988 619 188 c 0
 619 75 507 -2.06958473796e-014 338 0 c 2
 16 0 l 1
264 93 m 2
 264 49 281 32 325 32 c 0
 406 32 447 82 447 179 c 0x7a
 447 289 397 343 294 343 c 2
 264 343 l 1
 264 93 l 2
264 373 m 1
 272 373 l 2
 388.438209669 373 420 406.313548975 420 509 c 0xbc
 420 603 388 646 318 646 c 0
 279 646 264 633 264 597 c 2
 264 373 l 1
EndSplineSet
EndChar

StartChar: C
Encoding: 67 67 36
Width: 722
Flags: MW
HStem: -19 48<338 469> 658 33<328.5 441.5 299.5 466.5>
VStem: 49 177<271.5 398 271.5 434.5>
LayerCount: 2
Fore
SplineSet
49 332 m 0
 49 537 196 691 403 691 c 0
 480 691 559 642 596 642 c 0
 622 642 635 666 642 688 c 1
 669 688 l 1
 669 454 l 1
 644 454 l 1
 606 547 522 658 411 658 c 0
 246 658 226 460 226 336 c 0
 226 207 255 29 421 29 c 0
 520 29 593 81 657 152 c 1
 687 127 l 1
 610 39 530 -19 408 -19 c 0
 199 -19 49 121 49 332 c 0
EndSplineSet
EndChar

StartChar: D
Encoding: 68 68 37
Width: 724
Flags: HMW
HStem: 0 35<296.5 332> 642 34<300.5 321 321 356>
VStem: 99 162<91 93 93 584 584 607> 518 174<282.5 372>
LayerCount: 2
Fore
SplineSet
16 0 m 1
 16 25 l 1
 74 27 99 47 99 91 c 2
 99 584 l 2
 99 630 80 645 16 651 c 1
 16 676 l 1
 321 676 l 2
 552 676 692 551 692 345 c 0
 692 138 548 0 332 0 c 2
 16 0 l 1
261 93 m 2
 261 48 274 35 319 35 c 0
 384 35 432 58 466 104 c 0
 498 149 518 235 518 330 c 0
 518 414 504 487 477 540 c 0
 443 609 392 642 320 642 c 0
 281 642 261 630 261 607 c 2
 261 93 l 2
EndSplineSet
EndChar

StartChar: E
Encoding: 69 69 38
Width: 667
Flags: HMW
HStem: 0 31<317 387 317 601> 329 34<266 320.5> 475 21G<568 593 568 568> 642 34<305 412.5>
VStem: 104 162<96 329 363 580 580 595>
LayerCount: 2
Fore
SplineSet
16 0 m 1
 16 25 l 1
 90 33 104 44 104 96 c 2
 104 580 l 2
 104 631 85 647 16 651 c 1
 16 676 l 1
 593 676 l 1
 593 475 l 1
 568 475 l 1
 543 608 494 642 331 642 c 0
 279 642 266 633 266 595 c 2
 266 363 l 1
 267.4486928 362.986586178 268.884970386 362.979829789 270.30894137 362.979829789 c 0
 375.041959798 362.979829789 413.201207333 399.529175733 428 512 c 1
 454 512 l 1
 454 174 l 1
 428 174 l 1
 416 290 375 329 266 329 c 1
 266 87 l 2
 266 44 285 31 349 31 c 0
 425 31 480 47 526 84 c 0
 562 113 582 141 613 208 c 1
 641 208 l 1
 601 0 l 1
 16 0 l 1
EndSplineSet
EndChar

StartChar: F
Encoding: 70 70 39
Width: 611
Flags: HMW
HStem: 0 21G<16 376 16 16> 329 34<266 316> 475 21G<559 583 559 559> 642 34<304.5 376>
VStem: 104 162<96 329 363 580 580 595>
LayerCount: 2
Fore
SplineSet
16 0 m 1
 16 25 l 1
 90 33 104 44 104 96 c 2
 104 580 l 2
 104 632 85 647 16 651 c 1
 16 676 l 1
 583 676 l 1
 583 475 l 1
 559 475 l 1
 545 538 534 565 512 590 c 0
 481 625 422 642 330 642 c 0
 279 642 266 632 266 595 c 2
 266 363 l 1
 366 363 401 398 419 512 c 1
 444 512 l 1
 444 174 l 1
 419 174 l 1
 405 290 368 327 266 329 c 1
 266 96 l 2
 266 41 284 29 376 25 c 1
 376 0 l 1
 16 0 l 1
EndSplineSet
EndChar

StartChar: G
Encoding: 71 71 40
Width: 778
Flags: HMW
HStem: -19 33<385.5 444.5> 658 33<337.5 409 285.5 421>
VStem: 37 177<278 434> 513 156<87 170 43 192 43 219>
LayerCount: 2
Fore
SplineSet
37 331 m 0
 37 537 186 691 385 691 c 0
 433 691 481 680 540 656 c 0
 562 646 577 642 586 642 c 0
 605 642 616 653 630 688 c 1
 657 688 l 1
 657 454 l 1
 632 454 l 1
 597 530 574 564 531 602 c 0
 487 640 444 658 398 658 c 0
 277 658 214 547 214 338 c 0
 214 218 235 132 279 76 c 0
 312 33 354 14 417 14 c 0
 484 14 513 36 513 87 c 2
 513 192 l 2
 513 246 498 257 412 262 c 1
 412 287 l 1
 755 287 l 1
 755 262 l 1
 680 254 669 242 669 170 c 2
 669 43 l 1
 605 5 496 -19 393 -19 c 0
 183 -19 37 125 37 331 c 0
EndSplineSet
EndChar

StartChar: H
Encoding: 72 72 41
Width: 774
Flags: HMW
HStem: 0 25<16 353 16 16> 326 47<263 504 263 504> 651 25<16 353 16 353>
VStem: 101 162<96 326 373 580> 504 162<96 326 326 326 373 580>
LayerCount: 2
Fore
SplineSet
16 0 m 1
 16 25 l 1
 86 34 101 47 101 96 c 2
 101 580 l 2
 101 630 83 645 16 651 c 1
 16 676 l 1
 353 676 l 1
 353 651 l 1
 283 646 263 630 263 580 c 2
 263 373 l 1
 504 373 l 1
 504 580 l 2
 504 630 484 646 414 651 c 1
 414 676 l 1
 754 676 l 1
 754 651 l 1
 686 646 666 630 666 580 c 2
 666 96 l 2
 666 47 682 34 754 25 c 1
 754 0 l 1
 414 0 l 1
 414 25 l 1
 487 33 504 47 504 96 c 2
 504 326 l 1
 263 326 l 1
 263 96 l 2
 263 47 280 33 353 25 c 1
 353 0 l 1
 16 0 l 1
EndSplineSet
EndChar

StartChar: I
Encoding: 73 73 42
Width: 386
Flags: HMW
HStem: 0 25<16 366 16 16> 651 25<16 366 16 366>
VStem: 109 162<96 580>
LayerCount: 2
Fore
SplineSet
16 0 m 1
 16 25 l 1
 91 32 109 46 109 96 c 2
 109 580 l 2
 109 631 88 646 16 651 c 1
 16 676 l 1
 366 676 l 1
 366 651 l 1
 292 648 271 632 271 580 c 2
 271 96 l 2
 271 44 290 30 366 25 c 1
 366 0 l 1
 16 0 l 1
EndSplineSet
EndChar

StartChar: J
Encoding: 74 74 43
Width: 500
Flags: HMW
HStem: -96 33<156 186.5 150.5 246> 651 25<127 479 127 479>
VStem: 3 143<25.5 53 25.5 55> 228 162<51.5 123 123 559>
LayerCount: 2
Fore
SplineSet
3 36 m 0
 3 74 36 108 73 108 c 0
 112 108 146 73 146 33 c 0
 146 18 143 10 131 -5 c 0
 122 -17 119 -23 119 -31 c 0
 119 -50 137 -63 164 -63 c 0
 209 -63 228 -38 228 24 c 2
 228 580 l 2
 228 634 208 648 127 651 c 1
 127 676 l 1
 479 676 l 1
 479 651 l 1
 404 646 390 631 390 559 c 2
 390 123 l 2
 390 -20 316 -96 176 -96 c 0
 136 -96 96 -87 70 -73 c 0
 31 -50 3 -5 3 36 c 0
EndSplineSet
EndChar

StartChar: K
Encoding: 75 75 44
Width: 764
Flags: HMW
HStem: 0 26<448.5 451 448.5 755> 656 20G<16 354 354 354 433 722 722 722>
VStem: 103 162<96 292 345 559>
LayerCount: 2
Fore
SplineSet
16 0 m 1
 16 25 l 1
 88 33 103 45 103 96 c 2
 103 580 l 2
 103 632 85 647 16 651 c 1
 16 676 l 1
 354 676 l 1
 354 651 l 1
 280 646 265 630 265 559 c 2
 265 345 l 1
 482 563 l 2
 513 594 518 602 518 618 c 0
 518 638 505 646 469 648 c 0
 464 649 450 650 433 651 c 1
 433 676 l 1
 722 676 l 1
 722 651 l 1
 625 643 589 618 401 424 c 1
 706 46 l 2
 719 31 730 26 755 25 c 1
 755 0 l 1
 419 0 l 1
 419 25 l 1
 433 26 446 26 451 26 c 0
 484 28 498 33 498 46 c 0
 498 57 493 66 474 90 c 2
 292 317 l 1
 265 292 l 1
 265 96 l 2
 265 47 281 34 353 25 c 1
 353 0 l 1
 16 0 l 1
EndSplineSet
EndChar

StartChar: L
Encoding: 76 76 45
Width: 664
Flags: HMW
HStem: 0 31<313.5 382.5 313.5 594> 656 20G<16 365 365 365>
VStem: 102 162<96 559>
LayerCount: 2
Fore
SplineSet
16 0 m 1
 16 25 l 1
 89 34 102 45 102 96 c 2
 102 580 l 2
 102 631 84 647 16 651 c 1
 16 676 l 1
 365 676 l 1
 365 651 l 1
 278 647 264 634 264 559 c 2
 264 87 l 2
 264 44 283 31 344 31 c 0
 421 31 477 49 518 86 c 0
 553 118 573 149 606 227 c 1
 635 227 l 1
 594 0 l 1
 16 0 l 1
EndSplineSet
EndChar

StartChar: M
Encoding: 77 77 46
Width: 943
Flags: HMW
HStem: 0 25<16 250 16 16> 651 25<18 271>
VStem: 107 42<105 124 124 580 580 594> 680 155<100 117 117 559>
LayerCount: 2
Fore
SplineSet
16 0 m 1
 16 25 l 1
 94 33 107 45 107 105 c 2
 107 580 l 2
 107 632 91 645 18 651 c 1
 18 676 l 1
 271 676 l 1
 471 204 l 1
 671 676 l 1
 923 676 l 1
 923 651 l 1
 850 646 835 631 835 559 c 2
 835 117 l 2
 835 46 845 35 923 25 c 1
 923 0 l 1
 591 0 l 1
 591 25 l 1
 666 32 680 44 680 100 c 2
 680 609 l 1
 428 0 l 1
 401 0 l 1
 149 594 l 1
 149 124 l 2
 149 50 168 31 250 25 c 1
 250 0 l 1
 16 0 l 1
EndSplineSet
EndChar

StartChar: N
Encoding: 78 78 47
Width: 722
Flags: HMW
HStem: -18 21G<595 623 595 595> 651 25<19 29>
VStem: 104 44<105 124 124 526> 579 44<247 552 552 571 -18 587.5>
LayerCount: 2
Fore
SplineSet
16 0 m 1
 16 25 l 1
 89 34 104 48 104 105 c 2
 104 579 l 1
 56 636 39 651 19 651 c 1
 19 676 l 1
 230 676 l 1
 579 247 l 1
 579 552 l 2
 579 623 560 644 486 651 c 1
 486 676 l 1
 701 676 l 1
 701 651 l 1
 636 641 623 628 623 571 c 2
 623 -18 l 1
 595 -18 l 1
 148 526 l 1
 148 124 l 2
 148 53 166 34 243 25 c 1
 243 0 l 1
 16 0 l 1
EndSplineSet
EndChar

StartChar: O
Encoding: 79 79 48
Width: 778
Flags: HMW
HStem: -19 33<331.5 446.5 331.5 492.5> 658 33<333.5 447>
VStem: 35 177<231.5 434 225 439> 566 177<232.5 433>
LayerCount: 2
Fore
SplineSet
35 335 m 0
 35 543 184 691 393 691 c 0
 594 691 743 540 743 336 c 0
 743 129 596 -19 389 -19 c 0
 182 -19 35 128 35 335 c 0
212 326 m 0
 212 124 274 14 389 14 c 0
 504 14 566 124 566 329 c 0
 566 537 502 658 392 658 c 0
 275 658 212 542 212 326 c 0
EndSplineSet
EndChar

StartChar: P
Encoding: 80 80 49
Width: 611
Flags: HMW
HStem: 0 29<38.5 40 38.5 350 16 40> 303 35<262 297.5> 641 35<295.5 338 338 353.5>
VStem: 100 162<117 303 338 559 559 594> 428 172<457.5 543>
LayerCount: 2
Fore
SplineSet
16 0 m 1
 16 25 l 1
 27 27 37 29 40 29 c 0
 87 35 100 55 100 117 c 2
 100 559 l 2
 100 629 86 645 16 651 c 1
 16 676 l 1
 338 676 l 2
 505 676 600 610 600 494 c 0
 600 417 556 356 475 325 c 0
 431 307 397 304 262 303 c 1
 262 117 l 2
 262 44 271 35 350 25 c 1
 350 0 l 1
 16 0 l 1
262 338 m 1
 333 338 366 345 390 365 c 0
 416 388 428 426 428 489 c 0
 428 597 395 641 312 641 c 0
 279 641 262 629 262 606 c 2
 262 338 l 1
EndSplineSet
EndChar

StartChar: Q
Encoding: 81 81 50
Width: 778
Flags: HMW
HStem: -176 47 658 33<333 446>
VStem: 35 177<285.5 435> 566 177<285.5 434>
LayerCount: 2
Fore
SplineSet
35 331 m 0
 35 539 185 691 389 691 c 0
 595 691 743 542 743 334 c 0
 743 237 710 151 649 86 c 0
 606 40 571 20 490 -6 c 1
 508 -43 518 -58 537 -77 c 0
 571 -111 616 -129 663 -129 c 0
 682 -129 698 -126 730 -117 c 1
 736 -141 l 1
 661 -168 618 -176 557 -176 c 0
 469 -176 385 -144 329 -88 c 0
 306 -65 294 -46 273 -2 c 1
 197 26 165 46 124 92 c 0
 66 156 35 240 35 331 c 0
212 331 m 0
 212 123 273 14 389 14 c 0
 504 14 566 124 566 330 c 0
 566 538 502 658 390 658 c 0
 276 658 212 541 212 331 c 0
EndSplineSet
EndChar

StartChar: R
Encoding: 82 82 51
Width: 712
Flags: HMW
HStem: 0 25<16 354 16 16 696 705> 313 32<266 293 266 266> 642 34<307.5 338 338 366> 651 25<16 338>
VStem: 104 162<117 313 345 559 559 595> 449 171<475.5 546.5>
LayerCount: 2
Fore
SplineSet
16 0 m 1
 16 25 l 1
 94 34 104 44 104 117 c 2
 104 559 l 2
 104 631 90 646 16 651 c 1xdc
 16 676 l 1
 338 676 l 2
 521 676 620 613 620 498 c 0
 620 453 604 413 575 386 c 0
 547 361 522 348 463 329 c 1
 664 44 l 2
 674 31 687 25 705 25 c 1xec
 705 0 l 1
 500 0 l 1
 293 313 l 1
 266 313 l 1
 266 117 l 2
 266 46 276 35 354 25 c 1
 354 0 l 1
 16 0 l 1
266 345 m 1
 342 346 376 353 402 370 c 0
 434 391 449 430 449 494 c 0
 449 599 412 642 320 642 c 0
 295 642 279 637 273 627 c 0
 270 621 266 606 266 600 c 2
 266 345 l 1
EndSplineSet
EndChar

StartChar: S
Encoding: 83 83 52
Width: 556
Flags: HMW
HStem: -19 33<243.5 306.5 239 339> 475 21G<456 484 456 456> 660 31<229 282 195 285.5>
VStem: 44 109<536 551> 394 119<129 154>
LayerCount: 2
Fore
SplineSet
35 -19 m 1
 35 228 l 1
 64 228 l 1
 81 158 95 125 122 88 c 0
 160 39 210 14 268 14 c 0
 345 14 394 59 394 128 c 0
 394 180 370 206 282 248 c 2
 215 280 l 2
 96 337 44 400 44 488 c 0
 44 614 127 691 263 691 c 0
 301 691 333 685 380 669 c 0
 402 661 413 658 422 658 c 0
 439 658 447 666 454 692 c 1
 484 692 l 1
 484 475 l 1
 456 475 l 1
 436 540 420 569 386 604 c 0
 350 641 308 660 263 660 c 0
 195 660 153 622 153 560 c 0
 153 512 175 487 256 447 c 2
 403 374 l 2
 467 342 513 267 513 192 c 0
 513 66 413 -19 265 -19 c 0
 222 -19 185 -12 135 5 c 0
 113 12 102 15 94 15 c 0
 78 15 70 6 64 -19 c 1
 35 -19 l 1
EndSplineSet
EndChar

StartChar: T
Encoding: 84 84 53
Width: 667
Flags: HMW
HStem: 0 25<156 513 156 156> 475 201<34 60 31 634 607 607 607 634 34 636>
VStem: 253 162<117 644>
LayerCount: 2
Fore
SplineSet
31 475 m 1
 34 676 l 1
 634 676 l 1
 636 475 l 1
 607 475 l 1
 590 594 538 640 415 644 c 1
 415 117 l 2
 415 41 426 31 513 25 c 1
 513 0 l 1
 156 0 l 1
 156 25 l 1
 242 32 253 43 253 117 c 2
 253 644 l 1
 129 640 77 594 60 475 c 1
 31 475 l 1
EndSplineSet
EndChar

StartChar: U
Encoding: 85 85 54
Width: 722
Flags: HMW
HStem: -19 49<353 402> 656 20G<16 354 354 354 481 701 701 701>
VStem: 98 159<225 559> 579 44<247 552 552 566>
LayerCount: 2
Fore
SplineSet
16 651 m 1
 16 676 l 1
 354 676 l 1
 354 651 l 1
 306 649 290 645 278 635 c 0
 263 621 257 599 257 559 c 2
 257 225 l 2
 257 89 302 30 404 30 c 0
 523 30 579 99 579 247 c 2
 579 552 l 2
 579 625 559 645 481 651 c 1
 481 676 l 1
 701 676 l 1
 701 651 l 1
 637 641 623 625 623 566 c 2
 623 247 l 2
 623 154 597 78 552 40 c 0
 509 3 439 -19 365 -19 c 0
 292 -19 228 -1 180 34 c 0
 119 78 98 127 98 225 c 2
 98 559 l 2
 98 631 86 644 16 651 c 1
EndSplineSet
EndChar

StartChar: V
Encoding: 86 86 55
Width: 722
Flags: HMW
HStem: -18 21G<356 383 356 356> 649 27<319 321.5>
LayerCount: 2
Fore
SplineSet
16 651 m 1
 16 676 l 1
 352 676 l 1
 352 651 l 1
 337 650 324 649 319 649 c 0
 281 647 266 636 266 613 c 0
 266 598 270 586 289 541 c 2
 427 207 l 1
 554 536 l 2
 571 579 574 591 574 607 c 0
 574 639 559 646 488 651 c 1
 488 676 l 1
 701 676 l 1
 701 651 l 1
 649 644 635 631 611 569 c 2
 383 -18 l 1
 356 -18 l 1
 100 581 l 2
 75 636 66 644 16 651 c 1
EndSplineSet
EndChar

StartChar: W
Encoding: 87 87 56
Width: 1000
Flags: HMW
HStem: -15 21G<300 328 300 300 685 712 685 685> 650 26<686 687>
LayerCount: 2
Fore
SplineSet
19 651 m 1
 19 676 l 1
 313 676 l 1
 313 651 l 1
 261 647 249 638 249 609 c 0
 249 600 251 592 256 576 c 2
 376 212 l 1
 494 520 l 1
 459 616 l 2
 448 640 428 649 387 651 c 1
 387 676 l 1
 699 676 l 1
 699 651 l 1
 693 650 688 650 686 650 c 0
 642 647 627 638 627 614 c 0
 627 605 631 590 641 558 c 2
 749 222 l 1
 861 565 l 2
 866 579 868 594 868 607 c 0
 868 638 853 648 799 651 c 1
 799 676 l 1
 981 676 l 1
 981 651 l 1
 948 648 925 627 912 587 c 2
 712 -15 l 1
 685 -15 l 1
 514 462 l 1
 328 -15 l 1
 300 -15 l 1
 88 587 l 2
 71 636 61 645 19 651 c 1
EndSplineSet
EndChar

StartChar: X
Encoding: 88 88 57
Width: 722
Flags: HMW
HStem: 0 27<385 387 385 699 359 387> 649 27<332 334.5>
LayerCount: 2
Fore
SplineSet
16 0 m 1
 16 25 l 1
 66 31 90 44 120 81 c 2
 295 302 l 1
 97 593 l 2
 66 638 53 648 17 651 c 1
 17 676 l 1
 363 676 l 1
 363 651 l 1
 349 650 337 649 332 649 c 0
 296 647 284 639 284 618 c 0
 284 606 286 601 299 581 c 2
 396 431 l 1
 421 466 444 498 452 508 c 0
 499 572 510 593 510 614 c 0
 510 638 498 647 458 649 c 0
 455 650 447 650 438 651 c 1
 438 676 l 1
 688 676 l 1
 688 651 l 1
 614 644 588 625 500 505 c 2
 420 394 l 1
 602 111 l 2
 650 39 665 26 699 25 c 1
 699 0 l 1
 359 0 l 1
 359 25 l 1
 372 26 383 27 387 27 c 0
 422 29 439 38 439 55 c 0
 439 66 430 90 418 109 c 2
 317 271 l 1
 279 220 l 2
 205 120 185 88 185 66 c 0
 185 41 205 31 266 25 c 1
 266 0 l 1
 16 0 l 1
EndSplineSet
EndChar

StartChar: Y
Encoding: 89 89 58
Width: 722
Flags: HMW
HStem: 0 25<185 532 185 185> 650 26<304.5 325>
VStem: 278 162<117 264 264 264>
LayerCount: 2
Fore
SplineSet
15 651 m 1
 15 676 l 1
 350 676 l 1
 350 651 l 1
 325 650 l 2
 284 650 269 642 269 620 c 0
 269 609 273 598 287 573 c 2
 413 329 l 1
 524 514 l 2
 549 555 563 590 563 609 c 0
 563 638 546 646 479 651 c 1
 479 676 l 1
 699 676 l 1
 699 651 l 1
 665 646 646 635 631 612 c 2
 440 301 l 1
 440 117 l 2
 440 43 450 33 532 25 c 1
 532 0 l 1
 185 0 l 1
 185 25 l 1
 267 33 278 44 278 117 c 2
 278 264 l 1
 95 596 l 2
 75 630 49 649 15 651 c 1
EndSplineSet
EndChar

StartChar: Z
Encoding: 90 90 59
Width: 667
Flags: HMW
HStem: 0 35<225 299 299 347> 470 21G<59 87 59 59> 641 35<327 410 327 327>
LayerCount: 2
Fore
SplineSet
28 0 m 1
 28 16 l 1
 410 641 l 1
 397.666666667 640.666666667 384.333333333 640.555555556 372.037037037 640.555555556 c 0
 347.444444444 640.555555556 327 641 327 641 c 2
 322.992862555 641.054150506 319.06196432 641.081910516 315.205161706 641.081910516 c 0
 176.614445458 641.081910516 133.700387856 605.236539832 87 470 c 1
 59 470 l 1
 80 676 l 1
 604 676 l 1
 604 660 l 1
 225 35 l 1
 299 35 l 2
 395 35 477 50 511 74 c 0
 558 107 581 147 608 241 c 1
 634 241 l 1
 608 0 l 1
 28 0 l 1
EndSplineSet
EndChar

StartChar: bracketleft
Encoding: 91 91 60
Width: 333
Flags: HMW
HStem: -149 33<221 301 221 301> 645 33<210 238 238 301>
VStem: 67 104<-84.5 -63 -63 575>
LayerCount: 2
Fore
SplineSet
67 -149 m 1
 67 678 l 1
 301 678 l 1
 301 645 l 1
 238 645 l 2
 182 645 171 633 171 575 c 2
 171 -63 l 2
 171 -106 180 -116 221 -116 c 2
 301 -116 l 1
 301 -149 l 1
 67 -149 l 1
EndSplineSet
EndChar

StartChar: backslash
Encoding: 92 92 61
Width: 278
Flags: HMW
HStem: -19 21G<211 211 211 303> 671 20G<-25 68 68 68>
LayerCount: 2
Fore
SplineSet
-25 691 m 1
 68 691 l 1
 303 -19 l 1
 211 -19 l 1
 -25 691 l 1
EndSplineSet
EndChar

StartChar: bracketright
Encoding: 93 93 62
Width: 333
Flags: HMW
HStem: -149 33<32 112 32 112 112 133 32 266> 645 33<32 95 32 266>
VStem: 162 104<-63 575 575 604>
LayerCount: 2
Fore
SplineSet
32 -116 m 1
 112 -116 l 2
 154 -116 162 -107 162 -63 c 2
 162 575 l 2
 162 633 151 645 95 645 c 2
 32 645 l 1
 32 678 l 1
 266 678 l 1
 266 -149 l 1
 32 -149 l 1
 32 -116 l 1
EndSplineSet
EndChar

StartChar: asciicircum
Encoding: 94 94 63
Width: 581
Flags: HMW
HStem: 656 20G<251 331 331 331>
LayerCount: 2
Fore
SplineSet
73 311 m 1
 251 676 l 1
 331 676 l 1
 509 311 l 1
 420 311 l 1
 291 583 l 1
 162 311 l 1
 73 311 l 1
EndSplineSet
EndChar

StartChar: underscore
Encoding: 95 95 64
Width: 500
Flags: HMW
HStem: -125 50<0 500 0 500>
LayerCount: 2
Fore
SplineSet
0 -75 m 1
 500 -75 l 1
 500 -125 l 1
 0 -125 l 1
 0 -75 l 1
EndSplineSet
EndChar

StartChar: a
Encoding: 97 97 65
Width: 500
Flags: HMW
HStem: -14 64<351.5 454.5> 441 32<192.5 239>
VStem: 25 146<104 113.5> 44 133<326.5 346 322 384.5> 293 138<100 245 245 245>
LayerCount: 2
Fore
SplineSet
25 92 m 0xe8
 25 135 46 169 89 199 c 0
 126 224 175 244 294 280 c 1
 294 353 l 2
 294 414 268 441 210 441 c 0
 175 441 147 425 147 404 c 0
 147 398 150 392 159 382 c 0
 171 366 177 353 177 339 c 0
 177 305 149 281 109 281 c 0
 68 281 44 306 44 347 c 0
 44 422 120 473 233 473 c 0
 355 473 431 420 431 336 c 2
 431 75 l 2
 431 59 438 50 452 50 c 0
 457 50 460 51 463 54 c 2
 473 64 l 1xd8
 488 43 l 1
 450 2 419 -14 376 -14 c 0
 327 -14 305 5 294 56 c 1
 239 6 193 -14 136 -14 c 0
 72 -14 25 31 25 92 c 0xe8
171 124 m 0
 171 84 192 57 222 57 c 0
 246 57 266 69 293 100 c 1
 293 245 l 1
 213 224 171 182 171 124 c 0
EndSplineSet
Substitution2: "'ordn' Ordinals in Latin lookup 52 subtable" ordfeminine
Substitution2: "'ordn' Ordinals in Cyrillic lookup 50 subtable" ordfeminine
Substitution2: "'ordn' Ordinals lookup 48 subtable" ordfeminine
EndChar

StartChar: b
Encoding: 98 98 66
Width: 556
Flags: HMW
HStem: -14 32<270 312 259 361.5> 419 54<309 312> 656 20G<17 211 211 211>
VStem: 72 139<73 97 97 360 417 594 594 614> 374 147<164.5 286.5>
LayerCount: 2
Fore
SplineSet
17 652 m 1
 17 676 l 1
 211 676 l 1
 211 417 l 1
 248 456 285 473 333 473 c 0
 444 473 521 377 521 239 c 0
 521 90 428 -14 295 -14 c 0
 245 -14 209 2 163 43 c 1
 84 -13 l 1
 72 -13 l 1
 72 594 l 2
 72 634 63 643 17 652 c 1
211 97 m 2
 211 49 238 18 280 18 c 0
 344 18 374 83 374 221 c 0
 374 352 343 419 281 419 c 0
 248 419 228 403 211 360 c 1
 211 97 l 2
EndSplineSet
EndChar

StartChar: c
Encoding: 99 99 67
Width: 444
Flags: HMW
HStem: -14 67 442 31
VStem: 25 141 292 124
LayerCount: 2
Fore
SplineSet
24 222 m 0
 24 366 124 472 260 472 c 0
 348 472 415 424 415 362 c 0
 415 329 399 300 357 300 c 0
 320 300 291 328 291 372 c 0
 291 414 289 416 284 425 c 0
 278 436 266 442 250 442 c 0
 198 442 166 379 166 276 c 0
 166 140 221 53 308 53 c 0
 349 53 375 67 412 109 c 1
 429 90 l 1
 371 16 315 -15 238 -15 c 0
 114 -15 24 84 24 222 c 0
EndSplineSet
EndChar

StartChar: d
Encoding: 100 100 68
Width: 556
Flags: HMW
HStem: -14 56<224.5 232.5> 417 56<229 240 162 274.5> 652 24<260 475>
VStem: 25 148<165.5 293.5 165.5 293.5> 336 139<112 355 355 355 411 594 594 617>
LayerCount: 2
Fore
SplineSet
25 221 m 0
 25 366 107 473 217 473 c 0
 263 473 293 457 336 411 c 1
 336 594 l 2
 336 640 327 647 260 652 c 1
 260 676 l 1
 475 676 l 1
 475 101 l 2
 475 59 488 46 534 43 c 1
 534 20 l 1
 472 12 l 2
 410 5 385 0 339 -13 c 1
 339 52 l 1
 292 2 259 -14 206 -14 c 0
 101 -14 25 85 25 221 c 0
173 229 m 0
 173 102 198 42 251 42 c 0
 273 42 294 53 314 76 c 0
 326 89 336 106 336 112 c 2
 336 355 l 1
 322 393 291 417 258 417 c 0
 200 417 173 358 173 229 c 0
EndSplineSet
EndChar

StartChar: e
Encoding: 101 101 69
Width: 444
Flags: HMW
HStem: -14 72<268.5 271.5> 245 37<169 298 164 421 169 169> 442 31<209.5 248>
VStem: 25 144<245 245 245 301> 298 123<245 297 245 297>
LayerCount: 2
Fore
SplineSet
25 228 m 0
 25 374 109 473 234 473 c 0
 289 473 335 453 368 414 c 0
 400 376 415 329 421 245 c 1
 169 245 l 1
 173 176 181 143 199 111 c 0
 220 76 249 58 288 58 c 0
 331 58 362 76 402 125 c 1
 426 111 l 1
 361 18 312 -14 231 -14 c 0
 107 -14 25 82 25 228 c 0
164 282 m 1
 298 282 l 1
 298 297 l 2
 296 348 294 376 289 395 c 0
 281 426 262 442 234 442 c 0
 185 442 167 402 164 282 c 1
EndSplineSet
EndChar

StartChar: f
Encoding: 102 102 70
Width: 333
Flags: HMW
HStem: 0 24<14 292 14 14> 417 44<14 71 14 71 210 297> 660 31<242.5 269>
VStem: 71 139<84 103 103 417 461 504> 267 122<572.5 589>
LayerCount: 2
Fore
SplineSet
14 0 m 1
 14 24 l 1
 60 29 71 41 71 84 c 2
 71 417 l 1
 14 417 l 1
 14 461 l 1
 71 461 l 1
 71 547 78 588 100 623 c 0
 127 667 179 691 246 691 c 0
 330 691 389 650 389 591 c 0
 389 554 364 529 327 529 c 0
 293 529 267 553 267 584 c 0
 267 594 271 605 280 620 c 0
 286 630 289 637 289 641 c 0
 289 653 278 660 260 660 c 0
 225 660 210 638 210 583 c 2
 210 461 l 1
 297 461 l 1
 297 417 l 1
 210 417 l 1
 210 103 l 2
 210 38 222 26 292 24 c 1
 292 0 l 1
 14 0 l 1
EndSplineSet
EndChar

StartChar: g
Encoding: 103 103 71
Width: 500
Flags: HMW
HStem: -206 32<206 299.5 206 312> -52 120<254 319 319 324 151 319> 154 28<216 290.5> 398 53<401 482 401 401> 442 31<216.5 260 180.5 263.5>
VStem: 28 88<-129 -96.5 -129 -93.5> 37 137<295 358 264.5 359.5> 306 135<273.5 320 273.5 357.5> 404 79<-104.5 -85.5>
LayerCount: 2
Fore
SplineSet
28 -114 m 0xf480
 28 -73 61 -48 124 -39 c 1
 60 -16 42 2 42 43 c 0
 42 95 82 133 161 160 c 1
 114 180 95 193 73 217 c 0
 50 245 37 278 37 312 c 0
 37 407 121 473 240 473 c 0xea
 280 473 308 467 352 451 c 1
 482 451 l 1
 482 398 l 1xf2
 401 398 l 1
 429 370 441 340 441 300 c 0xf3
 441 247 418 206 373 180 c 0
 339 160 314 154 267 154 c 2
 222 155 l 2
 182 155 154 133 154 103 c 0
 154 75 174 68 254 68 c 2
 319 68 l 2
 421 68 483 22 483 -55 c 0
 483 -154 395 -206 229 -206 c 0
 103 -206 28 -172 28 -114 c 0xf480
116 -107 m 0
 116 -151 162 -174 250 -174 c 0
 349 -174 404 -148 404 -102 c 0xe480
 404 -69 378 -52 324 -52 c 2
 151 -52 l 1
 123 -75 116 -86 116 -107 c 0
174 311 m 0
 174 218 192 182 240 182 c 0
 287 182 306 218 306 311 c 0
 306 404 287 442 240 442 c 0xeb
 193 442 174 405 174 311 c 0
EndSplineSet
EndChar

StartChar: h
Encoding: 104 104 72
Width: 556
Flags: HMW
HStem: 0 21G<16 257 16 16 299 534 299 299> 406 67<282.5 391> 656 20G<16 208 208 208>
VStem: 69 139<84 348 395 594 594 614.5> 346 139<81 84 84 323 323 332>
LayerCount: 2
Fore
SplineSet
16 0 m 1
 16 24 l 1
 61 33 69 42 69 84 c 2
 69 594 l 2
 69 635 62 643 16 652 c 1
 16 676 l 1
 208 676 l 1
 208 395 l 1
 260 453 297 473 350 473 c 0
 432 473 485 418 485 332 c 2
 485 84 l 2
 485 42 498 27 534 24 c 1
 534 0 l 1
 299 0 l 1
 299 24 l 1
 333 28 346 44 346 81 c 2
 346 323 l 2
 346 379 329 406 294 406 c 0
 271 406 247 394 225 371 c 0
 215 362 208 352 208 348 c 2
 208 81 l 2
 208 44 220 29 257 24 c 1
 257 0 l 1
 16 0 l 1
EndSplineSet
EndChar

StartChar: i
Encoding: 105 105 73
Width: 278
Flags: HMW
HStem: 0 21G<16 255 16 16> 441 20G<16 208 208 208> 536 155<116.5 159>
VStem: 69 139<84 378 378 398.5>
LayerCount: 2
Fore
SplineSet
16 0 m 1
 16 24 l 1
 62 35 69 43 69 84 c 2
 69 378 l 2
 69 419 60 428 16 437 c 1
 16 461 l 1
 208 461 l 1
 208 81 l 2
 208 43 220 29 255 24 c 1
 255 0 l 1
 16 0 l 1
60 614 m 0
 60 656 95 691 138 691 c 0
 181 691 215 656 215 613 c 0
 215 569 181 536 137 536 c 0
 93 536 60 569 60 614 c 0
EndSplineSet
Substitution2: "Single Substitution lookup 66 subtable" dotlessi
Ligature2: "'ccmp' Glyph Composition/Decomposition in Latin lookup 8 subtable" i dotabovecomb
EndChar

StartChar: j
Encoding: 106 106 74
Width: 333
Flags: HMW
HStem: -203 31<63.5 89.5 63.5 117.5> 441 20G<58 260 260 260> 536 155<163.5 206.5 163.5 206.5>
VStem: -57 98<-160 -85> 121 139<-27.5 2 2 378 378 399.5>
LayerCount: 2
Fore
SplineSet
-57 -103 m 0
 -57 -67 -32 -42 5 -42 c 0
 37 -42 64 -66 64 -96 c 0
 64 -106 60 -117 50 -133 c 0
 44 -143 41 -150 41 -155 c 0
 41 -165 54 -172 73 -172 c 0
 106 -172 121 -149 121 -96 c 2
 121 378 l 2
 121 421 109 433 58 437 c 1
 58 461 l 1
 260 461 l 1
 260 2 l 2
 260 -57 252 -95 233 -127 c 0
 205 -176 152 -203 83 -203 c 0
 1 -203 -57 -162 -57 -103 c 0
108 614 m 0
 108 656 142 691 185 691 c 0
 228 691 263 656 263 613 c 0
 263 570 228 536 185 536 c 0
 140 536 108 569 108 614 c 0
EndSplineSet
Substitution2: "Single Substitution lookup 66 subtable" uniF6BE
EndChar

StartChar: k
Encoding: 107 107 75
Width: 556
Flags: HMW
HStem: 0 24<22 261 22 22 537.5 543> 438 23<299 513 299 513> 652 24<22 209>
VStem: 70 139<84 198 245 594 594 613>
LayerCount: 2
Fore
SplineSet
22 0 m 1
 22 24 l 1
 55 27 70 45 70 84 c 2
 70 594 l 2
 70 632 56 649 22 652 c 1
 22 676 l 1
 209 676 l 1
 209 245 l 1
 337 373 l 2
 348 384 358 402 358 411 c 0
 358 424 347 431 323 434 c 0
 320 435 310 436 299 438 c 1
 299 461 l 1
 513 461 l 1
 513 438 l 1
 450 430 424 412 324 307 c 1
 518 39 l 2
 527 27 532 24 543 24 c 1
 543 0 l 1
 309 0 l 1
 309 24 l 1
 337 25 351 31 351 43 c 0
 351 51 344 63 327 88 c 2
 232 222 l 1
 209 198 l 1
 209 84 l 2
 209 37 214 31 261 24 c 1
 261 0 l 1
 22 0 l 1
EndSplineSet
EndChar

StartChar: l
Encoding: 108 108 76
Width: 278
Flags: HMW
HStem: 0 24<16 255 16 16> 652 24<16 206>
VStem: 67 139<84 594 594 612.5>
LayerCount: 2
Fore
SplineSet
16 0 m 1
 16 24 l 1
 50 27 67 47 67 84 c 2
 67 594 l 2
 67 631 51 649 16 652 c 1
 16 676 l 1
 206 676 l 1
 206 84 l 2
 206 44 222 25 255 24 c 1
 255 0 l 1
 16 0 l 1
EndSplineSet
EndChar

StartChar: m
Encoding: 109 109 77
Width: 833
Flags: HMW
HStem: 0 24<16 256 16 16> 406 67<285.5 385.5> 437 24<16 207>
VStem: 71 139<84 348> 348 139<81 323 323 348> 625 139<81 323 323 332>
CounterMasks: 1 1c
LayerCount: 2
Fore
SplineSet
16 0 m 1
 16 24 l 1
 60 32 71 43 71 84 c 2
 71 378 l 2
 71 419 60 431 16 437 c 1
 16 461 l 1
 207 461 l 1xbc
 207 386 l 1
 245 446 291 473 354 473 c 0
 417 473 452 449 482 386 c 1
 534 450 572 473 629 473 c 0
 711 473 764 418 764 332 c 2
 764 81 l 2
 764 38 775 26 814 24 c 1
 814 0 l 1
 576 0 l 1
 576 24 l 1
 614 27 625 39 625 81 c 2
 625 323 l 2
 625 382 610 406 572 406 c 0
 555 406 538 399 516 382 c 0
 503 372 487 353 487 348 c 2
 487 81 l 2
 487 43 499 28 534 24 c 1
 534 0 l 1
 300 0 l 1
 300 24 l 1
 337 27 348 40 348 81 c 2
 348 323 l 2
 348 383 333 406 294 406 c 0xdc
 277 406 260 399 239 383 c 0
 226 373 210 354 210 348 c 2
 210 81 l 2
 210 43 221 29 256 24 c 1
 256 0 l 1
 16 0 l 1
EndSplineSet
EndChar

StartChar: n
Encoding: 110 110 78
Width: 556
Flags: HMW
HStem: 0 24<21 262 21 21> 406 67<287.5 396>
VStem: 74 139<84 348> 351 139<81 323 323 332>
LayerCount: 2
Fore
SplineSet
21 0 m 1
 21 24 l 1
 66 33 74 42 74 84 c 2
 74 378 l 2
 74 420 65 430 21 437 c 1
 21 461 l 1
 212 461 l 1
 212 386 l 1
 249 445 295 473 355 473 c 0
 437 473 490 418 490 332 c 2
 490 81 l 2
 490 39 500 27 539 24 c 1
 539 0 l 1
 304 0 l 1
 304 24 l 1
 338 28 351 44 351 81 c 2
 351 323 l 2
 351 379 334 406 299 406 c 0
 276 406 252 394 230 371 c 0
 220 362 213 352 213 348 c 2
 213 81 l 2
 213 44 225 29 262 24 c 1
 262 0 l 1
 21 0 l 1
EndSplineSet
EndChar

StartChar: o
Encoding: 111 111 79
Width: 500
Flags: HMW
HStem: -14 31<221.5 280 221.5 315.5> 442 31<221 281>
VStem: 25 147<160.5 300> 329 147<159.5 299 159.5 305>
LayerCount: 2
Fore
SplineSet
25 232 m 0
 25 368 124 473 251 473 c 0
 380 473 476 369 476 229 c 0
 476 90 380 -14 251 -14 c 0
 120 -14 25 89 25 232 c 0
172 214 m 0
 172 68 192 17 251 17 c 0
 309 17 329 69 329 223 c 0
 329 387 310 442 252 442 c 0
 190 442 172 390 172 214 c 0
EndSplineSet
Substitution2: "'ordn' Ordinals in Latin lookup 52 subtable" ordmasculine
Substitution2: "'ordn' Ordinals in Cyrillic lookup 50 subtable" ordmasculine
Substitution2: "'ordn' Ordinals lookup 48 subtable" ordmasculine
EndChar

StartChar: p
Encoding: 112 112 80
Width: 556
Flags: HMW
HStem: -205 21<19 292> -13 55<310 319.5 274.5 388> 416 57<308.5 326>
VStem: 75 139<-123 -94 -94 47 103 346> 376 148<165 290.5>
LayerCount: 2
Fore
SplineSet
19 -181 m 1
 67 -173 75 -164 75 -123 c 2
 75 378 l 2
 75 420 65 430 21 437 c 1
 21 461 l 1
 212 461 l 1
 212 392 l 1
 243 450 279 473 338 473 c 0
 449 473 524 378 524 239 c 0
 524 91 444 -13 332 -13 c 0
 288 -13 262 0 214 47 c 1
 214 -94 l 2
 214 -161 231 -181 292 -184 c 1
 292 -205 l 1
 19 -205 l 1
 19 -181 l 1
214 103 m 1
 229 65 258 42 291 42 c 0
 348 42 376 101 376 225 c 0
 376 356 352 416 300 416 c 0
 278 416 255 404 235 382 c 0
 223 369 214 353 214 346 c 2
 214 103 l 1
EndSplineSet
EndChar

StartChar: q
Encoding: 113 113 81
Width: 556
Flags: HMW
HStem: -14 54<242 242.5> 441 32<243.5 281 191 295>
VStem: 34 146<170.5 293.5> 342 139<-97 42 42 42 98 361 361 385>
LayerCount: 2
Fore
SplineSet
34 219 m 0
 34 368 126 473 256 473 c 0
 306 473 337 459 388 416 c 1
 466 472 l 1
 481 472 l 1
 481 -123 l 2
 481 -163 490 -172 536 -181 c 1
 536 -205 l 1
 269 -205 l 1
 269 -180 l 1
 334 -168 342 -159 342 -97 c 2
 342 42 l 1
 301 2 266 -14 219 -14 c 0
 110 -14 34 82 34 219 c 0
180 236 m 0
 180 105 211 40 273 40 c 0
 307 40 332 61 342 98 c 1
 342 361 l 2
 342 409 315 441 275 441 c 0
 212 441 180 371 180 236 c 0
EndSplineSet
EndChar

StartChar: r
Encoding: 114 114 82
Width: 444
Flags: HMW
HStem: 0 24<29 295 29 29> 328 145<358 376.5 328 389.5> 437 24<29 218>
VStem: 83 139<84 103 103 292>
LayerCount: 2
Fore
SplineSet
29 0 m 1
 29 24 l 1
 73 32 83 43 83 84 c 2
 83 378 l 2
 83 418 72 431 29 437 c 1
 29 461 l 1
 218 461 l 1xb0
 218 379 l 1
 265 446 303 473 353 473 c 0
 400 473 434 440 434 395 c 0
 434 356 408 328 371 328 c 0xd0
 345 328 330 337 311 364 c 0
 300 380 291 387 283 387 c 0
 250 387 222 344 222 292 c 2
 222 103 l 2
 222 41 234 28 295 24 c 1
 295 0 l 1
 29 0 l 1
EndSplineSet
EndChar

StartChar: s
Encoding: 115 115 83
Width: 389
Flags: HMW
HStem: -14 34<193 212.5 155 252.5> 440 33<174 195 138.5 206>
VStem: 27 100<365 369> 265 96<93 101>
LayerCount: 2
Fore
SplineSet
25 -13 m 1
 25 152 l 1
 53 152 l 1
 74 65 120 20 190 20 c 0
 235 20 265 46 265 85 c 0
 265 117 237 142 169 172 c 0
 68 215 27 261 27 327 c 0
 27 411 93 473 184 473 c 0
 206 473 229 469 262 458 c 0
 278 453 288 451 294 451 c 0
 306 451 312 456 318 471 c 1
 340 471 l 1
 340 326 l 1
 315 326 l 1
 300 370 289 388 268 408 c 0
 246 429 219 440 193 440 c 0
 155 440 127 415 127 382 c 0
 127 348 155 323 223 294 c 0
 322 252 361 209 361 138 c 0
 361 48 298 -14 207 -14 c 0
 179 -14 126 -3 99 9 c 0
 89 13 81 15 76 15 c 0
 67 15 61 8 50 -13 c 1
 25 -13 l 1
EndSplineSet
EndChar

StartChar: t
Encoding: 116 116 84
Width: 333
Flags: HMW
HStem: -12 71<149.5 260.5> 417 44<211 305 211 305>
VStem: 72 139<96 116 116 417>
LayerCount: 2
Fore
SplineSet
20 417 m 1
 20 444 l 1
 85 499 125 544 186 630 c 1
 211 630 l 1
 211 461 l 1
 305 461 l 1
 305 417 l 1
 211 417 l 1
 211 116 l 2
 211 76 222 59 250 59 c 0
 271 59 287 73 307 111 c 1
 332 100 l 1
 291 18 251 -12 184 -12 c 0
 115 -12 72 28 72 93 c 2
 72 417 l 1
 20 417 l 1
EndSplineSet
EndChar

StartChar: u
Encoding: 117 117 85
Width: 556
Flags: HMW
HStem: -14 65<156.5 274> 441 20G<16 204 204 204 280 481 481 481>
VStem: 65 139<126 378 378 399> 342 139<95 101 101 378 378 399.5>
LayerCount: 2
Fore
SplineSet
16 437 m 1
 16 461 l 1
 204 461 l 1
 204 122 l 2
 204 71 219 51 260 51 c 0
 288 51 309 62 342 95 c 1
 342 378 l 2
 342 421 330 433 280 437 c 1
 280 461 l 1
 481 461 l 1
 481 101 l 2
 481 58 493 45 537 43 c 1
 537 20 l 1
 475 13 l 2
 410 6 386 2 343 -13 c 1
 343 52 l 1
 285 2 250 -14 198 -14 c 0
 115 -14 65 38 65 126 c 2
 65 378 l 2
 65 420 57 429 16 437 c 1
EndSplineSet
EndChar

StartChar: v
Encoding: 118 118 86
Width: 500
Flags: HMW
HStem: -14 21G<241 267 241 241> 435 26<253 254>
LayerCount: 2
Fore
SplineSet
21 437 m 1
 21 461 l 1
 271 461 l 1
 271 437 l 1
 263 436 255 435 253 435 c 0
 228 433 218 426 218 411 c 0
 218 405 220 399 227 380 c 2
 306 177 l 1
 378 359 l 2
 385 377 389 393 389 404 c 0
 389 428 377 435 334 437 c 1
 334 461 l 1
 485 461 l 1
 485 437 l 1
 454 434 446 426 427 382 c 2
 267 -14 l 1
 241 -14 l 1
 121 282 l 2
 105.07952097 322.796227516 58.4664199494 422.007445269 56.033145736 422.007445269 c 0
 56.02099181 422.007445269 56.0099401212 422.004970061 56 422 c 0
 50 431 44 434 21 437 c 1
EndSplineSet
EndChar

StartChar: w
Encoding: 119 119 87
Width: 722
Flags: HMW
HStem: -14 21G<228 252 228 228 479 502 479 479> 437 24<23 245 23 245>
LayerCount: 2
Fore
SplineSet
23 437 m 1
 23 461 l 1
 245 461 l 1
 245 437 l 1
 217 433 207 425 207 409 c 0
 207 396 218 364 246 294 c 0
 251 280 258 261 267 240 c 2
 291 176 l 1
 359 347 l 1
 353 366 l 2
 334 432 333 433 294 437 c 1
 294 461 l 1
 528 461 l 1
 528 437 l 1
 490 434 480 429 480 413 c 0
 480 404 487 376 507 307 c 0
 528 233 531 221 541 180 c 1
 553 214 561 235 576 274 c 0
 607 353 620 390 620 402 c 0
 620 425 609 433 572 437 c 1
 572 461 l 1
 707 461 l 1
 707 437 l 1
 681 432 673 424 657 387 c 2
 502 -14 l 1
 479 -14 l 1
 377 296 l 1
 252 -14 l 1
 228 -14 l 1
 80 360 l 2
 53 426 49 432 23 437 c 1
EndSplineSet
EndChar

StartChar: x
Encoding: 120 120 88
Width: 500
Flags: HMW
HStem: 0 21G<14 183 14 14 243 484 243 243> 435 26<327.5 329>
LayerCount: 2
Fore
SplineSet
12 437 m 1
 12 461 l 1
 262 461 l 1
 262 437 l 1
 229 436 215 430 215 418 c 0
 215 396 280 310 286 303 c 1
 301 324 360 386 360 413 c 0
 360 428 352 434 329 435 c 0
 326 435 318 436 309 437 c 1
 309 461 l 1
 477 461 l 1
 477 437 l 1
 446 432 426 421 407 398 c 2
 306 272 l 1
 454 44 l 2
 461 33 468 29 484 24 c 1
 484 0 l 1
 243 0 l 1
 243 24 l 1
 274 26 288 32 288 44 c 0
 288 56 278 75 255 108 c 2
 213 171 l 1
 206 162 133 74 133 48 c 0
 133 33 147 26 183 24 c 1
 183 0 l 1
 14 0 l 1
 14 24 l 1
 51 26 71 43 127 117 c 2
 192 201 l 1
 64 398 l 2
 44 428 38 433 12 437 c 1
EndSplineSet
EndChar

StartChar: y
Encoding: 121 121 89
Width: 500
Flags: HMW
HStem: -205 143<84.5 97 61.5 130> 437 24<16 266 16 266>
VStem: 16 119<-135.5 -129 -135.5 -107>
LayerCount: 2
Fore
SplineSet
16 -126 m 0
 16 -88 43 -62 80 -62 c 0
 114 -62 138 -82 138 -111 c 0
 138 -119 135 -127 135 -131 c 0
 135 -140 143 -148 152 -148 c 0
 175 -148 201 -116 218 -66 c 2
 236 -13 l 1
 116 282 l 2
 99 324 54 422 51 422 c 0
 45 431 39 434 16 437 c 1
 16 461 l 1
 266 461 l 1
 266 437 l 1
 250 436 l 2
 225 434 213 425 213 411 c 0
 213 403 213 403 233 352 c 2
 305 167 l 1
 373 359 l 2
 382 384 384 393 384 404 c 0
 384 428 372 435 329 437 c 1
 329 461 l 1
 480 461 l 1
 480 437 l 1
 449 434 439 424 422 382 c 2
 273 -15 l 2
 238 -109 218 -149 197 -172 c 0
 176 -193 147 -205 113 -205 c 0
 56 -205 16 -172 16 -126 c 0
EndSplineSet
EndChar

StartChar: z
Encoding: 122 122 90
Width: 444
Flags: HMW
HStem: 0 32<185 214 214 254> 429 32<255 255>
LayerCount: 2
Fore
SplineSet
21 0 m 1
 21 25 l 1
 255 429 l 1
 251.082271624 429.027983774 247.253815691 429.042654991 243.512155937 429.042654991 c 0
 113.545626838 429.042654991 88.3004056471 411.341541459 64 319 c 1
 38 319 l 1
 45 461 l 1
 416 461 l 1
 416 435 l 1
 185 32 l 1
 214 32 l 2
 294 32 327 45 359 89 c 0
 375 110 383 128 392 160 c 1
 420 160 l 1
 404 0 l 1
 21 0 l 1
EndSplineSet
EndChar

StartChar: braceleft
Encoding: 123 123 91
Width: 394
Flags: HMW
VStem: 129 105<-34 131 377 391 391 556 556 562>
LayerCount: 2
Fore
SplineSet
22 261 m 1
 107 282 129 306 129 377 c 2
 129 556 l 2
 129 611 145 648 179 669 c 0
 211 690 251 697 340 698 c 1
 340 686 l 1
 260 669 234 638 234 562 c 2
 234 391 l 2
 234 307 210 281 116 261 c 1
 210 241 234 215 234 131 c 2
 234 -40 l 2
 234 -116 261 -147 340 -163 c 1
 340 -175 l 1
 242 -174 198 -164 168 -138 c 0
 141 -116 129 -83 129 -34 c 2
 129 145 l 2
 129 216 107 240 22 261 c 1
EndSplineSet
EndChar

StartChar: bar
Encoding: 124 124 92
Width: 220
Flags: MW
HStem: -19 21G<66 66 66 154> 671 20G<66 154 154 154>
VStem: 66 88<-19 691 -19 691>
LayerCount: 2
Fore
SplineSet
66 -19 m 1
 66 691 l 1
 154 691 l 1
 154 -19 l 1
 66 -19 l 1
EndSplineSet
Validated: 1
EndChar

StartChar: braceright
Encoding: 125 125 93
Width: 394
Flags: HMW
VStem: 160 105<-39 -33 -33 132 132 146 392 557>
LayerCount: 2
Fore
SplineSet
54 -163 m 1
 134 -146 160 -115 160 -39 c 2
 160 132 l 2
 160 215 185 242 278 262 c 1
 184 282 160 308 160 392 c 2
 160 563 l 2
 160 638 133 670 54 686 c 1
 54 698 l 1
 144 697 183 690 215 669 c 0
 249 648 265 612 265 557 c 2
 265 378 l 2
 265 307 287 283 372 262 c 1
 287 241 265 217 265 146 c 2
 265 -33 l 2
 265 -88 249 -125 215 -146 c 0
 183 -167 143 -174 54 -175 c 1
 54 -163 l 1
EndSplineSet
EndChar

StartChar: asciitilde
Encoding: 126 126 94
Width: 520
Flags: HMW
HStem: 175 88<359.5 379.5 359.5 391> 243 88<136.5 168.5>
VStem: 29 462<247 260>
LayerCount: 2
Fore
SplineSet
29 247 m 1
 63 306 99 331 153 331 c 0x60
 186 331 212 323 287 289 c 0
 333 269 351 263 368 263 c 0
 391 263 411 276 436 308 c 1xa0
 491 260 l 1
 446 197 414 175 368 175 c 0xa0
 335 175 309 183 263 208 c 0
 217 233 186 243 151 243 c 0
 122 243 105 233 82 201 c 1
 29 247 l 1
EndSplineSet
EndChar

StartChar: exclamdown
Encoding: 257 161 95
Width: 333
Flags: HMW
HStem: 332 169<144 190>
VStem: 82 169<394.5 440 393.5 441>
LayerCount: 2
Fore
SplineSet
82 418 m 0
 82 464 120 501 168 501 c 0
 215 501 251 464 251 416 c 0
 251 371 213 332 167 332 c 0
 120 332 82 371 82 418 c 0
83 -101 m 0
 83 -78 87 -58 101 -14 c 0
 131 82 140 131 153 254 c 1
 182 254 l 1
 195 131 205 81 234 -14 c 0
 248 -59 252 -78 252 -103 c 0
 252 -166 221 -203 167 -203 c 0
 114 -203 83 -166 83 -101 c 0
EndSplineSet
EndChar

StartChar: cent
Encoding: 258 162 96
Width: 500
Flags: HMW
HStem: -14 67<257.5 356.5> 442 31<252.5 290.5>
VStem: 53 141<245 294.5> 321 123<345 400 345 412>
LayerCount: 2
Fore
SplineSet
53 223 m 0
 53 366 152 473 285 473 c 0
 306 473 321 471 345 465 c 1
 389 588 l 1
 429 588 l 1
 381 452 l 1
 425 428 444 401 444 364 c 0
 444 326 417 300 378 300 c 0
 360 300 346 306 334 320 c 1
 252 90 l 1
 279 63 301 53 335 53 c 0
 378 53 406 68 440 109 c 1
 458 91 l 1
 424 49 404 30 377 15 c 0
 343 -4 306 -14 267 -14 c 0
 248 -14 236 -12 217 -7 c 1
 170 -140 l 1
 130 -140 l 1
 181 5 l 1
 148 21 135 31 117 49 c 0
 75 92 53 153 53 223 c 0
194 274 m 0
 194 216 203 174 225 128 c 1
 321 397 l 1
 321 400 l 2
 321 424 303 442 278 442 c 0
 227 442 194 376 194 274 c 0
EndSplineSet
EndChar

StartChar: sterling
Encoding: 259 163 97
Width: 500
Flags: HMW
HStem: -14 126<340.5 366> -13 30<92.5 127.5 92.5 131.5> 118 46<92.5 122.5> 308 65<39 119 39 137 39 119 275 384 275 275> 654 30<283 301>
VStem: 21 32<51.5 82 51.5 102> 105 126<474 610> 331 128<549 611 549 625>
LayerCount: 2
Fore
SplineSet
21 72 m 0
 21 132 58 164 127 164 c 0
 145 164 158 162 178 157 c 1
 176 194 172 210 137 308 c 1
 39 308 l 1
 39 373 l 1
 119 373 l 1
 108 434 105 459 105 489 c 0
 105 553 134 613 182 648 c 0
 214 671 258 684 308 684 c 0
 401 684 459 640 459 571 c 0
 459 527 433 499 391 499 c 0
 354.371281296 499 328.892116891 524.086497171 328.892116891 559.929881405 c 0
 328.892116891 561.271761879 328.9278273 562.628718704 329 564 c 2
 331 608 l 1
 331 611 l 2
 331 639 315 654 287 654 c 0
 254 654 231 629 231 591 c 0
 231 569 251 458 270 373 c 1
 384 373 l 1x7f
 384 308 l 1
 275 308 l 1
 276 289 277 275 277 254 c 0
 277 206 273 180 257 134 c 1
 300 118 327 112 354 112 c 0
 416 112 439 129 454 183 c 1
 477 183 l 1
 470 104 460 65 439 34 c 0
 418 3 386 -14 346 -14 c 0xbf
 303 -14 275 0 221 49 c 1
 188 6 154 -13 109 -13 c 0
 53 -13 21 18 21 72 c 0
53 66 m 0
 53 37 76 17 109 17 c 0
 146 17 167 37 181 86 c 1
 154 110 136 118 109 118 c 0
 75 118 53 98 53 66 c 0
EndSplineSet
EndChar

StartChar: currency
Encoding: 260 164 98
Width: 500
Flags: HMW
HStem: 122 82<228 272> 470 82<227 273 227 285.5>
VStem: 35 88<313.5 360> 377 88<313.5 360 313.5 372.5>
LayerCount: 2
Fore
SplineSet
-26 119 m 1
 72 217 l 1
 46 255 35 290 35 337 c 0
 35 383 46 420 72 459 c 1
 -26 557 l 1
 32 613 l 1
 128 517 l 1
 168 542 204 552 250 552 c 0
 296 552 332 542 372 517 c 1
 468 613 l 1
 526 557 l 1
 428 459 l 1
 455 416 465 383 465 337 c 0
 465 290 454 253 428 217 c 1
 526 119 l 1
 468 61 l 1
 372 159 l 1
 331 133 294 122 250 122 c 0
 206 122 169 133 128 159 c 1
 32 61 l 1
 -26 119 l 1
123 337 m 0
 123 263 179 204 250 204 c 0
 319 204 377 264 377 335 c 0
 377 410 321 470 250 470 c 0
 179 470 123 412 123 337 c 0
EndSplineSet
EndChar

StartChar: yen
Encoding: 261 165 99
Width: 500
Flags: HMW
HStem: 0 25<83 414 83 83> 164 50<50 185 50 185 315 450> 292 50<50 149 50 174 50 149 339 450> 650 26<-64 237 -64 237>
VStem: 185 130<115 164 81 164 214 271 271 271>
LayerCount: 2
Fore
SplineSet
-64 650 m 1
 -64 676 l 1
 237 676 l 1
 237 650 l 1
 177 648 160 642 160 621 c 0
 160 605 179 564 187 549 c 2
 293 342 l 1
 412 572 l 2
 417 583 420 595 420 607 c 0
 420 639 406 647 342 650 c 1
 342 676 l 1
 547 676 l 1
 547 650 l 1
 513 647 496 637 483 613 c 2
 339 342 l 1
 450 342 l 1
 450 292 l 1
 319 292 l 1
 315 281 l 1
 315 214 l 1
 450 214 l 1
 450 164 l 1
 315 164 l 1
 315 115 l 2
 315 47 331 32 414 25 c 1
 414 0 l 1
 83 0 l 1
 83 25 l 1
 168 32 185 47 185 115 c 2
 185 164 l 1
 50 164 l 1
 50 214 l 1
 185 214 l 1
 185 271 l 1
 174 292 l 1
 50 292 l 1
 50 342 l 1
 149 342 l 1
 19 597 l 2
 0 633 -23 647 -64 650 c 1
EndSplineSet
EndChar

StartChar: brokenbar
Encoding: 262 166 100
Width: 220
Flags: MW
HStem: -19 21G<66 66 66 154> 671 20G<66 154 154 154>
VStem: 66 88<-19 258 -19 258 414 691>
LayerCount: 2
Fore
SplineSet
66 -19 m 1
 66 258 l 1
 154 258 l 1
 154 -19 l 1
 66 -19 l 1
66 414 m 1
 66 691 l 1
 154 691 l 1
 154 414 l 1
 66 414 l 1
EndSplineSet
Validated: 1
EndChar

StartChar: section
Encoding: 253 167 101
Width: 500
Flags: HMW
HStem: -132 23<222.5 266.5 222.5 287.5> 144 23 392 23<180 199 180 201> 668 23<231.5 270>
VStem: 57 75<318 332.5> 90 128<-31 -13.5> 99 74<582 599> 268 125<575.5 592> 319 85<-40.5 -22.5> 367 76<238 238.5>
LayerCount: 2
Fore
SplineSet
57 293 m 0
 57 372 101 415 180 415 c 2xf880
 199 415 l 1
 117 487 99 513 99 561 c 0
 99 637 161 691 248 691 c 0
 326 691 393 645 393 592 c 0
 393 559 362 528 328 528 c 0
 299 528 268 558 268 585 c 0xf3
 268 599 277 614 295 628 c 0
 304 636 310 643 310 647 c 0
 310 658 284 668 256 668 c 0
 207 668 173 640 173 599 c 0
 173 565 208 526 277 480 c 0
 343 437 393 388 423 337 c 0
 436 315 443 287 443 256 c 0xf240
 443 220 429 189 405 170 c 0
 383 152 356 145 302 144 c 1
 376 92 404 51 404 -3 c 0
 404 -78 335 -132 240 -132 c 0
 157 -132 90 -87 90 -32 c 0
 90 5 118 33 153 33 c 0
 188 33 218 7 218 -23 c 0xf480
 218 -39 210 -51 187 -65 c 0
 176 -72 172 -76 172 -80 c 0
 172 -95 205 -109 240 -109 c 0
 293 -109 319 -85 319 -38 c 0
 319 -7 310 9 282 32 c 2
 225 78 l 2
 84 192 57 226 57 293 c 0
132 336 m 0
 132 300 142 285 202 233 c 0
 263 180 284 167 314 167 c 0
 344 167 367 191 367 225 c 0xf840
 367 252 357 271 324 302 c 0
 258 365 216 392 186 392 c 0
 155 392 132 368 132 336 c 0
EndSplineSet
EndChar

StartChar: dieresis
Encoding: 263 168 102
Width: 333
Flags: HMW
HStem: 537 129<45 79.5 45 80 254.5 289>
VStem: -2 129<584.5 618 582.5 619> 208 129<584.5 618 582.5 619.5>
LayerCount: 2
Fore
SplineSet
-2 602 m 0
 -2 636 28 666 62 666 c 0
 97 666 127 636 127 600 c 0
 127 565 98 537 62 537 c 0
 27 537 -2 567 -2 602 c 0
208 603 m 0
 208 636 238 666 271 666 c 0
 307 666 337 636 337 600 c 0
 337 565 308 537 271 537 c 0
 236 537 208 566 208 603 c 0
EndSplineSet
EndChar

StartChar: copyright
Encoding: 264 169 103
Width: 747
Flags: HMW
HStem: -19 52<295 449 295 470> 142 23<362 405> 521 23<361.5 420.5 333 429> 639 52<297 450.5>
VStem: 26 71<252 419.5 252 435> 176 102<287 401 287 402> 650 71<251 420>
LayerCount: 2
Fore
SplineSet
26 335 m 0
 26 535 178 691 374 691 c 0
 569 691 721 536 721 337 c 0
 721 133 571 -19 369 -19 c 0
 178 -19 26 138 26 335 c 0
97 335 m 0
 97 169 220 33 370 33 c 0
 528 33 650 166 650 336 c 0
 650 504 527 639 374 639 c 0
 220 639 97 504 97 335 c 0
176 340 m 0
 176 464 264 544 402 544 c 0
 439 544 465 539 505 525 c 0
 521 519 527 514 527 504 c 2
 527 432 l 1
 508 432 l 1
 490 493 457 521 401 521 c 0
 322 521 278 458 278 344 c 0
 278 230 323 165 401 165 c 0
 457 165 493 191 525 256 c 1
 544 256 l 1
 528 182 l 2
 527 172 516 164 497 159 c 2
 497 159 490 158 485 156 c 0
 448 146 420 142 390 142 c 0
 259 142 176 218 176 340 c 0
EndSplineSet
EndChar

StartChar: ordfeminine
Encoding: 265 170 104
Width: 300
Flags: HMW
HStem: 397 38<212 280.5> 665 23<112 141>
VStem: -1 98<467.5 488> 12 90<600.5 611 597.5 636> 172 96<465 552 552 552>
LayerCount: 2
Fore
SplineSet
-1 463 m 0xe8
 -1 513 38 538 173 573 c 1
 173 613 l 2
 173 650 159 665 123 665 c 0
 101 665 82 655 82 643 c 0
 82 640 85 635 91 629 c 0
 99 621 102 614 102 608 c 0
 102 587 82 573 54 573 c 0
 28 573 12 588 12 613 c 0
 12 659 63 688 141 688 c 0
 219 688 268 656 268 606 c 2
 268 450 l 2
 268 439 271 435 279 435 c 0
 282 435 284 436 285 437 c 2
 291 443 l 1xd8
 301 431 l 1
 277 406 257 397 228 397 c 0
 196 397 182 408 175 438 c 1
 140 409 111 397 73 397 c 0
 29 397 -1 424 -1 463 c 0xe8
97 479 m 0
 97 456 110 439 129 439 c 0
 145 439 158 447 172 465 c 1
 172 552 l 1
 122 537 97 513 97 479 c 0
EndSplineSet
EndChar

StartChar: guillemotleft
Encoding: 266 171 105
Width: 500
Flags: HMW
HStem: 36 379<260 268.5 256.5 269 456 464.5 256.5 465>
VStem: 23 450<47.5 229 47.5 229>
LayerCount: 2
Fore
SplineSet
23 225 m 1
 23 229 l 1
 226 393 l 2
 242 406 251 415 262 415 c 0
 275 415 275 409 275 401 c 0
 275 372 189 265 159 227 c 1
 186 186 277 84 277 54 c 0
 277 41 273 36 265 36 c 0
 255 36 242 48 229 59 c 2
 23 225 l 1
219 225 m 1
 219 229 l 1
 422 393 l 2
 438 406 447 415 458 415 c 0
 471 415 471 409 471 401 c 0
 471 372 385 265 355 227 c 1
 382 186 473 84 473 54 c 0
 473 41 469 36 461 36 c 0
 451 36 438 48 425 59 c 2
 219 225 l 1
EndSplineSet
Substitution2: "'locl' Localized Forms in Greek lookup 24 subtable" uniEB0E
Substitution2: "'aalt' Access All Alternates lookup 0 subtable" uniEB0E
EndChar

StartChar: logicalnot
Encoding: 267 172 106
Width: 570
Flags: HMW
HStem: 311 88<33 449 33 537>
VStem: 449 88<108 311 311 311>
LayerCount: 2
Fore
SplineSet
33 311 m 1
 33 399 l 1
 537 399 l 1
 537 108 l 1
 449 108 l 1
 449 311 l 1
 33 311 l 1
EndSplineSet
EndChar

StartChar: uni00AD
Encoding: 173 173 107
Width: 333
Flags: HMW
HStem: 171 116<44 287 44 287>
LayerCount: 2
Fore
SplineSet
44 171 m 1
 44 287 l 1
 287 287 l 1
 287 171 l 1
 44 171 l 1
EndSplineSet
EndChar

StartChar: registered
Encoding: 268 174 108
Width: 747
Flags: HMW
HStem: -19 52<295 449 295 470> 153 18<207 379 207 207> 320 22<333 368 368 370 333 368> 510 22<333 333 333 369> 639 52<297 450.5>
VStem: 26 71<252 419.5 252 435> 253 80<215 320 342 470 470 490.5> 430 85<412 457> 650 71<251 420>
LayerCount: 2
Fore
SplineSet
26 335 m 0
 26 535 178 691 374 691 c 0
 569 691 721 536 721 337 c 0
 721 133 571 -19 369 -19 c 0
 178 -19 26 138 26 335 c 0
97 335 m 0
 97 169 220 33 370 33 c 0
 528 33 650 166 650 336 c 0
 650 504 527 639 374 639 c 0
 220 639 97 504 97 335 c 0
207 153 m 1
 207 171 l 1
 252 174 253 175 253 215 c 2
 253 470 l 2
 253 511 253 511 207 514 c 1
 207 532 l 1
 400 532 l 2
 471 532 515 495 515 436 c 0
 515 388 488 352 435 331 c 1
 493 249 l 2
 522 209 542 184 563 164 c 1
 563 153 l 1
 482 153 l 2
 466 153 450 174 419 234 c 0
 401 270 391 286 370 320 c 1
 333 320 l 1
 333 215 l 2
 333 175 334 174 379 171 c 1
 379 153 l 1
 207 153 l 1
333 342 m 1
 368 342 l 2
 407 342 430 374 430 430 c 0
 430 484 410 510 369 510 c 2
 333 510 l 1
 333 342 l 1
EndSplineSet
EndChar

StartChar: degree
Encoding: 269 176 109
Width: 400
Flags: HMW
HStem: 402 36<171.5 227.5 171.5 239> 652 36<172 227.5>
VStem: 57 41<516 574 516 585> 302 41<515.5 574>
LayerCount: 2
Fore
SplineSet
57 545 m 0
 57 625 120 688 200 688 c 0
 280 688 343 625 343 545 c 0
 343 464 280 402 198 402 c 0
 120 402 57 466 57 545 c 0
98 545 m 0
 98 487 144 438 199 438 c 0
 256 438 302 486 302 545 c 0
 302 603 255 652 200 652 c 0
 144 652 98 603 98 545 c 0
EndSplineSet
EndChar

StartChar: plusminus
Encoding: 270 177 110
Width: 570
Flags: HMW
HStem: 0 88<33 537 33 537> 271 88<33 241 33 241 329 537>
VStem: 241 88<128 271 128 271 359 568>
LayerCount: 2
Fore
SplineSet
33 0 m 1
 33 88 l 1
 537 88 l 1
 537 0 l 1
 33 0 l 1
33 271 m 1
 33 359 l 1
 241 359 l 1
 241 568 l 1
 329 568 l 1
 329 359 l 1
 537 359 l 1
 537 271 l 1
 329 271 l 1
 329 128 l 1
 241 128 l 1
 241 271 l 1
 33 271 l 1
EndSplineSet
EndChar

StartChar: two.superior
Encoding: 271 178 111
Width: 300
Flags: HMW
HStem: 275 80<99 191 191 224 99 270> 620 68<120 130>
VStem: 184 88<555 565>
LayerCount: 2
Fore
SplineSet
0 275 m 1
 0 289 l 1
 149 438 184 486 184 544 c 0
 184 586 151 620 109 620 c 0
 75 620 54 605 33 566 c 1
 9 566 l 1
 43 650 88 688 152 688 c 0
 222 688 272 642 272 577 c 0
 272 533 251 497 198 447 c 2
 99 355 l 1
 191 355 l 2
 257 355 265 359 284 402 c 1
 300 402 l 1
 270 275 l 1
 0 275 l 1
EndSplineSet
EndChar

StartChar: three.superior
Encoding: 272 179 112
Width: 300
Flags: HMW
HStem: 268 94<37.5 157> 640 48<95.5 198.5>
VStem: 176 95<589 597.5> 222 75<380.5 398>
LayerCount: 2
Fore
SplineSet
3 322 m 0
 3 346 29 362 46 362 c 0
 99 362 115 304 159 304 c 0xd0
 197 304 222 330 222 369 c 0xd0
 222 427 188 459 92 490 c 1
 92 500 l 1
 153 518 176 539 176 579 c 0
 176 616 150 640 111 640 c 0
 80 640 61 627 36 590 c 1
 16 597 l 1
 52 658 100 688 165 688 c 0
 232 688 271 658 271 607 c 0xe0
 271 571 258 553 217 531 c 1
 271 509 297 474 297 424 c 0
 297 337 211 268 103 268 c 0
 42 268 3 289 3 322 c 0
EndSplineSet
EndChar

StartChar: mu
Encoding: 273 181 113
Width: 556
Flags: HMW
HStem: -13 88<245 250.5> 441 20G<66 205 205 205 336 475 475 475>
VStem: 33 128<-153.5 -122.5> 66 139<127 149 149 461> 336 139<102 461>
LayerCount: 2
Fore
SplineSet
33 -129 m 0xe8
 33 -116 36 -101 44 -72 c 0
 60 -10 66 35 66 88 c 2
 66 461 l 1
 205 461 l 1
 205 149 l 2
 205 105 228 75 262 75 c 0
 283 75 308 84 336 102 c 1
 336 461 l 1
 475 461 l 1xd8
 475 101 l 2
 475 75 493 54 515 54 c 0
 522 54 527 55 536 60 c 1
 536 36 l 1
 492 -3 472 -13 430 -13 c 0
 382 -13 351 3 329 39 c 1
 298 1 271 -13 230 -13 c 0
 190 -13 160 -3 128 22 c 1
 132 -11 134 -18 146 -59 c 0
 157 -93 161 -113 161 -130 c 0
 161 -179 138 -206 98 -206 c 0
 57 -206 33 -178 33 -129 c 0xe8
EndSplineSet
EndChar

StartChar: paragraph
Encoding: 274 182 114
Width: 540
Flags: HMW
HStem: -186 25<118 293 118 118> 651 25<199 519 293 293 293 343 219 519>
VStem: 0 90<436.5 507.5 430.5 548> 118 175<-186 -161 -161 -161> 198 95<-129.5 -109> 343 94<-99 -61 -61 551 551 589>
LayerCount: 2
Fore
SplineSet
0 481 m 0
 0 615 69 676 219 676 c 2
 519 676 l 1
 519 651 l 1
 508 650 497 649 493 649 c 0
 444 643 438 638 438 599 c 2
 437 589 l 1
 437 551 l 1
 437 -61 l 1
 437 -99 l 1
 438 -109 l 2
 439 -148 443 -153 491 -159 c 0
 494 -159 504 -160 514 -161 c 1
 514 -186 l 1
 343 -186 l 1
 343 651 l 1
 293 651 l 1xf4
 293 -186 l 1
 118 -186 l 1
 118 -161 l 1xf4
 192 -154 198 -150 198 -109 c 1xec
 199 -99 l 1
 199 -61 l 1
 199 265 l 1
 148 267 122 274 92 292 c 0
 32 327 0 392 0 481 c 0
90 483 m 0
 90 378 124 317 199 290 c 1
 199 651 l 1
 152 639 132 627 115 598 c 0
 99 572 90 532 90 483 c 0
EndSplineSet
EndChar

StartChar: periodcentered
Encoding: 275 183 115
Width: 250
Flags: HMW
HStem: 248 169<102 148>
VStem: 41 169<309 355 308.5 355.5>
LayerCount: 2
Fore
SplineSet
41 333 m 0
 41 378 79 417 125 417 c 0
 172 417 210 378 210 332 c 0
 210 285 172 248 124 248 c 0
 77 248 41 285 41 333 c 0
EndSplineSet
Substitution2: "'locl' Localized Forms in Greek lookup 24 subtable" anoteleia
Substitution2: "'aalt' Access All Alternates lookup 0 subtable" anoteleia
EndChar

StartChar: cedilla
Encoding: 276 184 116
Width: 333
Flags: HMW
HStem: -218 41<147.5 162 135.5 204> -100 41<150.5 233.5> -20 20G<159 201 201 201>
LayerCount: 2
Fore
SplineSet
68 -200 m 1
 84 -163 l 1
 90 -165 l 2
 113 -174 127 -177 144 -177 c 0
 180 -177 201 -162 201 -136 c 0
 201 -114 184 -100 155 -100 c 0
 146 -100 138 -101 127 -104 c 1
 116 -96 l 1
 159 0 l 1
 201 0 l 1
 173 -64 l 1
 185 -60 193 -59 206 -59 c 0
 261 -59 294 -85 294 -129 c 0
 294 -184 244 -218 164 -218 c 0
 131 -218 104 -213 68 -200 c 1
EndSplineSet
EndChar

StartChar: one.superior
Encoding: 277 185 117
Width: 300
Flags: HMW
HStem: 275 20<30 62 30 273 30 62> 668 20G<192 203 203 203>
VStem: 107 96<355 576 576 590>
LayerCount: 2
Fore
SplineSet
28 602 m 1
 28 623 l 1
 192 688 l 1
 203 688 l 1
 203 351 l 2
 203 305 214 296 273 295 c 1
 273 275 l 1
 30 275 l 1
 30 295 l 1
 94 295 107 305 107 355 c 2
 107 576 l 2
 107 604 100 617 84 617 c 0
 75 617 59 613 41 607 c 0
 39 606 34 604 28 602 c 1
EndSplineSet
EndChar

StartChar: ordmasculine
Encoding: 278 186 118
Width: 330
Flags: HMW
HStem: 397 20<146 182.5 146 206.5> 667 21<146 183.5>
VStem: 18 97<500.5 584> 214 98<500 584.5 500 586>
LayerCount: 2
Fore
SplineSet
18 542 m 0
 18 626 81 688 165 688 c 0
 249 688 312 626 312 543 c 0
 312 457 250 397 163 397 c 0
 80 397 18 459 18 542 c 0
115 538 m 0
 115 449 128 417 164 417 c 0
 201 417 214 447 214 536 c 0
 214 636 202 667 165 667 c 0
 127 667 115 635 115 538 c 0
EndSplineSet
EndChar

StartChar: guillemotright
Encoding: 279 187 119
Width: 500
Flags: HMW
HStem: 36 379<35.5 44 35 47.5 231.5 240 35 243.5>
VStem: 27 450<222 403.5>
LayerCount: 2
Fore
SplineSet
27 397 m 0
 27 410 31 415 39 415 c 0
 49 415 62 403 75 392 c 2
 281 226 l 1
 281 222 l 1
 78 58 l 2
 62 45 53 36 42 36 c 0
 29 36 29 42 29 50 c 0
 29 79 115 186 145 224 c 1
 118 265 27 367 27 397 c 0
223 397 m 0
 223 410 227 415 235 415 c 0
 245 415 258 403 271 392 c 2
 477 226 l 1
 477 222 l 1
 274 58 l 2
 258 45 249 36 238 36 c 0
 225 36 225 42 225 50 c 0
 225 79 311 186 341 224 c 1
 314 265 223 367 223 397 c 0
EndSplineSet
Substitution2: "'locl' Localized Forms in Greek lookup 24 subtable" uniEB0F
Substitution2: "'aalt' Access All Alternates lookup 0 subtable" uniEB0F
EndChar

StartChar: onequarter
Encoding: 280 188 120
Width: 750
Flags: HMW
HStem: -12 21<174 232 174 174> 87 66<472 608 447 609 702 743> 275 20<30 62 30 273 30 62> 393 20<650 702 702 702> 668 20<192 203 203 203 615 671 671 671>
VStem: 107 96<355 576 576 590> 608 94<0 87 0 87>
LayerCount: 2
Fore
SplineSet
28 602 m 1
 28 623 l 1
 192 688 l 1
 203 688 l 1
 203 351 l 2
 203 305 214 296 273 295 c 1
 273 275 l 1
 30 275 l 1
 30 295 l 1
 94 295 107 305 107 355 c 2
 107 576 l 2
 107 604 100 617 84 617 c 0
 75 617 59 613 41 607 c 0
 39 606 34 604 28 602 c 1
174 -12 m 1
 615 688 l 1
 671 688 l 1
 232 -12 l 1
 174 -12 l 1
447 87 m 1
 447 154 l 1
 489 217 522 259 611 367 c 2
 650 413 l 1
 702 413 l 1
 702 153 l 1
 743 153 l 1
 743 87 l 1
 702 87 l 1
 702 0 l 1
 608 0 l 1
 608 87 l 1
 447 87 l 1
472 153 m 1
 609 153 l 1
 609 328 l 1
 472 153 l 1
EndSplineSet
EndChar

StartChar: onehalf
Encoding: 281 189 121
Width: 750
Flags: HW
LayerCount: 2
Fore
SplineSet
-7 602 m 1
 -7 623 l 1
 157 688 l 1
 168 688 l 1
 168 351 l 2
 168 305 179 296 238 295 c 1
 238 275 l 1
 -5 275 l 1
 -5 295 l 1
 59 295 72 305 72 355 c 2
 72 576 l 2
 72 604 65 617 49 617 c 0
 40 617 24 613 6 607 c 0
 4 606 -1 604 -7 602 c 1
132 -12 m 1
 573 688 l 1
 629 688 l 1
 190 -12 l 1
 132 -12 l 1
475 0 m 1
 475 14 l 1
 624 163 659 211 659 269 c 0
 659 311 626 345 584 345 c 0
 550 345 529 330 508 291 c 1
 484 291 l 1
 518 375 563 413 627 413 c 0
 697 413 747 367 747 302 c 0
 747 258 726 222 673 172 c 2
 574 80 l 1
 666 80 l 2
 732 80 740 84 759 127 c 1
 775 127 l 1
 745 0 l 1
 475 0 l 1
EndSplineSet
EndChar

StartChar: threequarters
Encoding: 282 190 122
Width: 750
Flags: HMW
HStem: 268 94<57.5 177> 640 48<115.5 218.5>
LayerCount: 2
Fore
SplineSet
23 322 m 0
 23 346 49 362 66 362 c 0
 119 362 135 304 179 304 c 0xc0
 217 304 242 330 242 369 c 0
 242 427 208 459 112 490 c 1
 112 500 l 1
 173 518 196 539 196 579 c 0
 196 616 170 640 131 640 c 0
 100 640 81 627 56 590 c 1
 36 597 l 1
 72 658 120 688 185 688 c 0
 252 688 291 658 291 607 c 0
 291 571 278 553 237 531 c 1
 291 509 317 474 317 424 c 0
 317 337 231 268 123 268 c 0
 62 268 23 289 23 322 c 0
172 -12 m 1
 613 688 l 1
 669 688 l 1
 230 -12 l 1
 172 -12 l 1
437 87 m 1
 437 154 l 1
 479 217 512 259 601 367 c 2
 640 413 l 1
 692 413 l 1
 692 153 l 1
 733 153 l 1
 733 87 l 1
 692 87 l 1
 692 0 l 1
 598 0 l 1
 598 87 l 1
 437 87 l 1
462 153 m 1
 599 153 l 1
 599 328 l 1
 462 153 l 1
EndSplineSet
EndChar

StartChar: questiondown
Encoding: 283 191 123
Width: 500
Flags: HMW
HStem: -201 36<261.5 306 261.5 310> 332 169<238 284>
VStem: 55 149<-76 -9 -76 -0.5> 247 32<197 257> 312 131<-55 -35 -99 -26>
LayerCount: 2
Fore
SplineSet
55 -35 m 0
 55 34 85 75 176 131 c 0
 239 170 247 184 247 257 c 1
 277 257 l 1
 279 227 279 222 279 211 c 0
 279 183 271 160 247 114 c 0
 214 52 204 17 204 -35 c 0
 204 -117 235 -165 288 -165 c 0
 324 -165 349 -149 349 -125 c 0
 349 -115 346 -109 334 -96 c 0
 317 -77 312 -65 312 -45 c 0
 312 -7 337 19 375 19 c 0
 414 19 443 -13 443 -57 c 0
 443 -141 365 -201 255 -201 c 0
 135 -201 55 -135 55 -35 c 0
177 417 m 0
 177 464 214 501 261 501 c 0
 309 501 346 464 346 416 c 0
 346 371 307 332 261 332 c 0
 215 332 177 371 177 417 c 0
EndSplineSet
EndChar

StartChar: Agrave
Encoding: 284 192 124
Width: 722
Flags: HMW
HStem: 0 25<9 212 9 9 685 689> 197 39<189 384 189 399 174 384> 670 20<329 357 357 357> 903 20<231 253.5>
LayerCount: 2
Fore
SplineSet
9 0 m 1
 9 25 l 1
 57 34 69 49 107 142 c 2
 329 690 l 1
 357 690 l 1
 580 164 l 2
 630 46 646 25 685 25 c 2
 689 25 l 1
 689 0 l 1
 365 0 l 1
 365 25 l 1
 379 27 392 28 397 28 c 0
 432 30 445 40 445 61 c 0
 445 83 433 119 399 197 c 1
 174 197 l 1
 159 158 l 2
 138 104 130 79 130 66 c 0
 130 40 153 29 212 25 c 1
 212 0 l 1
 9 0 l 1
189 236 m 1
 384 236 l 1
 283 479 l 1
 189 236 l 1
197 878 m 0
 197 903 218 923 244 923 c 0
 263 923 282 913 298 895 c 2
 435 738 l 1
 379 738 l 1
 237 826 l 2
 208 844 197 858 197 878 c 0
EndSplineSet
EndChar

StartChar: Aacute
Encoding: 285 193 125
Width: 722
Flags: HMW
HStem: 0 25<9 212 9 9 685 689> 197 39<189 384 189 399 174 384> 670 20<329 357 357 357> 903 20<442.5 466.5>
LayerCount: 2
Fore
SplineSet
9 0 m 1
 9 25 l 1
 57 34 69 49 107 142 c 2
 329 690 l 1
 357 690 l 1
 580 164 l 2
 630 46 646 25 685 25 c 2
 689 25 l 1
 689 0 l 1
 365 0 l 1
 365 25 l 1
 379 27 392 28 397 28 c 0
 432 30 445 40 445 61 c 0
 445 83 433 119 399 197 c 1
 174 197 l 1
 159 158 l 2
 138 104 130 79 130 66 c 0
 130 40 153 29 212 25 c 1
 212 0 l 1
 9 0 l 1
189 236 m 1
 384 236 l 1
 283 479 l 1
 189 236 l 1
262 738 m 1
 399 895 l 2
 416 914 433 923 452 923 c 0
 481 923 500 905 500 879 c 0
 500 856 492 846 460 826 c 2
 318 738 l 1
 262 738 l 1
EndSplineSet
EndChar

StartChar: Acircumflex
Encoding: 286 194 126
Width: 722
Flags: HMW
HStem: 0 25<9 212 9 9 685 689> 197 39<189 384 189 399 174 384> 670 20<329 357 357 357> 894 20<298 390 390 390>
LayerCount: 2
Fore
SplineSet
9 0 m 1
 9 25 l 1
 57 34 69 49 107 142 c 2
 329 690 l 1
 357 690 l 1
 580 164 l 2
 630 46 646 25 685 25 c 2
 689 25 l 1
 689 0 l 1
 365 0 l 1
 365 25 l 1
 379 27 392 28 397 28 c 0
 432 30 445 40 445 61 c 0
 445 83 433 119 399 197 c 1
 174 197 l 1
 159 158 l 2
 138 104 130 79 130 66 c 0
 130 40 153 29 212 25 c 1
 212 0 l 1
 9 0 l 1
176 738 m 1
 298 914 l 1
 390 914 l 1
 513 738 l 1
 456 738 l 1
 344 836 l 1
 232 738 l 1
 176 738 l 1
189 236 m 1
 384 236 l 1
 283 479 l 1
 189 236 l 1
EndSplineSet
EndChar

StartChar: Atilde
Encoding: 287 195 127
Width: 722
Flags: HMW
HStem: 0 25<9 212 9 9 685 689> 197 39<189 384 189 399 174 384> 670 20<329 357 357 357> 757 78<429.5 443.5> 806 78<252 264.5>
LayerCount: 2
Fore
SplineSet
9 0 m 1
 9 25 l 1
 57 34 69 49 107 142 c 2
 329 690 l 1
 357 690 l 1
 580 164 l 2
 630 46 646 25 685 25 c 2
 689 25 l 1xe0
 689 0 l 1
 365 0 l 1
 365 25 l 1
 379 27 392 28 397 28 c 0
 432 30 445 40 445 61 c 0
 445 83 433 119 399 197 c 1
 174 197 l 1
 159 158 l 2
 138 104 130 79 130 66 c 0
 130 40 153 29 212 25 c 1
 212 0 l 1
 9 0 l 1
167 759 m 1
 185 845 221 884 283 884 c 0x08
 304 884 328 878 356 865 c 2
 396 847 l 2
 420 836 424 835 435 835 c 0x10
 462 835 476 848 489 884 c 1
 532 884 l 1x08
 509 797 472 757 415 757 c 0x10
 395 757 370 763 351 771 c 2
 322 784 l 2
 279 803 271 806 258 806 c 0
 232 806 213 787 209 759 c 1x08
 167 759 l 1
189 236 m 1
 384 236 l 1
 283 479 l 1
 189 236 l 1
EndSplineSet
EndChar

StartChar: Adieresis
Encoding: 288 196 128
Width: 722
Flags: HMW
HStem: 0 25<9 212 9 9 685 689> 197 39<189 384 189 399 174 384> 670 20<329 357 357 357> 747 129<223 257.5 223 258 432.5 467>
VStem: 176 129<794.5 828 792.5 829> 386 129<794.5 828 792.5 829.5>
LayerCount: 2
Fore
SplineSet
9 0 m 1
 9 25 l 1
 57 34 69 49 107 142 c 2
 329 690 l 1
 357 690 l 1
 580 164 l 2
 630 46 646 25 685 25 c 2
 689 25 l 1
 689 0 l 1
 365 0 l 1
 365 25 l 1
 379 27 392 28 397 28 c 0
 432 30 445 40 445 61 c 0
 445 83 433 119 399 197 c 1
 174 197 l 1
 159 158 l 2
 138 104 130 79 130 66 c 0
 130 40 153 29 212 25 c 1
 212 0 l 1
 9 0 l 1
176 812 m 0
 176 846 206 876 240 876 c 0
 275 876 305 846 305 810 c 0
 305 775 276 747 240 747 c 0
 205 747 176 777 176 812 c 0
189 236 m 1
 384 236 l 1
 283 479 l 1
 189 236 l 1
386 813 m 0
 386 846 416 876 449 876 c 0
 485 876 515 846 515 810 c 0
 515 775 486 747 449 747 c 0
 414 747 386 776 386 813 c 0
EndSplineSet
EndChar

StartChar: Aring
Encoding: 289 197 129
Width: 722
Flags: HMW
HStem: 0 25<9 212 9 9 685 689> 197 39<189 384 189 399 174 384> 670 20<329 357 357 357> 735 48<324.5 356.5 324.5 370.5> 900 48<325.5 357>
VStem: 235 48<825 856.5> 400 48<824.5 856>
LayerCount: 2
Fore
SplineSet
9 0 m 1
 9 25 l 1
 57 34 69 49 107 142 c 2
 329 690 l 1
 357 690 l 1
 580 164 l 2
 630 46 646 25 685 25 c 2
 689 25 l 1
 689 0 l 1
 365 0 l 1
 365 25 l 1
 379 27 392 28 397 28 c 0
 432 30 445 40 445 61 c 0
 445 83 433 119 399 197 c 1
 174 197 l 1
 159 158 l 2
 138 104 130 79 130 66 c 0
 130 40 153 29 212 25 c 1
 212 0 l 1
 9 0 l 1
189 236 m 1
 384 236 l 1
 283 479 l 1
 189 236 l 1
235 843 m 0
 235 899 284 948 342 948 c 0
 400 948 448 899 448 841 c 0
 448 782 400 735 341 735 c 0
 282 735 235 783 235 843 c 0
283 841 m 0
 283 809 309 783 340 783 c 0
 373 783 400 809 400 840 c 0
 400 872 373 900 341 900 c 0
 310 900 283 872 283 841 c 0
EndSplineSet
EndChar

StartChar: AE
Encoding: 290 198 130
Width: 1000
Flags: HMW
HStem: 0 34<638 710.5 638 910> 303 40<264 432 264 432 242 432> 475 21G<884 909 884 884> 633 43<425 432 425 425> 641 35<633 706>
VStem: 432 160<119 303 303 303 363 611>
LayerCount: 2
Fore
SplineSet
4 0 m 1
 4 25 l 1
 43 31 51 40 114 153 c 2
 327 542 l 2
 330 547 332 552 334 555 c 0
 353 587 362 607 362 617 c 0
 362 641 341 650 275 654 c 1
 275 676 l 1
 909 676 l 1
 909 475 l 1
 884 475 l 1
 871 539 861 563 840 589 c 0
 812 624 752 641 660 641 c 0
 606 641 592 635 592 611 c 2
 592 363 l 1
 709 373 719 383 747 512 c 1
 770 512 l 1
 770 174 l 1
 747 174 l 1
 729 298 704 324 592 331 c 1
 592 88 l 2
 592 45 608 34 668 34 c 0
 753 34 812 53 852 95 c 0
 886 130 920 181 928 211 c 1
 951 211 l 1
 910 0 l 1
 344 0 l 1
 344 25 l 1
 417 29 432 45 432 119 c 2
 432 303 l 1xec
 242 303 l 1
 142 115 l 2
 131 95 127 82 127 70 c 0
 127 43 141 33 193 27 c 2
 210 25 l 1
 210 0 l 1
 4 0 l 1
264 343 m 1
 432 343 l 1
 432 633 l 1
 425 633 l 1xf4
 264 343 l 1
EndSplineSet
Ligature2: "'dlig' Discretionary Ligatures in Cyrillic lookup 17 subtable" A E
Ligature2: "'dlig' Discretionary Ligatures in Latin lookup 16 subtable" A E
Ligature2: "'dlig' Discretionary Ligatures lookup 15 subtable" A E
EndChar

StartChar: Ccedilla
Encoding: 291 199 131
Width: 722
Flags: HMW
HStem: -218 41<355.5 369.5 343 412> -100 41<358.5 441.5> -19 48<401 401> 658 33<350 421 297.5 433.5>
VStem: 49 177<291 434.5> 409 93<-149 -125>
LayerCount: 2
Fore
SplineSet
49 332 m 0
 49 537 198 691 397 691 c 0
 445 691 493 680 552 656 c 0
 574 646 589 642 598 642 c 0
 617 642 628 653 642 688 c 1
 669 688 l 1
 669 454 l 1
 644 454 l 1
 609 530 586 563 543 602 c 0
 500 640 457 658 410 658 c 0
 290 658 226 548 226 341 c 0
 226 241 240 169 269 116 c 0
 298 64 361 29 427 29 c 0
 455 29 488 35 517 47 c 0
 566 66 598 90 657 152 c 1
 687 127 l 1
 593 20 518 -18 401 -19 c 1
 381 -64 l 1
 393 -60 401 -59 414 -59 c 0
 469 -59 502 -85 502 -129 c 0
 502 -184 452 -218 372 -218 c 0
 339 -218 312 -213 276 -200 c 1
 292 -163 l 1
 298 -165 l 2
 323 -174 335 -177 351 -177 c 0
 388 -177 409 -162 409 -136 c 0
 409 -114 392 -100 363 -100 c 0
 354 -100 346 -101 335 -104 c 1
 324 -96 l 1
 359 -17 l 1
 356 -16 l 1
 174 2 49 144 49 332 c 0
EndSplineSet
Ligature2: "'ccmp' Glyph Composition/Decomposition in Latin lookup 8 subtable" C cedilla
EndChar

StartChar: Egrave
Encoding: 292 200 132
Width: 667
Flags: HMW
HStem: 0 31<317 387 317 601> 329 34<266 320.5> 475 21<568 593 568 568> 642 34<305 412.5> 903 20<204 226.5>
VStem: 104 162<96 329 363 580 580 595>
LayerCount: 2
Fore
SplineSet
16 0 m 1
 16 25 l 1
 90 33 104 44 104 96 c 2
 104 580 l 2
 104 631 85 647 16 651 c 1
 16 676 l 1
 593 676 l 1
 593 475 l 1
 568 475 l 1
 543 608 494 642 331 642 c 0
 279 642 266 633 266 595 c 2
 266 363 l 1
 267.4486928 362.986586178 268.884970386 362.979829789 270.30894137 362.979829789 c 0
 375.041959798 362.979829789 413.201207333 399.529175733 428 512 c 1
 454 512 l 1
 454 174 l 1
 428 174 l 1
 416 290 375 329 266 329 c 1
 266 87 l 2
 266 44 285 31 349 31 c 0
 425 31 480 47 526 84 c 0
 562 113 582 141 613 208 c 1
 641 208 l 1
 601 0 l 1
 16 0 l 1
170 878 m 0
 170 903 191 923 217 923 c 0
 236 923 255 913 271 895 c 2
 408 738 l 1
 352 738 l 1
 210 826 l 2
 181 844 170 858 170 878 c 0
EndSplineSet
EndChar

StartChar: Eacute
Encoding: 293 201 133
Width: 667
Flags: HMW
HStem: 0 31<317 387 317 601> 329 34<266 320.5> 475 21<568 593 568 568> 642 34<305 412.5> 903 20<426.5 450.5>
VStem: 104 162<96 329 363 580 580 595>
LayerCount: 2
Fore
SplineSet
16 0 m 1
 16 25 l 1
 90 33 104 44 104 96 c 2
 104 580 l 2
 104 631 85 647 16 651 c 1
 16 676 l 1
 593 676 l 1
 593 475 l 1
 568 475 l 1
 543 608 494 642 331 642 c 0
 279 642 266 633 266 595 c 2
 266 363 l 1
 267.4486928 362.986586178 268.884970386 362.979829789 270.30894137 362.979829789 c 0
 375.041959798 362.979829789 413.201207333 399.529175733 428 512 c 1
 454 512 l 1
 454 174 l 1
 428 174 l 1
 416 290 375 329 266 329 c 1
 266 87 l 2
 266 44 285 31 349 31 c 0
 425 31 480 47 526 84 c 0
 562 113 582 141 613 208 c 1
 641 208 l 1
 601 0 l 1
 16 0 l 1
246 738 m 1
 383 895 l 2
 400 914 417 923 436 923 c 0
 465 923 484 905 484 879 c 0
 484 856 476 846 444 826 c 2
 302 738 l 1
 246 738 l 1
EndSplineSet
EndChar

StartChar: Ecircumflex
Encoding: 294 202 134
Width: 667
Flags: HMW
HStem: 0 31<317 387 317 601> 329 34<266 320.5> 475 21<568 593 568 568> 642 34<305 412.5> 894 20<282 374 374 374>
VStem: 104 162<96 329 363 580 580 595>
LayerCount: 2
Fore
SplineSet
16 0 m 1
 16 25 l 1
 90 33 104 44 104 96 c 2
 104 580 l 2
 104 631 85 647 16 651 c 1
 16 676 l 1
 593 676 l 1
 593 475 l 1
 568 475 l 1
 543 608 494 642 331 642 c 0
 279 642 266 633 266 595 c 2
 266 363 l 1
 267.4486928 362.986586178 268.884970386 362.979829789 270.30894137 362.979829789 c 0
 375.041959798 362.979829789 413.201207333 399.529175733 428 512 c 1
 454 512 l 1
 454 174 l 1
 428 174 l 1
 416 290 375 329 266 329 c 1
 266 87 l 2
 266 44 285 31 349 31 c 0
 425 31 480 47 526 84 c 0
 562 113 582 141 613 208 c 1
 641 208 l 1
 601 0 l 1
 16 0 l 1
160 738 m 1
 282 914 l 1
 374 914 l 1
 497 738 l 1
 440 738 l 1
 328 836 l 1
 216 738 l 1
 160 738 l 1
EndSplineSet
EndChar

StartChar: Edieresis
Encoding: 295 203 135
Width: 667
Flags: HMW
HStem: 0 31<317 387 317 601> 329 34<266 320.5> 475 21<568 593 568 568> 642 34<305 412.5>
VStem: 104 162<96 329 363 580 580 595>
LayerCount: 2
Fore
SplineSet
16 0 m 1
 16 25 l 1
 90 33 104 44 104 96 c 2
 104 580 l 2
 104 631 85 647 16 651 c 1
 16 676 l 1
 593 676 l 1
 593 475 l 1
 568 475 l 1
 543 608 494 642 331 642 c 0
 279 642 266 633 266 595 c 2
 266 363 l 1
 267.4486928 362.986586178 268.884970386 362.979829789 270.30894137 362.979829789 c 0
 375.041959798 362.979829789 413.201207333 399.529175733 428 512 c 1
 454 512 l 1
 454 174 l 1
 428 174 l 1
 416 290 375 329 266 329 c 1
 266 87 l 2
 266 44 285 31 349 31 c 0
 425 31 480 47 526 84 c 0
 562 113 582 141 613 208 c 1
 641 208 l 1
 601 0 l 1
 16 0 l 1
160 812 m 0
 160 846 190 876 224 876 c 0
 259 876 289 846 289 810 c 0
 289 775 260 747 224 747 c 0
 189 747 160 777 160 812 c 0
370 813 m 0
 370 846 400 876 433 876 c 0x00
 469 876 499 846 499 810 c 0
 499 775 470 747 433 747 c 0
 398 747 370 776 370 813 c 0
EndSplineSet
EndChar

StartChar: Igrave
Encoding: 296 204 136
Width: 386
Flags: HMW
HStem: 0 25<16 366 16 16> 651 25<16 366 16 366> 903 20<58 80.5>
VStem: 109 162<96 580>
LayerCount: 2
Fore
SplineSet
16 0 m 1
 16 25 l 1
 91 32 109 46 109 96 c 2
 109 580 l 2
 109 631 88 646 16 651 c 1
 16 676 l 1
 366 676 l 1
 366 651 l 1
 292 648 271 632 271 580 c 2
 271 96 l 2
 271 44 290 30 366 25 c 1
 366 0 l 1
 16 0 l 1
24 878 m 0
 24 903 45 923 71 923 c 0
 90 923 109 913 125 895 c 2
 262 738 l 1
 206 738 l 1
 64 826 l 2
 35 844 24 858 24 878 c 0
EndSplineSet
EndChar

StartChar: Iacute
Encoding: 297 205 137
Width: 386
Flags: HMW
HStem: 0 25<16 366 16 16> 651 25<16 366 16 366> 903 20<291.5 315.5>
VStem: 109 162<96 580>
LayerCount: 2
Fore
SplineSet
16 0 m 1
 16 25 l 1
 91 32 109 46 109 96 c 2
 109 580 l 2
 109 631 88 646 16 651 c 1
 16 676 l 1
 366 676 l 1
 366 651 l 1
 292 648 271 632 271 580 c 2
 271 96 l 2
 271 44 290 30 366 25 c 1
 366 0 l 1
 16 0 l 1
111 738 m 1
 248 895 l 2
 265 914 282 923 301 923 c 0
 330 923 349 905 349 879 c 0
 349 856 341 846 309 826 c 2
 167 738 l 1
 111 738 l 1
EndSplineSet
EndChar

StartChar: Icircumflex
Encoding: 298 206 138
Width: 386
Flags: HMW
HStem: 0 25<16 366 16 16> 651 25<16 366 16 366> 894 20<144 236 236 236>
VStem: 109 162<96 580>
LayerCount: 2
Fore
SplineSet
16 0 m 1
 16 25 l 1
 91 32 109 46 109 96 c 2
 109 580 l 2
 109 631 88 646 16 651 c 1
 16 676 l 1
 366 676 l 1
 366 651 l 1
 292 648 271 632 271 580 c 2
 271 96 l 2
 271 44 290 30 366 25 c 1
 366 0 l 1
 16 0 l 1
22 738 m 1
 144 914 l 1
 236 914 l 1
 359 738 l 1
 302 738 l 1
 190 836 l 1
 78 738 l 1
 22 738 l 1
EndSplineSet
EndChar

StartChar: Idieresis
Encoding: 299 207 139
Width: 386
Flags: HMW
HStem: 0 25<16 366 16 16> 651 25<16 366 16 366>
VStem: 109 162<96 580>
LayerCount: 2
Fore
SplineSet
16 0 m 1
 16 25 l 1
 91 32 109 46 109 96 c 2
 109 580 l 2
 109 631 88 646 16 651 c 1
 16 676 l 1
 366 676 l 1
 366 651 l 1
 292 648 271 632 271 580 c 2
 271 96 l 2
 271 44 290 30 366 25 c 1
 366 0 l 1
 16 0 l 1
22 812 m 0
 22 846 52 876 86 876 c 0
 121 876 151 846 151 810 c 0
 151 775 122 747 86 747 c 0
 51 747 22 777 22 812 c 0
232 813 m 0
 232 846 262 876 295 876 c 0x00
 331 876 361 846 361 810 c 0
 361 775 332 747 295 747 c 0
 260 747 232 776 232 813 c 0
EndSplineSet
EndChar

StartChar: Ntilde
Encoding: 300 209 140
Width: 722
Flags: HMW
HStem: -18 21<595 623 595 595> 651 25<19 29> 757 78<434.5 448.5> 806 78<257 269.5>
VStem: 104 44<105 124 124 526> 579 44<247 552 552 571 -18 587.5>
LayerCount: 2
Fore
SplineSet
16 0 m 1
 16 25 l 1
 89 34 104 48 104 105 c 2
 104 579 l 1
 56 636 39 651 19 651 c 1
 19 676 l 1
 230 676 l 1xcc
 579 247 l 1
 579 552 l 2
 579 623 560 644 486 651 c 1
 486 676 l 1
 701 676 l 1
 701 651 l 1
 636 641 623 628 623 571 c 2
 623 -18 l 1
 595 -18 l 1
 148 526 l 1
 148 124 l 2
 148 53 166 34 243 25 c 1
 243 0 l 1
 16 0 l 1
172 759 m 1
 190 845 226 884 288 884 c 0x10
 309 884 333 878 361 865 c 2
 401 847 l 2
 425 836 429 835 440 835 c 0x20
 467 835 481 848 494 884 c 1
 537 884 l 1x10
 514 797 477 757 420 757 c 0x20
 400 757 375 763 356 771 c 2
 327 784 l 2
 284 803 276 806 263 806 c 0
 237 806 218 787 214 759 c 1x10
 172 759 l 1
EndSplineSet
EndChar

StartChar: Ograve
Encoding: 301 210 141
Width: 778
Flags: HMW
HStem: -19 33<331.5 446.5 331.5 492.5> 658 33<333.5 447> 903 20<258 280.5>
VStem: 35 177<231.5 434 225 439> 566 177<232.5 433>
LayerCount: 2
Fore
SplineSet
35 335 m 0
 35 543 184 691 393 691 c 0
 594 691 743 540 743 336 c 0
 743 129 596 -19 389 -19 c 0
 182 -19 35 128 35 335 c 0
212 326 m 0
 212 124 274 14 389 14 c 0
 504 14 566 124 566 329 c 0
 566 537 502 658 392 658 c 0
 275 658 212 542 212 326 c 0
224 878 m 0
 224 903 245 923 271 923 c 0
 290 923 309 913 325 895 c 2
 462 738 l 1
 406 738 l 1
 264 826 l 2
 235 844 224 858 224 878 c 0
EndSplineSet
EndChar

StartChar: Oacute
Encoding: 302 211 142
Width: 778
Flags: HMW
HStem: -19 33<331.5 446.5 331.5 492.5> 658 33<333.5 447> 903 20<482.5 506.5>
VStem: 35 177<231.5 434 225 439> 566 177<232.5 433>
LayerCount: 2
Fore
SplineSet
35 335 m 0
 35 543 184 691 393 691 c 0
 594 691 743 540 743 336 c 0
 743 129 596 -19 389 -19 c 0
 182 -19 35 128 35 335 c 0
212 326 m 0
 212 124 274 14 389 14 c 0
 504 14 566 124 566 329 c 0
 566 537 502 658 392 658 c 0
 275 658 212 542 212 326 c 0
302 738 m 1
 439 895 l 2
 456 914 473 923 492 923 c 0
 521 923 540 905 540 879 c 0
 540 856 532 846 500 826 c 2
 358 738 l 1
 302 738 l 1
EndSplineSet
EndChar

StartChar: Ocircumflex
Encoding: 303 212 143
Width: 778
Flags: HMW
HStem: -19 33<331.5 446.5 331.5 492.5> 658 33<333.5 447> 894 20<344 436 436 436>
VStem: 35 177<231.5 434 225 439> 566 177<232.5 433>
LayerCount: 2
Fore
SplineSet
35 335 m 0
 35 543 184 691 393 691 c 0
 594 691 743 540 743 336 c 0
 743 129 596 -19 389 -19 c 0
 182 -19 35 128 35 335 c 0
212 326 m 0
 212 124 274 14 389 14 c 0
 504 14 566 124 566 329 c 0
 566 537 502 658 392 658 c 0
 275 658 212 542 212 326 c 0
222 738 m 1
 344 914 l 1
 436 914 l 1
 559 738 l 1
 502 738 l 1
 390 836 l 1
 278 738 l 1
 222 738 l 1
EndSplineSet
EndChar

StartChar: Otilde
Encoding: 304 213 144
Width: 778
Flags: HMW
HStem: -19 33<331.5 446.5 331.5 492.5> 658 33<333.5 447> 757 78<470.5 484.5> 806 78<293 305.5>
VStem: 35 177<231.5 434 225 439> 566 177<232.5 433>
LayerCount: 2
Fore
SplineSet
35 335 m 0
 35 543 184 691 393 691 c 0xcc
 594 691 743 540 743 336 c 0
 743 129 596 -19 389 -19 c 0
 182 -19 35 128 35 335 c 0
208 759 m 1
 226 845 262 884 324 884 c 0x10
 345 884 369 878 397 865 c 2
 437 847 l 2
 461 836 465 835 476 835 c 0x20
 503 835 517 848 530 884 c 1
 573 884 l 1x10
 550 797 513 757 456 757 c 0x20
 436 757 411 763 392 771 c 2
 363 784 l 2
 320 803 312 806 299 806 c 0
 273 806 254 787 250 759 c 1x10
 208 759 l 1
212 326 m 0
 212 124 274 14 389 14 c 0
 504 14 566 124 566 329 c 0
 566 537 502 658 392 658 c 0
 275 658 212 542 212 326 c 0
EndSplineSet
EndChar

StartChar: Odieresis
Encoding: 305 214 145
Width: 778
Flags: HMW
HStem: -19 33<331.5 446.5 331.5 492.5> 658 33<333.5 447> 747 129<269 303.5 269 304 478.5 513>
VStem: 35 177<231.5 434 225 439> 222 129<794.5 828 792.5 829> 432 129<794.5 828 792.5 829.5> 566 177<232.5 433>
LayerCount: 2
Fore
SplineSet
35 335 m 0
 35 543 184 691 393 691 c 0
 594 691 743 540 743 336 c 0
 743 129 596 -19 389 -19 c 0
 182 -19 35 128 35 335 c 0
212 326 m 0
 212 124 274 14 389 14 c 0
 504 14 566 124 566 329 c 0
 566 537 502 658 392 658 c 0
 275 658 212 542 212 326 c 0
222 812 m 0
 222 846 252 876 286 876 c 0
 321 876 351 846 351 810 c 0
 351 775 322 747 286 747 c 0
 251 747 222 777 222 812 c 0
432 813 m 0
 432 846 462 876 495 876 c 0
 531 876 561 846 561 810 c 0
 561 775 532 747 495 747 c 0
 460 747 432 776 432 813 c 0
EndSplineSet
EndChar

StartChar: multiply
Encoding: 306 215 146
Width: 570
Flags: HMW
HStem: 16 474<110 110 110 460>
VStem: 48 474<78 78 78 428>
LayerCount: 2
Fore
SplineSet
48 78 m 1
 223 253 l 1
 48 428 l 1
 110 490 l 1
 285 314 l 1
 460 490 l 1
 522 428 l 1
 346 253 l 1
 522 78 l 1
 460 16 l 1
 285 192 l 1
 110 16 l 1
 48 78 l 1
EndSplineSet
EndChar

StartChar: Oslash
Encoding: 307 216 147
Width: 778
Flags: HMW
HStem: -19 33<357.5 447 357.5 492.5> 658 33<332.5 418.5>
VStem: 35 177<310.5 433.5 291 438.5> 566 177<232 370 232 371>
LayerCount: 2
Fore
SplineSet
35 335 m 0
 35 542 183 691 390 691 c 0
 458 691 509 678 572 644 c 1
 635 737 l 1
 685 737 l 1
 607 622 l 1
 655 582 674 561 696 523 c 0
 727 468 743 404 743 336 c 0
 743 128 596 -19 389 -19 c 0
 317 -19 265 -5 202 30 c 1
 131 -74 l 1
 81 -74 l 1
 167 52 l 1
 108 103 84 135 61 195 c 0
 44 239 35 286 35 335 c 0
212 328 m 0
 212 254 217 212 234 151 c 1
 520 569 l 1
 485 633 448 658 389 658 c 0
 276 658 212 539 212 328 c 0
253 104 m 1
 287 40 326 14 389 14 c 0
 505 14 566 124 566 331 c 0
 566 411 560 459 540 524 c 1
 253 104 l 1
EndSplineSet
EndChar

StartChar: Ugrave
Encoding: 308 217 148
Width: 722
Flags: HMW
HStem: -19 49<353 402> 656 20<16 354 354 354 481 701 701 701> 903 20<244 266.5>
VStem: 98 159<225 559> 579 44<247 552 552 566>
LayerCount: 2
Fore
SplineSet
16 651 m 1
 16 676 l 1
 354 676 l 1
 354 651 l 1
 306 649 290 645 278 635 c 0
 263 621 257 599 257 559 c 2
 257 225 l 2
 257 89 302 30 404 30 c 0
 523 30 579 99 579 247 c 2
 579 552 l 2
 579 625 559 645 481 651 c 1
 481 676 l 1
 701 676 l 1
 701 651 l 1
 637 641 623 625 623 566 c 2
 623 247 l 2
 623 154 597 78 552 40 c 0
 509 3 439 -19 365 -19 c 0
 292 -19 228 -1 180 34 c 0
 119 78 98 127 98 225 c 2
 98 559 l 2
 98 631 86 644 16 651 c 1
210 878 m 0
 210 903 231 923 257 923 c 0
 276 923 295 913 311 895 c 2
 448 738 l 1
 392 738 l 1
 250 826 l 2
 221 844 210 858 210 878 c 0
EndSplineSet
EndChar

StartChar: Uacute
Encoding: 309 218 149
Width: 722
Flags: HMW
HStem: -19 49<353 402> 656 20<16 354 354 354 481 701 701 701> 903 20<488.5 512.5>
VStem: 98 159<225 559> 579 44<247 552 552 566>
LayerCount: 2
Fore
SplineSet
16 651 m 1
 16 676 l 1
 354 676 l 1
 354 651 l 1
 306 649 290 645 278 635 c 0
 263 621 257 599 257 559 c 2
 257 225 l 2
 257 89 302 30 404 30 c 0
 523 30 579 99 579 247 c 2
 579 552 l 2
 579 625 559 645 481 651 c 1
 481 676 l 1
 701 676 l 1
 701 651 l 1
 637 641 623 625 623 566 c 2
 623 247 l 2
 623 154 597 78 552 40 c 0
 509 3 439 -19 365 -19 c 0
 292 -19 228 -1 180 34 c 0
 119 78 98 127 98 225 c 2
 98 559 l 2
 98 631 86 644 16 651 c 1
308 738 m 1
 445 895 l 2
 462 914 479 923 498 923 c 0
 527 923 546 905 546 879 c 0
 546 856 538 846 506 826 c 2
 364 738 l 1
 308 738 l 1
EndSplineSet
EndChar

StartChar: Ucircumflex
Encoding: 310 219 150
Width: 722
Flags: HMW
HStem: -19 49<353 402> 656 20<16 354 354 354 481 701 701 701> 894 20<342 434 434 434>
VStem: 98 159<225 559> 579 44<247 552 552 566>
LayerCount: 2
Fore
SplineSet
16 651 m 1
 16 676 l 1
 354 676 l 1
 354 651 l 1
 306 649 290 645 278 635 c 0
 263 621 257 599 257 559 c 2
 257 225 l 2
 257 89 302 30 404 30 c 0
 523 30 579 99 579 247 c 2
 579 552 l 2
 579 625 559 645 481 651 c 1
 481 676 l 1
 701 676 l 1
 701 651 l 1
 637 641 623 625 623 566 c 2
 623 247 l 2
 623 154 597 78 552 40 c 0
 509 3 439 -19 365 -19 c 0
 292 -19 228 -1 180 34 c 0
 119 78 98 127 98 225 c 2
 98 559 l 2
 98 631 86 644 16 651 c 1
220 738 m 1
 342 914 l 1
 434 914 l 1
 557 738 l 1
 500 738 l 1
 388 836 l 1
 276 738 l 1
 220 738 l 1
EndSplineSet
EndChar

StartChar: Udieresis
Encoding: 311 220 151
Width: 722
Flags: HMW
HStem: -19 49<353 402> 656 20<16 354 354 354 481 701 701 701>
VStem: 98 159<225 559> 579 44<247 552 552 566>
LayerCount: 2
Fore
SplineSet
16 651 m 1
 16 676 l 1
 354 676 l 1
 354 651 l 1
 306 649 290 645 278 635 c 0
 263 621 257 599 257 559 c 2
 257 225 l 2
 257 89 302 30 404 30 c 0
 523 30 579 99 579 247 c 2
 579 552 l 2
 579 625 559 645 481 651 c 1
 481 676 l 1
 701 676 l 1
 701 651 l 1
 637 641 623 625 623 566 c 2
 623 247 l 2
 623 154 597 78 552 40 c 0
 509 3 439 -19 365 -19 c 0
 292 -19 228 -1 180 34 c 0
 119 78 98 127 98 225 c 2
 98 559 l 2
 98 631 86 644 16 651 c 1
220 812 m 0
 220 846 250 876 284 876 c 0
 319 876 349 846 349 810 c 0
 349 775 320 747 284 747 c 0
 249 747 220 777 220 812 c 0
430 813 m 0
 430 846 460 876 493 876 c 0x00
 529 876 559 846 559 810 c 0
 559 775 530 747 493 747 c 0
 458 747 430 776 430 813 c 0
EndSplineSet
EndChar

StartChar: Yacute
Encoding: 312 221 152
Width: 722
Flags: HMW
HStem: 0 25<185 532 185 185> 650 26<304.5 325> 903 20<493.5 517.5>
VStem: 278 162<117 264 264 264>
LayerCount: 2
Fore
SplineSet
15 651 m 1
 15 676 l 1
 350 676 l 1
 350 651 l 1
 325 650 l 2
 284 650 269 642 269 620 c 0
 269 609 273 598 287 573 c 2
 413 329 l 1
 524 514 l 2
 549 555 563 590 563 609 c 0
 563 638 546 646 479 651 c 1
 479 676 l 1
 699 676 l 1
 699 651 l 1
 665 646 646 635 631 612 c 2
 440 301 l 1
 440 117 l 2
 440 43 450 33 532 25 c 1
 532 0 l 1
 185 0 l 1
 185 25 l 1
 267 33 278 44 278 117 c 2
 278 264 l 1
 95 596 l 2
 75 630 49 649 15 651 c 1
313 738 m 1
 450 895 l 2
 467 914 484 923 503 923 c 0
 532 923 551 905 551 879 c 0
 551 856 543 846 511 826 c 2
 369 738 l 1
 313 738 l 1
EndSplineSet
EndChar

StartChar: Thorn
Encoding: 313 222 153
Width: 611
Flags: HMW
HStem: 0 25<16 350 16 16> 173 35<262 297.5> 511 35<295.5 328 328 353.5> 651 25<16 350 16 350>
VStem: 100 162<117 173 80.5 208 208 476 546 558> 428 172<331 413>
LayerCount: 2
Fore
SplineSet
16 0 m 1
 16 25 l 1
 27 27 37 29 40 29 c 0
 87 35 100 55 100 117 c 2
 100 559 l 2
 100 629 86 645 16 651 c 1
 16 676 l 1
 350 676 l 1
 350 651 l 1
 270 640 262 631 262 558 c 2
 262 546 l 1
 328 546 l 2
 507 546 600 483 600 363 c 0
 600 299 569 247 512 212 c 0
 457 180 421 174 262 173 c 1
 262 117 l 2
 262 44 271 35 350 25 c 1
 350 0 l 1
 16 0 l 1
262 208 m 1
 333 208 366 215 390 235 c 0
 416 258 428 296 428 359 c 0
 428 467 395 511 312 511 c 0
 279 511 262 499 262 476 c 2
 262 208 l 1
EndSplineSet
EndChar

StartChar: germandbls
Encoding: 314 223 154
Width: 556
Flags: HMW
HStem: -12 35<319 333.5 305.5 380.5> 663 28<249 293>
VStem: 19 190<0 24 24 24> 70 139<87 507 507 560.5> 339 137<516 577> 371 146<137 220.5 137 238.5>
LayerCount: 2
Fore
SplineSet
19 0 m 1
 19 24 l 1xe8
 62 31 70 41 70 87 c 2xd0
 70 507 l 2
 70 614 156 691 277 691 c 0
 391 691 476 625 476 537 c 0xd8
 476 495 455 457 417 431 c 0
 391 413 369 404 320 393 c 1
 401 369 435 353 467 322 c 0
 500 291 517 247 517 194 c 0
 517 80 433 -12 328 -12 c 0
 310 -12 294 -8 264 3 c 1
 278 37 l 1
 288 30 l 2
 297 24 301 23 310 23 c 0
 357 23 371 63 371 195 c 0xc4
 371 282 359 331 333 354 c 0
 318 366 302 371 269 373 c 1
 269 407 l 1
 326 408 339 431 339 530 c 0
 339 624 318 663 268 663 c 0
 230 663 209 636 209 586 c 2
 209 0 l 1
 19 0 l 1
EndSplineSet
EndChar

StartChar: agrave
Encoding: 315 224 155
Width: 500
Flags: HMW
HStem: -14 64<351.5 454.5> 441 32<192.5 239>
LayerCount: 2
Fore
SplineSet
25 92 m 0
 25 135 46 169 89 199 c 0
 126 224 175 244 294 280 c 1
 294 353 l 2
 294 414 268 441 210 441 c 0
 175 441 147 425 147 404 c 0
 147 398 150 392 159 382 c 0
 171 366 177 353 177 339 c 0
 177 305 149 281 109 281 c 0
 68 281 44 306 44 347 c 0
 44 422 120 473 233 473 c 0
 355 473 431 420 431 336 c 2
 431 75 l 2
 431 59 438 50 452 50 c 0
 457 50 460 51 463 54 c 2
 473 64 l 1
 488 43 l 1
 450 2 419 -14 376 -14 c 0
 327 -14 305 5 294 56 c 1
 239 6 193 -14 136 -14 c 0
 72 -14 25 31 25 92 c 0
91 668 m 0
 91 693 112 713 138 713 c 0
 157 713 176 703 192 685 c 2
 329 528 l 1x00
 273 528 l 1
 131 616 l 2
 102 634 91 648 91 668 c 0
171 124 m 0
 171 84 192 57 222 57 c 0
 246 57 266 69 293 100 c 1
 293 245 l 1
 213 224 171 182 171 124 c 0
EndSplineSet
EndChar

StartChar: aacute
Encoding: 316 225 156
Width: 500
Flags: HMW
HStem: -14 64<351.5 454.5> 441 32<192.5 239>
LayerCount: 2
Fore
SplineSet
25 92 m 0
 25 135 46 169 89 199 c 0
 126 224 175 244 294 280 c 1
 294 353 l 2
 294 414 268 441 210 441 c 0
 175 441 147 425 147 404 c 0
 147 398 150 392 159 382 c 0
 171 366 177 353 177 339 c 0
 177 305 149 281 109 281 c 0
 68 281 44 306 44 347 c 0
 44 422 120 473 233 473 c 0
 355 473 431 420 431 336 c 2
 431 75 l 2
 431 59 438 50 452 50 c 0
 457 50 460 51 463 54 c 2
 473 64 l 1
 488 43 l 1
 450 2 419 -14 376 -14 c 0
 327 -14 305 5 294 56 c 1
 239 6 193 -14 136 -14 c 0
 72 -14 25 31 25 92 c 0
155 528 m 1x00
 292 685 l 2
 309 704 326 713 345 713 c 0
 374 713 393 695 393 669 c 0
 393 646 385 636 353 616 c 2
 211 528 l 1
 155 528 l 1x00
171 124 m 0
 171 84 192 57 222 57 c 0
 246 57 266 69 293 100 c 1
 293 245 l 1
 213 224 171 182 171 124 c 0
EndSplineSet
EndChar

StartChar: acircumflex
Encoding: 317 226 157
Width: 500
Flags: HMW
HStem: -14 64<351.5 454.5> 441 32<192.5 239>
LayerCount: 2
Fore
SplineSet
25 92 m 0
 25 135 46 169 89 199 c 0
 126 224 175 244 294 280 c 1
 294 353 l 2
 294 414 268 441 210 441 c 0
 175 441 147 425 147 404 c 0
 147 398 150 392 159 382 c 0
 171 366 177 353 177 339 c 0
 177 305 149 281 109 281 c 0
 68 281 44 306 44 347 c 0
 44 422 120 473 233 473 c 0
 355 473 431 420 431 336 c 2
 431 75 l 2
 431 59 438 50 452 50 c 0
 457 50 460 51 463 54 c 2
 473 64 l 1
 488 43 l 1
 450 2 419 -14 376 -14 c 0
 327 -14 305 5 294 56 c 1
 239 6 193 -14 136 -14 c 0
 72 -14 25 31 25 92 c 0
82 528 m 1
 204 704 l 1
 296 704 l 1
 419 528 l 1
 362 528 l 1x00
 250 626 l 1
 138 528 l 1
 82 528 l 1
171 124 m 0
 171 84 192 57 222 57 c 0
 246 57 266 69 293 100 c 1
 293 245 l 1
 213 224 171 182 171 124 c 0
EndSplineSet
EndChar

StartChar: atilde
Encoding: 318 227 158
Width: 500
Flags: HMW
HStem: -14 64<351.5 454.5> 441 32<192.5 239> 547 78<330.5 344.5> 596 78<153 165.5>
LayerCount: 2
Fore
SplineSet
25 92 m 0
 25 135 46 169 89 199 c 0
 126 224 175 244 294 280 c 1
 294 353 l 2
 294 414 268 441 210 441 c 0
 175 441 147 425 147 404 c 0
 147 398 150 392 159 382 c 0
 171 366 177 353 177 339 c 0
 177 305 149 281 109 281 c 0
 68 281 44 306 44 347 c 0
 44 422 120 473 233 473 c 0
 355 473 431 420 431 336 c 2
 431 75 l 2
 431 59 438 50 452 50 c 0
 457 50 460 51 463 54 c 2
 473 64 l 1xc0
 488 43 l 1
 450 2 419 -14 376 -14 c 0
 327 -14 305 5 294 56 c 1
 239 6 193 -14 136 -14 c 0
 72 -14 25 31 25 92 c 0
68 549 m 1
 86 635 122 674 184 674 c 0x10
 205 674 229 668 257 655 c 2
 297 637 l 2
 321 626 325 625 336 625 c 0x20
 363 625 377 638 390 674 c 1
 433 674 l 1x10
 410 587 373 547 316 547 c 0x20
 296 547 271 553 252 561 c 2
 223 574 l 2
 180 593 172 596 159 596 c 0
 133 596 114 577 110 549 c 1x10
 68 549 l 1
171 124 m 0
 171 84 192 57 222 57 c 0
 246 57 266 69 293 100 c 1
 293 245 l 1
 213 224 171 182 171 124 c 0
EndSplineSet
EndChar

StartChar: adieresis
Encoding: 319 228 159
Width: 500
Flags: HMW
HStem: -14 64<351.5 454.5> 441 32<192.5 239>
LayerCount: 2
Fore
SplineSet
25 92 m 0
 25 135 46 169 89 199 c 0
 126 224 175 244 294 280 c 1
 294 353 l 2
 294 414 268 441 210 441 c 0
 175 441 147 425 147 404 c 0
 147 398 150 392 159 382 c 0
 171 366 177 353 177 339 c 0
 177 305 149 281 109 281 c 0
 68 281 44 306 44 347 c 0
 44 422 120 473 233 473 c 0
 355 473 431 420 431 336 c 2
 431 75 l 2
 431 59 438 50 452 50 c 0
 457 50 460 51 463 54 c 2
 473 64 l 1
 488 43 l 1
 450 2 419 -14 376 -14 c 0
 327 -14 305 5 294 56 c 1
 239 6 193 -14 136 -14 c 0
 72 -14 25 31 25 92 c 0
76 602 m 0
 76 636 106 666 140 666 c 0
 175 666 205 636 205 600 c 0
 205 565 176 537 140 537 c 0
 105 537 76 567 76 602 c 0
171 124 m 0
 171 84 192 57 222 57 c 0
 246 57 266 69 293 100 c 1
 293 245 l 1
 213 224 171 182 171 124 c 0
286 603 m 0
 286 636 316 666 349 666 c 0x00
 385 666 415 636 415 600 c 0
 415 565 386 537 349 537 c 0
 314 537 286 566 286 603 c 0
EndSplineSet
EndChar

StartChar: aring
Encoding: 320 229 160
Width: 500
Flags: HMW
HStem: -14 64<351.5 454.5> 441 32<192.5 239>
LayerCount: 2
Fore
SplineSet
25 92 m 0
 25 135 46 169 89 199 c 0
 126 224 175 244 294 280 c 1
 294 353 l 2
 294 414 268 441 210 441 c 0
 175 441 147 425 147 404 c 0
 147 398 150 392 159 382 c 0
 171 366 177 353 177 339 c 0
 177 305 149 281 109 281 c 0
 68 281 44 306 44 347 c 0
 44 422 120 473 233 473 c 0
 355 473 431 420 431 336 c 2
 431 75 l 2
 431 59 438 50 452 50 c 0
 457 50 460 51 463 54 c 2
 473 64 l 1
 488 43 l 1
 450 2 419 -14 376 -14 c 0
 327 -14 305 5 294 56 c 1
 239 6 193 -14 136 -14 c 0
 72 -14 25 31 25 92 c 0
133 645 m 0
 133 701 182 750 240 750 c 0x00
 298 750 346 701 346 643 c 0
 346 584 298 537 239 537 c 0
 180 537 133 585 133 645 c 0
171 124 m 0
 171 84 192 57 222 57 c 0
 246 57 266 69 293 100 c 1
 293 245 l 1
 213 224 171 182 171 124 c 0
181 643 m 0
 181 611 207 585 238 585 c 0
 271 585 298 611 298 642 c 0
 298 674 271 702 239 702 c 0
 208 702 181 674 181 643 c 0
EndSplineSet
EndChar

StartChar: ae
Encoding: 321 230 161
Width: 722
Flags: HMW
HStem: -9 70<508.5 531.5> 248 37<434 567 434 688 434 567> 441 32<199 246>
VStem: 33 144<97.5 116> 50 132<328.5 350.5 323 384> 296 138<167.5 225 225 248 167.5 248 285 344 167.5 360 167.5 389> 567 121<248 318 248 364.5>
LayerCount: 2
Fore
SplineSet
33 94 m 0xf6
 33 138 51 171 90 198 c 0
 122 221 167 238 296 280 c 1
 296 360 l 2
 296 418 274 441 218 441 c 0
 180 441 153 426 153 406 c 0
 153 399 156 394 165 384 c 0
 178 369 182 360 182 341 c 0
 182 305 159 284 119 284 c 0
 77 284 50 309 50 348 c 0
 50 420 127 473 232 473 c 0
 298 473 336 459 374 422 c 1
 411 458 449 473 501 473 c 0
 575 473 636 436 666 375 c 0
 683 340 688 310 688 248 c 1
 434 248 l 1
 434 225 l 2
 434 110 468 61 549 61 c 0
 598 61 633 80 672 128 c 1xee
 693 113 l 1
 634 23 579 -9 484 -9 c 0
 414 -9 375 13 337 75 c 1
 331 69 l 2
 275 13 216 -14 151 -14 c 0
 74 -14 33 24 33 94 c 0xf6
177 121 m 0
 177 74 197 49 234 49 c 0
 257 49 272 56 296 81 c 1
 296 248 l 1
 208 216 177 183 177 121 c 0
434 285 m 1
 567 285 l 1
 567 318 l 2
 567 411 551 443 504 443 c 0
 452 443 434 403 434 285 c 1
EndSplineSet
Ligature2: "'dlig' Discretionary Ligatures in Cyrillic lookup 17 subtable" a e
Ligature2: "'dlig' Discretionary Ligatures in Latin lookup 16 subtable" a e
Ligature2: "'dlig' Discretionary Ligatures lookup 15 subtable" a e
EndChar

StartChar: ccedilla
Encoding: 322 231 162
Width: 444
Flags: HMW
HStem: -218 41 442 31
VStem: 25 141 270 93 292 124
LayerCount: 2
Fore
SplineSet
24 221 m 0
 24 366 124 472 260 472 c 0
 348 472 415 424 415 362 c 0
 415 329 399 300 357 300 c 0
 320 300 291 328 291 372 c 0
 291 414 289 416 284 425 c 0
 278 436 266 442 250 442 c 1xe8
 249 441 l 1
 197 441 165 378 165 275 c 0
 165 139 220 52 307 52 c 0
 348 52 374 66 411 108 c 1
 429 90 l 1
 382 27 333 -4 264 -14 c 1
 241 -65 l 1
 253 -61 261 -60 274 -60 c 0
 329 -60 362 -86 362 -130 c 0
 362 -185 312 -219 232 -219 c 0
 199 -219 172 -214 136 -201 c 1
 152 -164 l 1
 158 -166 l 2
 183 -175 195 -178 211 -178 c 0
 248 -178 269 -163 269 -137 c 0xf0
 269 -115 252 -101 223 -101 c 0
 214 -101 206 -102 195 -105 c 1
 184 -97 l 1
 221 -14 l 1
 102 -3 24 90 24 221 c 0
EndSplineSet
Ligature2: "'ccmp' Glyph Composition/Decomposition in Latin lookup 8 subtable" c uni0327
EndChar

StartChar: egrave
Encoding: 323 232 163
Width: 444
Flags: HMW
HStem: -14 72<268.5 271.5> 245 37<169 298 164 421 169 169> 442 31<209.5 248> 693 20<112 134.5>
VStem: 25 144<245 245 245 301> 298 123<245 297 245 297>
LayerCount: 2
Fore
SplineSet
25 228 m 0
 25 374 109 473 234 473 c 0
 289 473 335 453 368 414 c 0
 400 376 415 329 421 245 c 1
 169 245 l 1
 173 176 181 143 199 111 c 0
 220 76 249 58 288 58 c 0
 331 58 362 76 402 125 c 1
 426 111 l 1
 361 18 312 -14 231 -14 c 0
 107 -14 25 82 25 228 c 0
78 668 m 0
 78 693 99 713 125 713 c 0
 144 713 163 703 179 685 c 2
 316 528 l 1
 260 528 l 1
 118 616 l 2
 89 634 78 648 78 668 c 0
164 282 m 1
 298 282 l 1
 298 297 l 2
 296 348 294 376 289 395 c 0
 281 426 262 442 234 442 c 0
 185 442 167 402 164 282 c 1
EndSplineSet
EndChar

StartChar: eacute
Encoding: 324 233 164
Width: 444
Flags: HMW
HStem: -14 72<268.5 271.5> 245 37<169 298 164 421 169 169> 442 31<209.5 248> 692 20<339.5 363.5>
VStem: 25 144<245 245 245 301> 298 123<245 297 245 297>
LayerCount: 2
Fore
SplineSet
25 228 m 0
 25 374 109 473 234 473 c 0
 289 473 335 453 368 414 c 0
 400 376 415 329 421 245 c 1
 169 245 l 1
 173 176 181 143 199 111 c 0
 220 76 249 58 288 58 c 0
 331 58 362 76 402 125 c 1
 426 111 l 1
 361 18 312 -14 231 -14 c 0
 107 -14 25 82 25 228 c 0
159 527 m 1
 296 684 l 2
 313 703 330 712 349 712 c 0
 378 712 397 694 397 668 c 0
 397 645 389 635 357 615 c 2
 215 527 l 1
 159 527 l 1
164 282 m 1
 298 282 l 1
 298 297 l 2
 296 348 294 376 289 395 c 0
 281 426 262 442 234 442 c 0
 185 442 167 402 164 282 c 1
EndSplineSet
EndChar

StartChar: ecircumflex
Encoding: 325 234 165
Width: 444
Flags: HMW
HStem: -14 72<268.5 271.5> 245 37<169 298 164 421 169 169> 442 31<209.5 248> 684 20<190 282 282 282>
VStem: 25 144<245 245 245 301> 298 123<245 297 245 297>
LayerCount: 2
Fore
SplineSet
25 228 m 0
 25 374 109 473 234 473 c 0
 289 473 335 453 368 414 c 0
 400 376 415 329 421 245 c 1
 169 245 l 1
 173 176 181 143 199 111 c 0
 220 76 249 58 288 58 c 0
 331 58 362 76 402 125 c 1
 426 111 l 1
 361 18 312 -14 231 -14 c 0
 107 -14 25 82 25 228 c 0
68 528 m 1
 190 704 l 1
 282 704 l 1
 405 528 l 1
 348 528 l 1
 236 626 l 1
 124 528 l 1
 68 528 l 1
164 282 m 1
 298 282 l 1
 298 297 l 2
 296 348 294 376 289 395 c 0
 281 426 262 442 234 442 c 0
 185 442 167 402 164 282 c 1
EndSplineSet
EndChar

StartChar: edieresis
Encoding: 326 235 166
Width: 444
Flags: HMW
HStem: -14 72<268.5 271.5> 245 37<169 298 164 421 169 169> 442 31<209.5 248>
VStem: 25 144<245 245 245 301> 298 123<245 297 245 297>
LayerCount: 2
Fore
SplineSet
25 228 m 0
 25 374 109 473 234 473 c 0
 289 473 335 453 368 414 c 0
 400 376 415 329 421 245 c 1
 169 245 l 1
 173 176 181 143 199 111 c 0
 220 76 249 58 288 58 c 0
 331 58 362 76 402 125 c 1
 426 111 l 1
 361 18 312 -14 231 -14 c 0
 107 -14 25 82 25 228 c 0
60 602 m 0
 60 636 90 666 124 666 c 0
 159 666 189 636 189 600 c 0
 189 565 160 537 124 537 c 0
 89 537 60 567 60 602 c 0
164 282 m 1
 298 282 l 1
 298 297 l 2
 296 348 294 376 289 395 c 0
 281 426 262 442 234 442 c 0
 185 442 167 402 164 282 c 1
270 603 m 0
 270 636 300 666 333 666 c 0x00
 369 666 399 636 399 600 c 0
 399 565 370 537 333 537 c 0
 298 537 270 566 270 603 c 0
EndSplineSet
EndChar

StartChar: igrave
Encoding: 327 236 167
Width: 278
Flags: HMW
HStem: 0 21<16 255 16 16> 441 20<16 208 208 208> 693 20<8 30.5>
VStem: 69 139<84 378 378 398.5>
LayerCount: 2
Fore
SplineSet
-26 668 m 0
 -26 693 -5 713 21 713 c 0
 40 713 59 703 75 685 c 2
 212 528 l 1
 156 528 l 1
 14 616 l 2
 -15 634 -26 648 -26 668 c 0
16 0 m 1
 16 24 l 1
 62 35 69 43 69 84 c 2
 69 378 l 2
 69 419 60 428 16 437 c 1
 16 461 l 1
 208 461 l 1
 208 81 l 2
 208 43 220 29 255 24 c 1
 255 0 l 1
 16 0 l 1
EndSplineSet
EndChar

StartChar: iacute
Encoding: 328 237 168
Width: 278
Flags: HMW
HStem: 0 21<16 255 16 16> 441 20<16 208 208 208> 693 20<232.5 256.5>
VStem: 69 139<84 378 378 398.5>
LayerCount: 2
Fore
SplineSet
16 0 m 1
 16 24 l 1
 62 35 69 43 69 84 c 2
 69 378 l 2
 69 419 60 428 16 437 c 1
 16 461 l 1
 208 461 l 1
 208 81 l 2
 208 43 220 29 255 24 c 1
 255 0 l 1
 16 0 l 1
52 528 m 1
 189 685 l 2
 206 704 223 713 242 713 c 0
 271 713 290 695 290 669 c 0
 290 646 282 636 250 616 c 2
 108 528 l 1
 52 528 l 1
EndSplineSet
EndChar

StartChar: icircumflex
Encoding: 329 238 169
Width: 278
Flags: HMW
HStem: 0 21<16 255 16 16> 441 20<16 208 208 208> 684 20<86 178 178 178>
VStem: 69 139<84 378 378 398.5>
LayerCount: 2
Fore
SplineSet
-36 528 m 1
 86 704 l 1
 178 704 l 1
 301 528 l 1
 244 528 l 1
 132 626 l 1
 20 528 l 1
 -36 528 l 1
16 0 m 1
 16 24 l 1
 62 35 69 43 69 84 c 2
 69 378 l 2
 69 419 60 428 16 437 c 1
 16 461 l 1
 208 461 l 1
 208 81 l 2
 208 43 220 29 255 24 c 1
 255 0 l 1
 16 0 l 1
EndSplineSet
EndChar

StartChar: idieresis
Encoding: 330 239 170
Width: 278
Flags: HMW
HStem: 0 21<16 255 16 16> 441 20<16 208 208 208>
VStem: 69 139<84 378 378 398.5>
LayerCount: 2
Fore
SplineSet
-36 602 m 0
 -36 636 -6 666 28 666 c 0
 63 666 93 636 93 600 c 0
 93 565 64 537 28 537 c 0
 -7 537 -36 567 -36 602 c 0
16 0 m 1
 16 24 l 1
 62 35 69 43 69 84 c 2
 69 378 l 2
 69 419 60 428 16 437 c 1
 16 461 l 1
 208 461 l 1
 208 81 l 2
 208 43 220 29 255 24 c 1
 255 0 l 1
 16 0 l 1
174 603 m 0
 174 636 204 666 237 666 c 0x00
 273 666 303 636 303 600 c 0
 303 565 274 537 237 537 c 0
 202 537 174 566 174 603 c 0
EndSplineSet
EndChar

StartChar: eth
Encoding: 331 240 171
Width: 500
Flags: HMW
HStem: -14 31<239 281 239 322> 442 31<221.5 270 185.5 280.5>
VStem: 25 147<174.5 298.5> 329 147<196 310>
LayerCount: 2
Fore
SplineSet
25 229 m 0
 25 368 122 473 249 473 c 0
 291 473 314 462 340 432 c 1
 342 435 l 1
 323 492 297 533 256 574 c 1
 146 518 l 1
 98 549 l 1
 215 608 l 1
 172 639 132 657 82 666 c 1
 128 691 l 1
 189 685 238 671 288 645 c 1
 378 691 l 1
 427 661 l 1
 335 614 l 1
 396 564 420 532 445 471 c 0
 466 419 476 360 476 293 c 0
 476 99 393 -14 251 -14 c 0
 121 -14 25 89 25 229 c 0
172 222 m 0
 172 127 178 80 194 50 c 0
 207 28 226 17 252 17 c 0
 310 17 329 69 329 233 c 0
 329 387 309 442 252 442 c 0
 191 442 172 388 172 222 c 0
EndSplineSet
EndChar

StartChar: ntilde
Encoding: 332 241 172
Width: 556
Flags: HMW
HStem: 0 24<21 262 21 21> 406 67<287.5 396> 547 78<357.5 371.5> 596 78<180 192.5>
VStem: 74 139<84 348> 351 139<81 323 323 332>
LayerCount: 2
Fore
SplineSet
21 0 m 1
 21 24 l 1
 66 33 74 42 74 84 c 2
 74 378 l 2
 74 420 65 430 21 437 c 1
 21 461 l 1
 212 461 l 1xcc
 212 386 l 1
 249 445 295 473 355 473 c 0
 437 473 490 418 490 332 c 2
 490 81 l 2
 490 39 500 27 539 24 c 1
 539 0 l 1
 304 0 l 1
 304 24 l 1
 338 28 351 44 351 81 c 2
 351 323 l 2
 351 379 334 406 299 406 c 0
 276 406 252 394 230 371 c 0
 220 362 213 352 213 348 c 2
 213 81 l 2
 213 44 225 29 262 24 c 1
 262 0 l 1
 21 0 l 1
95 549 m 1
 113 635 149 674 211 674 c 0x10
 232 674 256 668 284 655 c 2
 324 637 l 2
 348 626 352 625 363 625 c 0x20
 390 625 404 638 417 674 c 1
 460 674 l 1x10
 437 587 400 547 343 547 c 0x20
 323 547 298 553 279 561 c 2
 250 574 l 2
 207 593 199 596 186 596 c 0
 160 596 141 577 137 549 c 1x10
 95 549 l 1
EndSplineSet
EndChar

StartChar: ograve
Encoding: 333 242 173
Width: 500
Flags: HMW
HStem: -14 31<221.5 280 221.5 315.5> 442 31<221 281> 693 20<125 147.5>
VStem: 25 147<160.5 300> 329 147<159.5 299 159.5 305>
LayerCount: 2
Fore
SplineSet
25 232 m 0
 25 368 124 473 251 473 c 0
 380 473 476 369 476 229 c 0
 476 90 380 -14 251 -14 c 0
 120 -14 25 89 25 232 c 0
91 668 m 0
 91 693 112 713 138 713 c 0
 157 713 176 703 192 685 c 2
 329 528 l 1
 273 528 l 1
 131 616 l 2
 102 634 91 648 91 668 c 0
172 214 m 0
 172 68 192 17 251 17 c 0
 309 17 329 69 329 223 c 0
 329 387 310 442 252 442 c 0
 190 442 172 390 172 214 c 0
EndSplineSet
EndChar

StartChar: oacute
Encoding: 334 243 174
Width: 500
Flags: HMW
HStem: -14 31<221.5 280 221.5 315.5> 442 31<221 281> 693 20<351.5 375.5>
VStem: 25 147<160.5 300> 329 147<159.5 299 159.5 305>
LayerCount: 2
Fore
SplineSet
25 232 m 0
 25 368 124 473 251 473 c 0
 380 473 476 369 476 229 c 0
 476 90 380 -14 251 -14 c 0
 120 -14 25 89 25 232 c 0
171 528 m 1
 308 685 l 2
 325 704 342 713 361 713 c 0
 390 713 409 695 409 669 c 0
 409 646 401 636 369 616 c 2
 227 528 l 1
 171 528 l 1
172 214 m 0
 172 68 192 17 251 17 c 0
 309 17 329 69 329 223 c 0
 329 387 310 442 252 442 c 0
 190 442 172 390 172 214 c 0
EndSplineSet
EndChar

StartChar: ocircumflex
Encoding: 335 244 175
Width: 500
Flags: HMW
HStem: -14 31<221.5 280 221.5 315.5> 442 31<221 281> 684 20<204 296 296 296>
VStem: 25 147<160.5 300> 329 147<159.5 299 159.5 305>
LayerCount: 2
Fore
SplineSet
25 232 m 0
 25 368 124 473 251 473 c 0
 380 473 476 369 476 229 c 0
 476 90 380 -14 251 -14 c 0
 120 -14 25 89 25 232 c 0
82 528 m 1
 204 704 l 1
 296 704 l 1
 419 528 l 1
 362 528 l 1
 250 626 l 1
 138 528 l 1
 82 528 l 1
172 214 m 0
 172 68 192 17 251 17 c 0
 309 17 329 69 329 223 c 0
 329 387 310 442 252 442 c 0
 190 442 172 390 172 214 c 0
EndSplineSet
EndChar

StartChar: otilde
Encoding: 336 245 176
Width: 500
Flags: HMW
HStem: -14 31<221.5 280 221.5 315.5> 442 31<221 281> 547 78<330.5 344.5> 596 78<153 165.5>
VStem: 25 147<160.5 300> 329 147<159.5 299 159.5 305>
LayerCount: 2
Fore
SplineSet
25 232 m 0
 25 368 124 473 251 473 c 0xcc
 380 473 476 369 476 229 c 0
 476 90 380 -14 251 -14 c 0
 120 -14 25 89 25 232 c 0
68 549 m 1
 86 635 122 674 184 674 c 0x10
 205 674 229 668 257 655 c 2
 297 637 l 2
 321 626 325 625 336 625 c 0x20
 363 625 377 638 390 674 c 1
 433 674 l 1x10
 410 587 373 547 316 547 c 0x20
 296 547 271 553 252 561 c 2
 223 574 l 2
 180 593 172 596 159 596 c 0
 133 596 114 577 110 549 c 1x10
 68 549 l 1
172 214 m 0
 172 68 192 17 251 17 c 0
 309 17 329 69 329 223 c 0
 329 387 310 442 252 442 c 0
 190 442 172 390 172 214 c 0
EndSplineSet
EndChar

StartChar: odieresis
Encoding: 337 246 177
Width: 500
Flags: HMW
HStem: -14 31<221.5 280 221.5 315.5> 442 31<221 281>
VStem: 25 147<160.5 300> 329 147<159.5 299 159.5 305>
LayerCount: 2
Fore
SplineSet
25 232 m 0
 25 368 124 473 251 473 c 0
 380 473 476 369 476 229 c 0
 476 90 380 -14 251 -14 c 0
 120 -14 25 89 25 232 c 0
82 602 m 0
 82 636 112 666 146 666 c 0
 181 666 211 636 211 600 c 0
 211 565 182 537 146 537 c 0
 111 537 82 567 82 602 c 0
172 214 m 0
 172 68 192 17 251 17 c 0
 309 17 329 69 329 223 c 0
 329 387 310 442 252 442 c 0
 190 442 172 390 172 214 c 0
292 603 m 0
 292 636 322 666 355 666 c 0x00
 391 666 421 636 421 600 c 0
 421 565 392 537 355 537 c 0
 320 537 292 566 292 603 c 0
EndSplineSet
EndChar

StartChar: divide
Encoding: 338 247 178
Width: 570
Flags: HMW
HStem: -31 153<265 305.5> 209 88<33 537 33 537> 384 153<265 305.5 265 306>
VStem: 209 153<27 67 27 67 441 481>
CounterMasks: 1 e0
LayerCount: 2
Fore
SplineSet
33 209 m 1
 33 297 l 1
 537 297 l 1
 537 209 l 1
 33 209 l 1
209 47 m 0
 209 87 244 122 285 122 c 0
 326 122 362 87 362 47 c 0
 362 7 325 -31 286 -31 c 0
 244 -31 209 5 209 47 c 0
209 461 m 0
 209 501 245 537 285 537 c 0
 326 537 362 501 362 461 c 0
 362 421 326 384 286 384 c 0
 244 384 209 419 209 461 c 0
EndSplineSet
EndChar

StartChar: oslash
Encoding: 339 248 179
Width: 500
Flags: HMW
HStem: -14 31<233.5 280 233.5 315.5> 442 31<221 268.5>
VStem: 25 147<196 299> 329 147<159 233>
LayerCount: 2
Fore
SplineSet
25 229 m 0
 25 369 122 473 252 473 c 0
 290 473 320 466 355 448 c 1
 415 549 l 1
 461 549 l 1
 388 426 l 1
 449 371 476 311 476 229 c 0
 476 89 380 -14 251 -14 c 0
 211 -14 180 -6 144 13 c 1
 81 -92 l 1
 34 -92 l 1
 110 36 l 1
 50 92 25 150 25 229 c 0
172 210 m 0
 172 182 172 160 173 140 c 1
 316 382 l 1
 303 425 285 442 252 442 c 0
 190 442 172 390 172 210 c 0
183 80 m 1
 196 35 216 17 251 17 c 0
 309 17 329 70 329 219 c 0
 329 247 328 277 327 324 c 1
 183 80 l 1
EndSplineSet
EndChar

StartChar: ugrave
Encoding: 340 249 180
Width: 556
Flags: HMW
HStem: -14 65<156.5 274> 441 20<16 204 204 204 280 481 481 481> 693 20<154 176.5>
VStem: 65 139<126 378 378 399> 342 139<95 101 101 378 378 399.5>
LayerCount: 2
Fore
SplineSet
16 437 m 1
 16 461 l 1
 204 461 l 1
 204 122 l 2
 204 71 219 51 260 51 c 0
 288 51 309 62 342 95 c 1
 342 378 l 2
 342 421 330 433 280 437 c 1
 280 461 l 1
 481 461 l 1
 481 101 l 2
 481 58 493 45 537 43 c 1
 537 20 l 1
 475 13 l 2
 410 6 386 2 343 -13 c 1
 343 52 l 1
 285 2 250 -14 198 -14 c 0
 115 -14 65 38 65 126 c 2
 65 378 l 2
 65 420 57 429 16 437 c 1
120 668 m 0
 120 693 141 713 167 713 c 0
 186 713 205 703 221 685 c 2
 358 528 l 1
 302 528 l 1
 160 616 l 2
 131 634 120 648 120 668 c 0
EndSplineSet
EndChar

StartChar: uacute
Encoding: 341 250 181
Width: 556
Flags: HMW
HStem: -14 65<156.5 274> 441 20<16 204 204 204 280 481 481 481> 693 20<364.5 388.5>
VStem: 65 139<126 378 378 399> 342 139<95 101 101 378 378 399.5>
LayerCount: 2
Fore
SplineSet
16 437 m 1
 16 461 l 1
 204 461 l 1
 204 122 l 2
 204 71 219 51 260 51 c 0
 288 51 309 62 342 95 c 1
 342 378 l 2
 342 421 330 433 280 437 c 1
 280 461 l 1
 481 461 l 1
 481 101 l 2
 481 58 493 45 537 43 c 1
 537 20 l 1
 475 13 l 2
 410 6 386 2 343 -13 c 1
 343 52 l 1
 285 2 250 -14 198 -14 c 0
 115 -14 65 38 65 126 c 2
 65 378 l 2
 65 420 57 429 16 437 c 1
184 528 m 1
 321 685 l 2
 338 704 355 713 374 713 c 0
 403 713 422 695 422 669 c 0
 422 646 414 636 382 616 c 2
 240 528 l 1
 184 528 l 1
EndSplineSet
EndChar

StartChar: ucircumflex
Encoding: 342 251 182
Width: 556
Flags: HMW
HStem: -14 65<156.5 274> 441 20<16 204 204 204 280 481 481 481> 684 20<228 320 320 320>
VStem: 65 139<126 378 378 399> 342 139<95 101 101 378 378 399.5>
LayerCount: 2
Fore
SplineSet
16 437 m 1
 16 461 l 1
 204 461 l 1
 204 122 l 2
 204 71 219 51 260 51 c 0
 288 51 309 62 342 95 c 1
 342 378 l 2
 342 421 330 433 280 437 c 1
 280 461 l 1
 481 461 l 1
 481 101 l 2
 481 58 493 45 537 43 c 1
 537 20 l 1
 475 13 l 2
 410 6 386 2 343 -13 c 1
 343 52 l 1
 285 2 250 -14 198 -14 c 0
 115 -14 65 38 65 126 c 2
 65 378 l 2
 65 420 57 429 16 437 c 1
106 528 m 1
 228 704 l 1
 320 704 l 1
 443 528 l 1
 386 528 l 1
 274 626 l 1
 162 528 l 1
 106 528 l 1
EndSplineSet
EndChar

StartChar: udieresis
Encoding: 343 252 183
Width: 556
Flags: HMW
HStem: -14 65<156.5 274> 441 20<16 204 204 204 280 481 481 481>
VStem: 65 139<126 378 378 399> 342 139<95 101 101 378 378 399.5>
LayerCount: 2
Fore
SplineSet
16 437 m 1
 16 461 l 1
 204 461 l 1
 204 122 l 2
 204 71 219 51 260 51 c 0
 288 51 309 62 342 95 c 1
 342 378 l 2
 342 421 330 433 280 437 c 1
 280 461 l 1
 481 461 l 1
 481 101 l 2
 481 58 493 45 537 43 c 1
 537 20 l 1
 475 13 l 2
 410 6 386 2 343 -13 c 1
 343 52 l 1
 285 2 250 -14 198 -14 c 0
 115 -14 65 38 65 126 c 2
 65 378 l 2
 65 420 57 429 16 437 c 1
95 602 m 0
 95 636 125 666 159 666 c 0
 194 666 224 636 224 600 c 0
 224 565 195 537 159 537 c 0
 124 537 95 567 95 602 c 0
305 603 m 0
 305 636 335 666 368 666 c 0x00
 404 666 434 636 434 600 c 0
 434 565 405 537 368 537 c 0
 333 537 305 566 305 603 c 0
EndSplineSet
EndChar

StartChar: yacute
Encoding: 344 253 184
Width: 500
Flags: HMW
HStem: -205 143<84.5 97 61.5 130> 437 24<16 266 16 266> 693 20<350.5 374.5>
VStem: 16 119<-135.5 -129 -135.5 -107>
LayerCount: 2
Fore
SplineSet
16 -126 m 0
 16 -88 43 -62 80 -62 c 0
 114 -62 138 -82 138 -111 c 0
 138 -119 135 -127 135 -131 c 0
 135 -140 143 -148 152 -148 c 0
 175 -148 201 -116 218 -66 c 2
 236 -13 l 1
 116 282 l 2
 99 324 54 422 51 422 c 0
 45 431 39 434 16 437 c 1
 16 461 l 1
 266 461 l 1
 266 437 l 1
 250 436 l 2
 225 434 213 425 213 411 c 0
 213 403 213 403 233 352 c 2
 305 167 l 1
 373 359 l 2
 382 384 384 393 384 404 c 0
 384 428 372 435 329 437 c 1
 329 461 l 1
 480 461 l 1
 480 437 l 1
 449 434 439 424 422 382 c 2
 273 -15 l 2
 238 -109 218 -149 197 -172 c 0
 176 -193 147 -205 113 -205 c 0
 56 -205 16 -172 16 -126 c 0
170 528 m 1
 307 685 l 2
 324 704 341 713 360 713 c 0
 389 713 408 695 408 669 c 0
 408 646 400 636 368 616 c 2
 226 528 l 1
 170 528 l 1
EndSplineSet
EndChar

StartChar: thorn
Encoding: 345 254 185
Width: 556
Flags: HMW
HStem: -205 21<19 292> -13 55<310 320.5 276 388> 416 57<308 326> 656 20G<20 214 214 214>
VStem: 75 139<-123 -94 -94 47 103 346 391 594 594 614> 376 148<165 290.5>
LayerCount: 2
Fore
SplineSet
19 -181 m 1
 67 -173 75 -164 75 -123 c 2
 75 594 l 2
 75 634 66 643 20 652 c 1
 20 676 l 1
 214 676 l 1
 214 391 l 1
 243 450 278 473 338 473 c 0
 449 473 524 378 524 239 c 0
 524 91 444 -13 332 -13 c 0
 288 -13 262 0 214 47 c 1
 214 -94 l 2
 214 -161 231 -181 292 -184 c 1
 292 -205 l 1
 19 -205 l 1
 19 -181 l 1
214 103 m 1
 233 62 259 42 293 42 c 0
 348 42 376 103 376 225 c 0
 376 356 352 416 300 416 c 0
 278 416 255 404 235 382 c 0
 223 369 214 353 214 346 c 2
 214 103 l 1
EndSplineSet
EndChar

StartChar: ydieresis
Encoding: 346 255 186
Width: 500
Flags: HMW
HStem: -205 143<84.5 97 61.5 130> 437 24<16 266 16 266>
VStem: 16 119<-135.5 -129 -135.5 -107>
LayerCount: 2
Fore
SplineSet
16 -126 m 0
 16 -88 43 -62 80 -62 c 0
 114 -62 138 -82 138 -111 c 0
 138 -119 135 -127 135 -131 c 0
 135 -140 143 -148 152 -148 c 0
 175 -148 201 -116 218 -66 c 2
 236 -13 l 1
 116 282 l 2
 99 324 54 422 51 422 c 0
 45 431 39 434 16 437 c 1
 16 461 l 1
 266 461 l 1
 266 437 l 1
 250 436 l 2
 225 434 213 425 213 411 c 0
 213 403 213 403 233 352 c 2
 305 167 l 1
 373 359 l 2
 382 384 384 393 384 404 c 0
 384 428 372 435 329 437 c 1
 329 461 l 1
 480 461 l 1
 480 437 l 1
 449 434 439 424 422 382 c 2
 273 -15 l 2
 238 -109 218 -149 197 -172 c 0
 176 -193 147 -205 113 -205 c 0
 56 -205 16 -172 16 -126 c 0
96 602 m 0
 96 636 126 666 160 666 c 0
 195 666 225 636 225 600 c 0
 225 565 196 537 160 537 c 0
 125 537 96 567 96 602 c 0
306 603 m 0
 306 636 336 666 369 666 c 0x00
 405 666 435 636 435 600 c 0
 435 565 406 537 369 537 c 0
 334 537 306 566 306 603 c 0
EndSplineSet
Ligature2: "'ccmp' Glyph Composition/Decomposition in Latin lookup 8 subtable" y diaeresiscomb
EndChar

StartChar: Amacron
Encoding: 347 256 187
Width: 722
Flags: HMW
HStem: 0 25<9 212 9 9 685 689> 197 39<189 384 189 399 174 384> 670 20<329 357 357 357> 775 72<179 509 179 509>
LayerCount: 2
Fore
SplineSet
9 0 m 1
 9 25 l 1
 57 34 69 49 107 142 c 2
 329 690 l 1
 357 690 l 1
 580 164 l 2
 630 46 646 25 685 25 c 2
 689 25 l 1
 689 0 l 1
 365 0 l 1
 365 25 l 1
 379 27 392 28 397 28 c 0
 432 30 445 40 445 61 c 0
 445 83 433 119 399 197 c 1
 174 197 l 1
 159 158 l 2
 138 104 130 79 130 66 c 0
 130 40 153 29 212 25 c 1
 212 0 l 1
 9 0 l 1
179 775 m 1
 179 847 l 1
 509 847 l 1
 509 775 l 1
 179 775 l 1
189 236 m 1
 384 236 l 1
 283 479 l 1
 189 236 l 1
EndSplineSet
EndChar

StartChar: amacron
Encoding: 348 257 188
Width: 500
Flags: HMW
HStem: -14 64<351.5 454.5> 441 32<192.5 239>
LayerCount: 2
Fore
SplineSet
25 92 m 0
 25 135 46 169 89 199 c 0
 126 224 175 244 294 280 c 1
 294 353 l 2
 294 414 268 441 210 441 c 0
 175 441 147 425 147 404 c 0
 147 398 150 392 159 382 c 0
 171 366 177 353 177 339 c 0
 177 305 149 281 109 281 c 0
 68 281 44 306 44 347 c 0
 44 422 120 473 233 473 c 0
 355 473 431 420 431 336 c 2
 431 75 l 2
 431 59 438 50 452 50 c 0
 457 50 460 51 463 54 c 2
 473 64 l 1
 488 43 l 1
 450 2 419 -14 376 -14 c 0
 327 -14 305 5 294 56 c 1
 239 6 193 -14 136 -14 c 0
 72 -14 25 31 25 92 c 0
85 563 m 1
 85 635 l 1
 415 635 l 1x00
 415 563 l 1
 85 563 l 1
171 124 m 0
 171 84 192 57 222 57 c 0
 246 57 266 69 293 100 c 1
 293 245 l 1
 213 224 171 182 171 124 c 0
EndSplineSet
EndChar

StartChar: Abreve
Encoding: 349 258 189
Width: 722
Flags: HMW
HStem: 0 25<9 212 9 9 685 689> 197 39<189 384 189 399 174 384> 670 20<329 357 357 357> 738 76<314 374.5 314 393.5> 881 20<192 236 236 236 451 495 495 495>
LayerCount: 2
Fore
SplineSet
9 0 m 1
 9 25 l 1
 57 34 69 49 107 142 c 2
 329 690 l 1
 357 690 l 1
 580 164 l 2
 630 46 646 25 685 25 c 2
 689 25 l 1
 689 0 l 1
 365 0 l 1
 365 25 l 1
 379 27 392 28 397 28 c 0
 432 30 445 40 445 61 c 0
 445 83 433 119 399 197 c 1
 174 197 l 1
 159 158 l 2
 138 104 130 79 130 66 c 0
 130 40 153 29 212 25 c 1
 212 0 l 1
 9 0 l 1
189 236 m 1
 384 236 l 1
 283 479 l 1
 189 236 l 1
192 901 m 1
 236 901 l 1
 246 840 284 814 344 814 c 0
 405 814 437 842 451 901 c 1
 495 901 l 1
 489 808 444 738 343 738 c 0
 242 738 193 805 192 901 c 1
EndSplineSet
EndChar

StartChar: abreve
Encoding: 350 259 190
Width: 500
Flags: HMW
HStem: -14 64<351.5 454.5> 441 32<192.5 239>
LayerCount: 2
Fore
SplineSet
25 92 m 0
 25 135 46 169 89 199 c 0
 126 224 175 244 294 280 c 1
 294 353 l 2
 294 414 268 441 210 441 c 0
 175 441 147 425 147 404 c 0
 147 398 150 392 159 382 c 0
 171 366 177 353 177 339 c 0
 177 305 149 281 109 281 c 0
 68 281 44 306 44 347 c 0
 44 422 120 473 233 473 c 0
 355 473 431 420 431 336 c 2
 431 75 l 2
 431 59 438 50 452 50 c 0
 457 50 460 51 463 54 c 2
 473 64 l 1
 488 43 l 1
 450 2 419 -14 376 -14 c 0
 327 -14 305 5 294 56 c 1
 239 6 193 -14 136 -14 c 0
 72 -14 25 31 25 92 c 0
98 691 m 1
 142 691 l 1
 152 630 190 604 250 604 c 0
 311 604 343 632 357 691 c 1
 401 691 l 1x00
 395 598 350 528 249 528 c 0
 148 528 99 595 98 691 c 1
171 124 m 0
 171 84 192 57 222 57 c 0
 246 57 266 69 293 100 c 1
 293 245 l 1
 213 224 171 182 171 124 c 0
EndSplineSet
EndChar

StartChar: Aogonek
Encoding: 351 260 191
Width: 722
Flags: HMW
HStem: -173 69<719.5 724> 0 25<9 212 9 9> 197 39<189 384 189 399 174 384> 670 20G<329 357 357 357>
VStem: 593 84<-115.5 -30.5>
LayerCount: 2
Fore
SplineSet
9 0 m 1
 9 25 l 1
 57 34 69 48 107 142 c 2
 329 690 l 1
 357 690 l 1
 580 164 l 2
 633 40 645 25 689 25 c 1
 689 0 l 1
 680 -10 677 -21 677 -40 c 0
 677 -81 699 -104 740 -104 c 0
 755 -104 766 -101 786 -91 c 0
 794 -87 795 -86 800 -84 c 1
 822 -98 l 1
 797 -144 749 -173 699 -173 c 0
 638 -173 593 -139 593 -92 c 0
 593 -64 602 -45 636 0 c 1
 365 0 l 1
 365 25 l 1
 379 26 392 27 397 28 c 0
 432 30 445 39 445 61 c 0
 445 83 433 119 399 197 c 1
 174 197 l 1
 159 157 l 2
 138 104 130 79 130 66 c 0
 130 40 152 29 212 25 c 1
 212 0 l 1
 9 0 l 1
189 236 m 1
 384 236 l 1
 283 479 l 1
 189 236 l 1
EndSplineSet
Ligature2: "'ccmp' Glyph Composition/Decomposition in Latin lookup 8 subtable" A uni0328
EndChar

StartChar: aogonek
Encoding: 352 261 192
Width: 500
Flags: HMW
HStem: -173 69<401 402> -14 71<104 234> 441 32<192.5 239>
VStem: 25 146<104 113.5> 44 133<326.5 346 322 384.5> 271 83<-115.5 -50.5> 293 138<100 245 245 245>
LayerCount: 2
Fore
SplineSet
25 92 m 0xf4
 25 135 46 169 89 199 c 0
 126 224 175 244 294 280 c 1
 294 353 l 2
 294 414 268 441 210 441 c 0
 175 441 147 425 147 404 c 0
 147 398 150 392 159 382 c 0
 171 366 177 353 177 339 c 0
 177 305 149 281 109 281 c 0
 68 281 44 306 44 347 c 0
 44 422 120 473 233 473 c 0
 355 473 431 420 431 336 c 2
 431 75 l 2
 431 59 438 50 452 50 c 0
 457 50 460 51 463 54 c 2
 473 64 l 1xea
 488 43 l 1
 452 4 447 2 389 -16 c 0
 369 -23 354 -41 354 -60 c 0
 354 -84 383 -104 419 -104 c 0
 433 -104 444 -101 464 -91 c 0
 472 -87 473 -86 478 -84 c 1
 500 -98 l 1
 475 -144 427 -173 377 -173 c 0
 316 -173 271 -139 271 -92 c 0
 271 -64 281 -43 317 5 c 1
 305 17 300 29 294 56 c 1
 239 6 193 -14 136 -14 c 0
 72 -14 25 31 25 92 c 0xf4
171 124 m 0
 171 84 192 57 222 57 c 0
 246 57 266 69 293 100 c 1xf2
 293 245 l 1
 213 224 171 182 171 124 c 0
EndSplineSet
Ligature2: "'ccmp' Glyph Composition/Decomposition in Latin lookup 8 subtable" a uni0328
EndChar

StartChar: Cacute
Encoding: 353 262 193
Width: 722
Flags: HMW
HStem: -19 48<338 469> 658 33<328.5 441.5 299.5 466.5> 903 20<502.5 526.5>
VStem: 49 177<271.5 398 271.5 434.5>
LayerCount: 2
Fore
SplineSet
49 332 m 0
 49 537 196 691 403 691 c 0
 480 691 559 642 596 642 c 0
 622 642 635 666 642 688 c 1
 669 688 l 1
 669 454 l 1
 644 454 l 1
 606 547 522 658 411 658 c 0
 246 658 226 460 226 336 c 0
 226 207 255 29 421 29 c 0
 520 29 593 81 657 152 c 1
 687 127 l 1
 610 39 530 -19 408 -19 c 0
 199 -19 49 121 49 332 c 0
322 738 m 1
 459 895 l 2
 476 914 493 923 512 923 c 0
 541 923 560 905 560 879 c 0
 560 856 552 846 520 826 c 2
 378 738 l 1
 322 738 l 1
EndSplineSet
EndChar

StartChar: cacute
Encoding: 354 263 194
Width: 444
Flags: HMW
HStem: -14 67 442 31 693 20
VStem: 25 141 292 124
LayerCount: 2
Fore
SplineSet
24 222 m 0
 24 366 124 472 260 472 c 0
 348 472 415 424 415 362 c 0
 415 329 399 300 357 300 c 0
 320 300 291 328 291 372 c 0
 291 414 289 416 284 425 c 0
 278 436 266 442 250 442 c 0
 198 442 166 379 166 276 c 0
 166 140 221 53 308 53 c 0
 349 53 375 67 412 109 c 1
 429 90 l 1
 371 16 315 -15 238 -15 c 0
 114 -15 24 84 24 222 c 0
171 527 m 1
 308 684 l 2
 325 703 342 712 361 712 c 0
 390 712 409 694 409 668 c 0
 409 645 401 635 369 615 c 2
 227 527 l 1
 171 527 l 1
EndSplineSet
EndChar

StartChar: Ccircumflex
Encoding: 355 264 195
Width: 722
Flags: HMW
HStem: -19 48<338 469> 658 33<328.5 441.5 299.5 466.5> 894 20<356 448 448 448>
VStem: 49 177<271.5 398 271.5 434.5>
LayerCount: 2
Fore
SplineSet
49 332 m 0
 49 537 196 691 403 691 c 0
 480 691 559 642 596 642 c 0
 622 642 635 666 642 688 c 1
 669 688 l 1
 669 454 l 1
 644 454 l 1
 606 547 522 658 411 658 c 0
 246 658 226 460 226 336 c 0
 226 207 255 29 421 29 c 0
 520 29 593 81 657 152 c 1
 687 127 l 1
 610 39 530 -19 408 -19 c 0
 199 -19 49 121 49 332 c 0
234 738 m 1
 356 914 l 1
 448 914 l 1
 571 738 l 1
 514 738 l 1
 402 836 l 1
 290 738 l 1
 234 738 l 1
EndSplineSet
EndChar

StartChar: ccircumflex
Encoding: 356 265 196
Width: 444
Flags: HMW
HStem: -14 67 442 31 684 20
VStem: 25 141 292 124
LayerCount: 2
Fore
SplineSet
24 222 m 0
 24 366 124 472 260 472 c 0
 348 472 415 424 415 362 c 0
 415 329 399 300 357 300 c 0
 320 300 291 328 291 372 c 0
 291 414 289 416 284 425 c 0
 278 436 266 442 250 442 c 0
 198 442 166 379 166 276 c 0
 166 140 221 53 308 53 c 0
 349 53 375 67 412 109 c 1
 429 90 l 1
 371 16 315 -15 238 -15 c 0
 114 -15 24 84 24 222 c 0
83 527 m 1
 205 703 l 1
 297 703 l 1
 420 527 l 1
 363 527 l 1
 251 625 l 1
 139 527 l 1
 83 527 l 1
EndSplineSet
EndChar

StartChar: Cdotaccent
Encoding: 357 266 197
Width: 722
Flags: HMW
HStem: -19 48<338 469> 658 33<328.5 441.5 299.5 466.5> 747 129<385.5 420 385.5 420.5>
VStem: 49 177<271.5 398 271.5 434.5> 339 129<794.5 828 792.5 829.5>
LayerCount: 2
Fore
SplineSet
49 332 m 0
 49 537 196 691 403 691 c 0
 480 691 559 642 596 642 c 0
 622 642 635 666 642 688 c 1
 669 688 l 1
 669 454 l 1
 644 454 l 1
 606 547 522 658 411 658 c 0
 246 658 226 460 226 336 c 0
 226 207 255 29 421 29 c 0
 520 29 593 81 657 152 c 1
 687 127 l 1
 610 39 530 -19 408 -19 c 0
 199 -19 49 121 49 332 c 0
339 813 m 0
 339 846 369 876 402 876 c 0
 438 876 468 846 468 810 c 0
 468 775 439 747 402 747 c 0
 367 747 339 776 339 813 c 0
EndSplineSet
EndChar

StartChar: cdotaccent
Encoding: 358 267 198
Width: 444
Flags: HMW
HStem: -14 67 442 31
VStem: 25 141 292 124
LayerCount: 2
Fore
SplineSet
24 222 m 0
 24 366 124 472 260 472 c 0
 348 472 415 424 415 362 c 0
 415 329 399 300 357 300 c 0
 320 300 291 328 291 372 c 0
 291 414 289 416 284 425 c 0
 278 436 266 442 250 442 c 0
 198 442 166 379 166 276 c 0
 166 140 221 53 308 53 c 0
 349 53 375 67 412 109 c 1
 429 90 l 1
 371 16 315 -15 238 -15 c 0
 114 -15 24 84 24 222 c 0
188 602 m 0
 188 635 218 665 251 665 c 0x00
 287 665 317 635 317 599 c 0
 317 564 288 536 251 536 c 0
 216 536 188 565 188 602 c 0
EndSplineSet
EndChar

StartChar: Ccaron
Encoding: 359 268 199
Width: 722
Flags: HMW
HStem: -19 48<338 469> 658 33<328.5 441.5 299.5 466.5> 894 20<234 290 290 290 514 571 571 571>
VStem: 49 177<271.5 398 271.5 434.5>
LayerCount: 2
Fore
SplineSet
49 332 m 0
 49 537 196 691 403 691 c 0
 480 691 559 642 596 642 c 0
 622 642 635 666 642 688 c 1
 669 688 l 1
 669 454 l 1
 644 454 l 1
 606 547 522 658 411 658 c 0
 246 658 226 460 226 336 c 0
 226 207 255 29 421 29 c 0
 520 29 593 81 657 152 c 1
 687 127 l 1
 610 39 530 -19 408 -19 c 0
 199 -19 49 121 49 332 c 0
234 914 m 1
 290 914 l 1
 402 815 l 1
 514 914 l 1
 571 914 l 1
 448 738 l 1
 356 738 l 1
 234 914 l 1
EndSplineSet
EndChar

StartChar: ccaron
Encoding: 360 269 200
Width: 444
Flags: HMW
HStem: -14 67 442 31 684 20
VStem: 25 141 292 124
LayerCount: 2
Fore
SplineSet
24 222 m 0
 24 366 124 472 260 472 c 0
 348 472 415 424 415 362 c 0
 415 329 399 300 357 300 c 0
 320 300 291 328 291 372 c 0
 291 414 289 416 284 425 c 0
 278 436 266 442 250 442 c 0
 198 442 166 379 166 276 c 0
 166 140 221 53 308 53 c 0
 349 53 375 67 412 109 c 1
 429 90 l 1
 371 16 315 -15 238 -15 c 0
 114 -15 24 84 24 222 c 0
83 703 m 1
 139 703 l 1
 251 604 l 1
 363 703 l 1
 420 703 l 1
 297 527 l 1
 205 527 l 1
 83 703 l 1
EndSplineSet
EndChar

StartChar: Dcaron
Encoding: 361 270 201
Width: 724
Flags: HMW
HStem: 0 35<296.5 332> 642 34<300.5 321 321 356> 894 20<162 218 218 218 442 499 499 499>
VStem: 99 162<91 93 93 584 584 607> 518 174<282.5 372>
LayerCount: 2
Fore
SplineSet
16 0 m 1
 16 25 l 1
 74 27 99 47 99 91 c 2
 99 584 l 2
 99 630 80 645 16 651 c 1
 16 676 l 1
 321 676 l 2
 552 676 692 551 692 345 c 0
 692 138 548 0 332 0 c 2
 16 0 l 1
162 914 m 1
 218 914 l 1
 330 815 l 1
 442 914 l 1
 499 914 l 1
 376 738 l 1
 284 738 l 1
 162 914 l 1
261 93 m 2
 261 48 274 35 319 35 c 0
 384 35 432 58 466 104 c 0
 498 149 518 235 518 330 c 0
 518 414 504 487 477 540 c 0
 443 609 392 642 320 642 c 0
 281 642 261 630 261 607 c 2
 261 93 l 2
EndSplineSet
EndChar

StartChar: dcaron
Encoding: 362 271 202
Width: 658
Flags: HMW
HStem: -14 56<224.5 232.5> 417 56<229 240 162 274.5> 652 24<260 475>
VStem: 25 148<165.5 293.5 165.5 293.5> 336 139<112 355 355 355 411 594 594 617>
LayerCount: 2
Fore
SplineSet
25 221 m 0
 25 366 107 473 217 473 c 0
 263 473 293 457 336 411 c 1
 336 594 l 2
 336 640 327 647 260 652 c 1
 260 676 l 1
 475 676 l 1
 475 101 l 2
 475 59 488 46 534 43 c 1
 534 20 l 1
 472 12 l 2
 410 5 385 0 339 -13 c 1xf8
 339 52 l 1
 292 2 259 -14 206 -14 c 0
 101 -14 25 85 25 221 c 0
173 229 m 0
 173 102 198 42 251 42 c 0
 273 42 294 53 314 76 c 0
 326 89 336 106 336 112 c 2
 336 355 l 1
 322 393 291 417 258 417 c 0
 200 417 173 358 173 229 c 0
500 617 m 0
 500 662 530 691 575 691 c 0
 629 691 665 649 665 586 c 0
 665 508 618 449 516 406 c 1
 506 425 l 1
 572 454 604 494 604 529 c 0
 604 539 596 548 587 548 c 0
 586 548 571 546 567 546 c 0
 526 546 500 574 500 617 c 0
EndSplineSet
Ligature2: "'ccmp' Glyph Composition/Decomposition in Latin lookup 8 subtable" d caroncomb
EndChar

StartChar: Dcroat
Encoding: 363 272 203
Width: 722
Flags: HMW
HStem: 0 35<294.5 330> 326 47<6 97 6 97 259 373> 642 34<305 319 319 354.5>
VStem: 97 162<91 93 93 326 373 584 584 595> 516 174<282.5 372>
LayerCount: 2
Fore
SplineSet
6 326 m 1
 6 373 l 1
 97 373 l 1
 97 584 l 2
 97 630 78 645 14 651 c 1
 14 676 l 1
 319 676 l 2
 550 676 690 551 690 345 c 0
 690 138 546 0 330 0 c 2
 14 0 l 1
 14 25 l 1
 72 27 97 47 97 91 c 2
 97 326 l 1
 6 326 l 1
259 93 m 2
 259 48 272 35 317 35 c 0
 382 35 430 58 464 104 c 0
 496 149 516 235 516 330 c 0
 516 414 502 487 475 540 c 0
 441 609 390 642 319 642 c 0
 291 642 272 636 264 625 c 0
 260 620 259 612 259 595 c 2
 259 373 l 1
 373 373 l 1
 373 326 l 1
 259 326 l 1
 259 93 l 2
EndSplineSet
EndChar

StartChar: dcroat
Encoding: 364 273 204
Width: 556
Flags: HMW
HStem: -14 56<224.5 232.5> 417 56<229 240 162 274.5> 545 44<244 336 244 336 475 534> 652 24<260 475>
VStem: 25 148<165.5 293.5 165.5 293.5> 336 139<112 355 355 355 411 545 589 594 594 617>
LayerCount: 2
Fore
SplineSet
25 221 m 0
 25 366 107 473 217 473 c 0
 263 473 293 457 336 411 c 1
 336 545 l 1
 244 545 l 1
 244 589 l 1
 336 589 l 1
 336 594 l 2
 336 640 327 647 260 652 c 1
 260 676 l 1
 475 676 l 1
 475 589 l 1
 534 589 l 1
 534 545 l 1
 475 545 l 1
 475 101 l 2
 475 59 488 46 534 43 c 1
 534 20 l 1
 472 12 l 2
 410 5 385 0 339 -13 c 1
 339 52 l 1
 292 2 259 -14 206 -14 c 0
 101 -14 25 85 25 221 c 0
173 229 m 0
 173 102 198 42 251 42 c 0
 273 42 294 53 314 76 c 0
 326 89 336 106 336 112 c 2
 336 355 l 1
 322 393 291 417 258 417 c 0
 200 417 173 358 173 229 c 0
EndSplineSet
EndChar

StartChar: Emacron
Encoding: 365 274 205
Width: 667
Flags: HMW
HStem: 0 31<317 387 317 601> 329 34<266 320.5> 475 21<568 593 568 568> 642 34<305 412.5> 775 72<163 493 163 493>
VStem: 104 162<96 329 363 580 580 595>
LayerCount: 2
Fore
SplineSet
16 0 m 1
 16 25 l 1
 90 33 104 44 104 96 c 2
 104 580 l 2
 104 631 85 647 16 651 c 1
 16 676 l 1
 593 676 l 1
 593 475 l 1
 568 475 l 1
 543 608 494 642 331 642 c 0
 279 642 266 633 266 595 c 2
 266 363 l 1
 267.4486928 362.986586178 268.884970386 362.979829789 270.30894137 362.979829789 c 0
 375.041959798 362.979829789 413.201207333 399.529175733 428 512 c 1
 454 512 l 1
 454 174 l 1
 428 174 l 1
 416 290 375 329 266 329 c 1
 266 87 l 2
 266 44 285 31 349 31 c 0
 425 31 480 47 526 84 c 0
 562 113 582 141 613 208 c 1
 641 208 l 1
 601 0 l 1
 16 0 l 1
163 775 m 1
 163 847 l 1
 493 847 l 1
 493 775 l 1
 163 775 l 1
EndSplineSet
EndChar

StartChar: emacron
Encoding: 366 275 206
Width: 444
Flags: HMW
HStem: -14 72<268.5 271.5> 245 37<169 298 164 421 169 169> 442 31<209.5 248> 565 72<71 401 71 401>
VStem: 25 144<245 245 245 301> 298 123<245 297 245 297>
LayerCount: 2
Fore
SplineSet
25 228 m 0
 25 374 109 473 234 473 c 0
 289 473 335 453 368 414 c 0
 400 376 415 329 421 245 c 1
 169 245 l 1
 173 176 181 143 199 111 c 0
 220 76 249 58 288 58 c 0
 331 58 362 76 402 125 c 1
 426 111 l 1
 361 18 312 -14 231 -14 c 0
 107 -14 25 82 25 228 c 0
71 565 m 1
 71 637 l 1
 401 637 l 1
 401 565 l 1
 71 565 l 1
164 282 m 1
 298 282 l 1
 298 297 l 2
 296 348 294 376 289 395 c 0
 281 426 262 442 234 442 c 0
 185 442 167 402 164 282 c 1
EndSplineSet
EndChar

StartChar: Ebreve
Encoding: 367 276 207
Width: 667
Flags: HMW
HStem: 0 31<317 387 317 601> 329 34<266 320.5> 475 21<568 593 568 568> 642 34<305 412.5> 738 76<298 358.5 298 377.5> 881 20<176 220 220 220 435 479 479 479>
VStem: 104 162<96 329 363 580 580 595>
LayerCount: 2
Fore
SplineSet
16 0 m 1
 16 25 l 1
 90 33 104 44 104 96 c 2
 104 580 l 2
 104 631 85 647 16 651 c 1
 16 676 l 1
 593 676 l 1
 593 475 l 1
 568 475 l 1
 543 608 494 642 331 642 c 0
 279 642 266 633 266 595 c 2
 266 363 l 1
 267.4486928 362.986586178 268.884970386 362.979829789 270.30894137 362.979829789 c 0
 375.041959798 362.979829789 413.201207333 399.529175733 428 512 c 1
 454 512 l 1
 454 174 l 1
 428 174 l 1
 416 290 375 329 266 329 c 1
 266 87 l 2
 266 44 285 31 349 31 c 0
 425 31 480 47 526 84 c 0
 562 113 582 141 613 208 c 1
 641 208 l 1
 601 0 l 1
 16 0 l 1
176 901 m 1
 220 901 l 1
 230 840 268 814 328 814 c 0
 389 814 421 842 435 901 c 1
 479 901 l 1
 473 808 428 738 327 738 c 0
 226 738 177 805 176 901 c 1
EndSplineSet
EndChar

StartChar: ebreve
Encoding: 368 277 208
Width: 444
Flags: HMW
HStem: -14 72<268.5 271.5> 245 37<169 298 164 421 169 169> 442 31<209.5 248> 528 76<206 266.5 206 285.5> 671 20<84 128 128 128 343 387 387 387>
VStem: 25 144<245 245 245 301> 298 123<245 297 245 297>
LayerCount: 2
Fore
SplineSet
25 228 m 0
 25 374 109 473 234 473 c 0
 289 473 335 453 368 414 c 0
 400 376 415 329 421 245 c 1
 169 245 l 1
 173 176 181 143 199 111 c 0
 220 76 249 58 288 58 c 0
 331 58 362 76 402 125 c 1
 426 111 l 1
 361 18 312 -14 231 -14 c 0
 107 -14 25 82 25 228 c 0
84 691 m 1
 128 691 l 1
 138 630 176 604 236 604 c 0
 297 604 329 632 343 691 c 1
 387 691 l 1
 381 598 336 528 235 528 c 0
 134 528 85 595 84 691 c 1
164 282 m 1
 298 282 l 1
 298 297 l 2
 296 348 294 376 289 395 c 0
 281 426 262 442 234 442 c 0
 185 442 167 402 164 282 c 1
EndSplineSet
EndChar

StartChar: Edotaccent
Encoding: 369 278 209
Width: 667
Flags: HMW
HStem: 0 31<317 387 317 601> 329 34<266 320.5> 475 21<568 593 568 568> 642 34<305 412.5>
VStem: 104 162<96 329 363 580 580 595>
LayerCount: 2
Fore
SplineSet
16 0 m 1
 16 25 l 1
 90 33 104 44 104 96 c 2
 104 580 l 2
 104 631 85 647 16 651 c 1
 16 676 l 1
 593 676 l 1
 593 475 l 1
 568 475 l 1
 543 608 494 642 331 642 c 0
 279 642 266 633 266 595 c 2
 266 363 l 1
 267.4486928 362.986586178 268.884970386 362.979829789 270.30894137 362.979829789 c 0
 375.041959798 362.979829789 413.201207333 399.529175733 428 512 c 1
 454 512 l 1
 454 174 l 1
 428 174 l 1
 416 290 375 329 266 329 c 1
 266 87 l 2
 266 44 285 31 349 31 c 0
 425 31 480 47 526 84 c 0
 562 113 582 141 613 208 c 1
 641 208 l 1
 601 0 l 1
 16 0 l 1
265 813 m 0
 265 846 295 876 328 876 c 0x00
 364 876 394 846 394 810 c 0
 394 775 365 747 328 747 c 0
 293 747 265 776 265 813 c 0
EndSplineSet
EndChar

StartChar: edotaccent
Encoding: 370 279 210
Width: 444
Flags: HMW
HStem: -14 72<268.5 271.5> 245 37<169 298 164 421 169 169> 442 31<209.5 248>
VStem: 25 144<245 245 245 301> 298 123<245 297 245 297>
LayerCount: 2
Fore
SplineSet
25 228 m 0
 25 374 109 473 234 473 c 0
 289 473 335 453 368 414 c 0
 400 376 415 329 421 245 c 1
 169 245 l 1
 173 176 181 143 199 111 c 0
 220 76 249 58 288 58 c 0
 331 58 362 76 402 125 c 1
 426 111 l 1
 361 18 312 -14 231 -14 c 0
 107 -14 25 82 25 228 c 0
164 282 m 1
 298 282 l 1
 298 297 l 2
 296 348 294 376 289 395 c 0
 281 426 262 442 234 442 c 0
 185 442 167 402 164 282 c 1
173 603 m 0
 173 636 203 666 236 666 c 0x00
 272 666 302 636 302 600 c 0
 302 565 273 537 236 537 c 0
 201 537 173 566 173 603 c 0
EndSplineSet
EndChar

StartChar: Eogonek
Encoding: 371 280 211
Width: 667
Flags: HMW
HStem: -173 69<636 639> 0 25<16 551 16 16> 329 34<266 320.5> 475 201<568 593 568 568> 642 34<305 412.5> 651 25<16 593>
VStem: 104 162<96 329 363 580 580 595> 508 84<-115.5 -42>
LayerCount: 2
Fore
SplineSet
16 0 m 1
 16 25 l 1
 90 33 104 44 104 96 c 2
 104 580 l 2
 104 631 85 647 16 651 c 1xe7
 16 676 l 1
 593 676 l 1
 593 475 l 1
 568 475 l 1xf3
 543 608 494 642 331 642 c 0
 279 642 266 633 266 595 c 2
 266 363 l 1
 267.4486928 362.986586178 268.884970386 362.979829789 270.30894137 362.979829789 c 0
 375.041959798 362.979829789 413.201207333 399.529175733 428 512 c 1
 454 512 l 1xeb
 454 174 l 1
 428 174 l 1
 416 290 375 329 266 329 c 1
 266 87 l 2
 266 44 285 31 349 31 c 0
 425 31 480 47 526 84 c 0
 562 113 582 141 613 208 c 1
 641 208 l 1
 607 33 l 2
 592 -37 592 -37 592 -47 c 0
 592 -81 617 -104 655 -104 c 0
 670 -104 681 -101 701 -91 c 0
 709 -87 710 -86 715 -84 c 1
 737 -98 l 1
 712 -144 664 -173 614 -173 c 0
 553 -173 508 -139 508 -92 c 0
 508 -64 517 -45 551 0 c 1
 16 0 l 1
EndSplineSet
Ligature2: "'ccmp' Glyph Composition/Decomposition in Latin lookup 8 subtable" E uni0328
EndChar

StartChar: eogonek
Encoding: 372 281 212
Width: 444
Flags: HMW
HStem: -173 69<341 346> -173 231<290.5 309.5 268.5 346> 245 37<169 298 164 421 169 169> 442 31<209.5 248>
VStem: 215 84<-115.5 -27>
LayerCount: 2
Fore
SplineSet
25 228 m 0
 25 374 109 473 234 473 c 0
 289 473 335 453 368 414 c 0
 400 376 415 329 421 245 c 1xb8
 169 245 l 1
 173 176 181 143 199 111 c 0
 220 76 249 58 288 58 c 0x78
 331 58 362 76 402 125 c 1
 426 111 l 1
 390 58 368 36 323 4 c 0
 304 -9 299 -17 299 -37 c 0
 299 -81 320 -104 362 -104 c 0
 377 -104 388 -101 408 -91 c 0
 416 -87 417 -86 422 -84 c 1
 444 -98 l 1
 419 -144 371 -173 321 -173 c 0
 260 -173 215 -139 215 -92 c 0
 215 -67 222 -49 248 -13 c 1
 240 -14 233 -14 229 -14 c 0
 107 -14 25 83 25 228 c 0
164 282 m 1
 298 282 l 1
 298 297 l 2
 296 348 294 376 289 395 c 0
 281 426 262 442 234 442 c 0
 185 442 167 402 164 282 c 1
EndSplineSet
Ligature2: "'ccmp' Glyph Composition/Decomposition in Latin lookup 8 subtable" e uni0328
EndChar

StartChar: Ecaron
Encoding: 373 282 213
Width: 667
Flags: HMW
HStem: 0 31<317 387 317 601> 329 34<266 320.5> 475 21<568 593 568 568> 642 34<305 412.5> 894 20<160 216 216 216 440 497 497 497>
VStem: 104 162<96 329 363 580 580 595>
LayerCount: 2
Fore
SplineSet
16 0 m 1
 16 25 l 1
 90 33 104 44 104 96 c 2
 104 580 l 2
 104 631 85 647 16 651 c 1
 16 676 l 1
 593 676 l 1
 593 475 l 1
 568 475 l 1
 543 608 494 642 331 642 c 0
 279 642 266 633 266 595 c 2
 266 363 l 1
 267.4486928 362.986586178 268.884970386 362.979829789 270.30894137 362.979829789 c 0
 375.041959798 362.979829789 413.201207333 399.529175733 428 512 c 1
 454 512 l 1
 454 174 l 1
 428 174 l 1
 416 290 375 329 266 329 c 1
 266 87 l 2
 266 44 285 31 349 31 c 0
 425 31 480 47 526 84 c 0
 562 113 582 141 613 208 c 1
 641 208 l 1
 601 0 l 1
 16 0 l 1
160 914 m 1
 216 914 l 1
 328 815 l 1
 440 914 l 1
 497 914 l 1
 374 738 l 1
 282 738 l 1
 160 914 l 1
EndSplineSet
EndChar

StartChar: ecaron
Encoding: 374 283 214
Width: 444
Flags: HMW
HStem: -14 72<268.5 271.5> 245 37<169 298 164 421 169 169> 442 31<209.5 248> 684 20<68 124 124 124 348 405 405 405>
VStem: 25 144<245 245 245 301> 298 123<245 297 245 297>
LayerCount: 2
Fore
SplineSet
25 228 m 0
 25 374 109 473 234 473 c 0
 289 473 335 453 368 414 c 0
 400 376 415 329 421 245 c 1
 169 245 l 1
 173 176 181 143 199 111 c 0
 220 76 249 58 288 58 c 0
 331 58 362 76 402 125 c 1
 426 111 l 1
 361 18 312 -14 231 -14 c 0
 107 -14 25 82 25 228 c 0
68 704 m 1
 124 704 l 1
 236 605 l 1
 348 704 l 1
 405 704 l 1
 282 528 l 1
 190 528 l 1
 68 704 l 1
164 282 m 1
 298 282 l 1
 298 297 l 2
 296 348 294 376 289 395 c 0
 281 426 262 442 234 442 c 0
 185 442 167 402 164 282 c 1
EndSplineSet
EndChar

StartChar: Gcircumflex
Encoding: 375 284 215
Width: 778
Flags: HMW
HStem: -19 33<385.5 444.5> 658 33<337.5 409 285.5 421> 894 20<348 440 440 440>
VStem: 37 177<278 434> 513 156<87 170 43 192 43 219>
LayerCount: 2
Fore
SplineSet
37 331 m 0
 37 537 186 691 385 691 c 0
 433 691 481 680 540 656 c 0
 562 646 577 642 586 642 c 0
 605 642 616 653 630 688 c 1
 657 688 l 1
 657 454 l 1
 632 454 l 1
 597 530 574 564 531 602 c 0
 487 640 444 658 398 658 c 0
 277 658 214 547 214 338 c 0
 214 218 235 132 279 76 c 0
 312 33 354 14 417 14 c 0
 484 14 513 36 513 87 c 2
 513 192 l 2
 513 246 498 257 412 262 c 1
 412 287 l 1
 755 287 l 1
 755 262 l 1
 680 254 669 242 669 170 c 2
 669 43 l 1
 605 5 496 -19 393 -19 c 0
 183 -19 37 125 37 331 c 0
226 738 m 1
 348 914 l 1
 440 914 l 1
 563 738 l 1
 506 738 l 1
 394 836 l 1
 282 738 l 1
 226 738 l 1
EndSplineSet
EndChar

StartChar: gcircumflex
Encoding: 376 285 216
Width: 500
Flags: HMW
HStem: -206 32<206 299.5 206 312> -52 120<254 319 319 324 151 319> 154 28<216 290.5> 398 53<401 482 401 401> 442 31<216.5 260 180.5 263.5> 684 20<204 296 296 296>
VStem: 306 135<273.5 320 273.5 357.5>
LayerCount: 2
Fore
SplineSet
28 -114 m 0xf0
 28 -73 61 -48 124 -39 c 1
 60 -16 42 2 42 43 c 0
 42 95 82 133 161 160 c 1
 114 180 95 193 73 217 c 0
 50 245 37 278 37 312 c 0
 37 407 121 473 240 473 c 0xe8
 280 473 308 467 352 451 c 1
 482 451 l 1
 482 398 l 1xf0
 401 398 l 1
 429 370 441 340 441 300 c 0
 441 247 418 206 373 180 c 0
 339 160 314 154 267 154 c 2
 222 155 l 2
 182 155 154 133 154 103 c 0
 154 75 174 68 254 68 c 2
 319 68 l 2
 421 68 483 22 483 -55 c 0
 483 -154 395 -206 229 -206 c 0
 103 -206 28 -172 28 -114 c 0xf0
82 528 m 1
 204 704 l 1
 296 704 l 1
 419 528 l 1
 362 528 l 1x00
 250 626 l 1
 138 528 l 1
 82 528 l 1
116 -107 m 0xf0
 116 -151 162 -174 250 -174 c 0
 349 -174 404 -148 404 -102 c 0xe6
 404 -69 378 -52 324 -52 c 2
 151 -52 l 1
 123 -75 116 -86 116 -107 c 0xf0
174 311 m 0
 174 218 192 182 240 182 c 0
 287 182 306 218 306 311 c 0
 306 404 287 442 240 442 c 0
 193 442 174 405 174 311 c 0
EndSplineSet
EndChar

StartChar: Gbreve
Encoding: 377 286 217
Width: 778
Flags: HMW
HStem: -19 33<385.5 444.5> 658 33<337.5 409 285.5 421> 738 76<364 424.5 364 443.5> 881 20<242 286 286 286 501 545 545 545>
VStem: 37 177<278 434> 513 156<87 170 43 192 43 219>
LayerCount: 2
Fore
SplineSet
37 331 m 0
 37 537 186 691 385 691 c 0
 433 691 481 680 540 656 c 0
 562 646 577 642 586 642 c 0
 605 642 616 653 630 688 c 1
 657 688 l 1
 657 454 l 1
 632 454 l 1
 597 530 574 564 531 602 c 0
 487 640 444 658 398 658 c 0
 277 658 214 547 214 338 c 0
 214 218 235 132 279 76 c 0
 312 33 354 14 417 14 c 0
 484 14 513 36 513 87 c 2
 513 192 l 2
 513 246 498 257 412 262 c 1
 412 287 l 1
 755 287 l 1
 755 262 l 1
 680 254 669 242 669 170 c 2
 669 43 l 1
 605 5 496 -19 393 -19 c 0
 183 -19 37 125 37 331 c 0
242 901 m 1
 286 901 l 1
 296 840 334 814 394 814 c 0
 455 814 487 842 501 901 c 1
 545 901 l 1
 539 808 494 738 393 738 c 0
 292 738 243 805 242 901 c 1
EndSplineSet
EndChar

StartChar: gbreve
Encoding: 378 287 218
Width: 500
Flags: HMW
HStem: -206 32<206 299.5 206 312> -52 120<254 319 319 324 151 319> 154 28<216 290.5> 398 53<401 482 401 401> 442 31<216.5 260 180.5 263.5> 528 76<220 280.5 220 299.5>
VStem: 37 137<295 358 264.5 359.5>
LayerCount: 2
Fore
SplineSet
28 -114 m 0xf0
 28 -73 61 -48 124 -39 c 1
 60 -16 42 2 42 43 c 0
 42 95 82 133 161 160 c 1
 114 180 95 193 73 217 c 0
 50 245 37 278 37 312 c 0
 37 407 121 473 240 473 c 0xe8
 280 473 308 467 352 451 c 1
 482 451 l 1
 482 398 l 1xf0
 401 398 l 1
 429 370 441 340 441 300 c 0
 441 247 418 206 373 180 c 0
 339 160 314 154 267 154 c 2
 222 155 l 2
 182 155 154 133 154 103 c 0
 154 75 174 68 254 68 c 2
 319 68 l 2
 421 68 483 22 483 -55 c 0
 483 -154 395 -206 229 -206 c 0
 103 -206 28 -172 28 -114 c 0xf0
98 691 m 1
 142 691 l 1
 152 630 190 604 250 604 c 0
 311 604 343 632 357 691 c 1
 401 691 l 1x00
 395 598 350 528 249 528 c 0
 148 528 99 595 98 691 c 1
116 -107 m 0xf0
 116 -151 162 -174 250 -174 c 0
 349 -174 404 -148 404 -102 c 0xe6
 404 -69 378 -52 324 -52 c 2
 151 -52 l 1
 123 -75 116 -86 116 -107 c 0xf0
174 311 m 0
 174 218 192 182 240 182 c 0
 287 182 306 218 306 311 c 0
 306 404 287 442 240 442 c 0
 193 442 174 405 174 311 c 0
EndSplineSet
EndChar

StartChar: Gdotaccent
Encoding: 379 288 219
Width: 778
Flags: HMW
HStem: -19 33<385.5 444.5> 658 33<337.5 409 285.5 421> 726 129<377.5 412 377.5 412.5>
VStem: 37 177<278 434> 331 129<773.5 807 771.5 808.5> 513 156<87 170 43 192 43 219>
LayerCount: 2
Fore
SplineSet
37 331 m 0
 37 537 186 691 385 691 c 0
 433 691 481 680 540 656 c 0
 562 646 577 642 586 642 c 0
 605 642 616 653 630 688 c 1
 657 688 l 1
 657 454 l 1
 632 454 l 1
 597 530 574 564 531 602 c 0
 487 640 444 658 398 658 c 0
 277 658 214 547 214 338 c 0
 214 218 235 132 279 76 c 0
 312 33 354 14 417 14 c 0
 484 14 513 36 513 87 c 2
 513 192 l 2
 513 246 498 257 412 262 c 1
 412 287 l 1
 755 287 l 1
 755 262 l 1
 680 254 669 242 669 170 c 2
 669 43 l 1
 605 5 496 -19 393 -19 c 0
 183 -19 37 125 37 331 c 0
331 792 m 0
 331 825 361 855 394 855 c 0
 430 855 460 825 460 789 c 0
 460 754 431 726 394 726 c 0
 359 726 331 755 331 792 c 0
EndSplineSet
EndChar

StartChar: gdotaccent
Encoding: 380 289 220
Width: 500
Flags: HMW
HStem: -206 32<206 299.5 206 312> -52 120<254 319 319 324 151 319> 154 28<216 290.5> 398 53<401 482 401 401> 442 31<216.5 260 180.5 263.5> 537 129<233.5 268 233.5 268.5>
VStem: 187 129<584.5 618 582.5 619.5>
LayerCount: 2
Fore
SplineSet
28 -114 m 0xf0
 28 -73 61 -48 124 -39 c 1
 60 -16 42 2 42 43 c 0
 42 95 82 133 161 160 c 1
 114 180 95 193 73 217 c 0
 50 245 37 278 37 312 c 0
 37 407 121 473 240 473 c 0xe8
 280 473 308 467 352 451 c 1
 482 451 l 1
 482 398 l 1xf0
 401 398 l 1
 429 370 441 340 441 300 c 0
 441 247 418 206 373 180 c 0
 339 160 314 154 267 154 c 2
 222 155 l 2
 182 155 154 133 154 103 c 0
 154 75 174 68 254 68 c 2
 319 68 l 2
 421 68 483 22 483 -55 c 0
 483 -154 395 -206 229 -206 c 0
 103 -206 28 -172 28 -114 c 0xf0
116 -107 m 0xf0
 116 -151 162 -174 250 -174 c 0
 349 -174 404 -148 404 -102 c 0xe6
 404 -69 378 -52 324 -52 c 2
 151 -52 l 1
 123 -75 116 -86 116 -107 c 0xf0
174 311 m 0
 174 218 192 182 240 182 c 0
 287 182 306 218 306 311 c 0
 306 404 287 442 240 442 c 0
 193 442 174 405 174 311 c 0
187 603 m 0
 187 636 217 666 250 666 c 0x00
 286 666 316 636 316 600 c 0
 316 565 287 537 250 537 c 0
 215 537 187 566 187 603 c 0
EndSplineSet
EndChar

StartChar: Gcedilla
Encoding: 381 290 221
Width: 778
Flags: HMW
HStem: -145 100<380 390.5> -19 33<385.5 444.5> 658 33<337.5 409 285.5 421>
VStem: 37 177<278 434> 419 47<-166 -95> 513 156<87 170 43 192 43 219>
LayerCount: 2
Fore
SplineSet
37 331 m 0
 37 537 186 691 385 691 c 0
 433 691 481 680 540 656 c 0
 562 646 577 642 586 642 c 0
 605 642 616 653 630 688 c 1
 657 688 l 1
 657 454 l 1
 632 454 l 1
 597 530 574 564 531 602 c 0
 487 640 444 658 398 658 c 0
 277 658 214 547 214 338 c 0
 214 218 235 132 279 76 c 0
 312 33 354 14 417 14 c 0
 484 14 513 36 513 87 c 2
 513 192 l 2
 513 246 498 257 412 262 c 1
 412 287 l 1
 755 287 l 1
 755 262 l 1
 680 254 669 242 669 170 c 2
 669 43 l 1
 605 5 496 -19 393 -19 c 0
 183 -19 37 125 37 331 c 0
336 -97 m 0
 336 -68 364 -45 396 -45 c 0
 434 -45 466 -77 466 -113 c 0
 466 -172 429 -218 358 -234 c 1
 350 -219 l 1
 394 -207 419 -178 419 -154 c 0
 419 -146 413 -142 406 -142 c 0
 405 -142 392 -145 389 -145 c 0
 359 -145 336 -127 336 -97 c 0
EndSplineSet
Ligature2: "'ccmp' Glyph Composition/Decomposition in Latin lookup 8 subtable" G uni0327
EndChar

StartChar: gcedilla
Encoding: 382 291 222
Width: 500
Flags: HMW
HStem: -206 32<206 299.5 206 312> -52 120<254 319 319 324 151 319> 154 28<216 290.5> 398 53<401 482 401 401> 442 31<216.5 260 180.5 263.5> 528 145<260 276.5>
VStem: 164 61<601.5 707.5>
LayerCount: 2
Fore
SplineSet
28 -114 m 0xf0
 28 -73 61 -48 124 -39 c 1
 60 -16 42 2 42 43 c 0
 42 95 82 133 161 160 c 1
 114 180 95 193 73 217 c 0
 50 245 37 278 37 312 c 0
 37 407 121 473 240 473 c 0xe8
 280 473 308 467 352 451 c 1
 482 451 l 1
 482 398 l 1xf0
 401 398 l 1
 429 370 441 340 441 300 c 0
 441 247 418 206 373 180 c 0
 339 160 314 154 267 154 c 2
 222 155 l 2
 182 155 154 133 154 103 c 0
 154 75 174 68 254 68 c 2
 319 68 l 2
 421 68 483 22 483 -55 c 0
 483 -154 395 -206 229 -206 c 0
 103 -206 28 -172 28 -114 c 0xf0
116 -107 m 0xf0
 116 -151 162 -174 250 -174 c 0
 349 -174 404 -148 404 -102 c 0xe6
 404 -69 378 -52 324 -52 c 2
 151 -52 l 1
 123 -75 116 -86 116 -107 c 0xf0
164 633 m 0
 164 711 209 770 313 829 c 1
 323 810 l 1
 255 762 225 725 225 690 c 0
 225 680 233 671 242 671 c 0
 243 671 258 673 262 673 c 0x00
 303 673 329 645 329 602 c 0
 329 557 299 528 254 528 c 0
 200 528 164 570 164 633 c 0
174 311 m 0
 174 218 192 182 240 182 c 0
 287 182 306 218 306 311 c 0
 306 404 287 442 240 442 c 0
 193 442 174 405 174 311 c 0
EndSplineSet
Ligature2: "'ccmp' Glyph Composition/Decomposition in Latin lookup 8 subtable" g uni0327
EndChar

StartChar: Hcircumflex
Encoding: 383 292 223
Width: 774
Flags: HMW
HStem: 0 25<16 353 16 16> 326 47<263 504 263 504> 651 25<16 353 16 353> 894 20<344 436 436 436>
VStem: 101 162<96 326 373 580> 504 162<96 326 326 326 373 580>
LayerCount: 2
Fore
SplineSet
16 0 m 1
 16 25 l 1
 86 34 101 47 101 96 c 2
 101 580 l 2
 101 630 83 645 16 651 c 1
 16 676 l 1
 353 676 l 1
 353 651 l 1
 283 646 263 630 263 580 c 2
 263 373 l 1
 504 373 l 1
 504 580 l 2
 504 630 484 646 414 651 c 1
 414 676 l 1
 754 676 l 1
 754 651 l 1
 686 646 666 630 666 580 c 2
 666 96 l 2
 666 47 682 34 754 25 c 1
 754 0 l 1
 414 0 l 1
 414 25 l 1
 487 33 504 47 504 96 c 2
 504 326 l 1
 263 326 l 1
 263 96 l 2
 263 47 280 33 353 25 c 1
 353 0 l 1
 16 0 l 1
222 738 m 1
 344 914 l 1
 436 914 l 1
 559 738 l 1
 502 738 l 1
 390 836 l 1
 278 738 l 1
 222 738 l 1
EndSplineSet
EndChar

StartChar: hcircumflex
Encoding: 384 293 224
Width: 556
Flags: HMW
HStem: 0 21<16 257 16 16 299 534 299 299> 406 67<282.5 391> 656 20<16 208 208 208> 882 20<124 216 216 216>
VStem: 69 139<84 348 395 594 594 614.5> 346 139<81 84 84 323 323 332>
LayerCount: 2
Fore
SplineSet
2 726 m 1
 124 902 l 1
 216 902 l 1
 339 726 l 1
 282 726 l 1
 170 824 l 1
 58 726 l 1
 2 726 l 1
16 0 m 1
 16 24 l 1
 61 33 69 42 69 84 c 2
 69 594 l 2
 69 635 62 643 16 652 c 1
 16 676 l 1
 208 676 l 1
 208 395 l 1
 260 453 297 473 350 473 c 0
 432 473 485 418 485 332 c 2
 485 84 l 2
 485 42 498 27 534 24 c 1
 534 0 l 1
 299 0 l 1
 299 24 l 1
 333 28 346 44 346 81 c 2
 346 323 l 2
 346 379 329 406 294 406 c 0
 271 406 247 394 225 371 c 0
 215 362 208 352 208 348 c 2
 208 81 l 2
 208 44 220 29 257 24 c 1
 257 0 l 1
 16 0 l 1
EndSplineSet
EndChar

StartChar: Hbar
Encoding: 385 294 225
Width: 774
Flags: HMW
HStem: 0 21G<16 353 16 16 414 754 414 414> 326 47<263 504 263 504> 458 47<56 101 56 101 263 504 666 711> 656 20G<16 353 353 353 414 754 754 754>
VStem: 101 162<96 326 373 458 505 580> 504 162<96 326 326 326 373 458 505 580>
LayerCount: 2
Fore
SplineSet
16 0 m 1
 16 25 l 1
 66 31 101 36 101 96 c 2
 101 458 l 1
 56 458 l 1
 56 505 l 1
 101 505 l 1
 101 580 l 2
 101 640 66 646 16 651 c 1
 16 676 l 1
 353 676 l 1
 353 651 l 1
 302 648 263 642 263 580 c 2
 263 505 l 1
 504 505 l 1
 504 580 l 2
 504 642 465 648 414 651 c 1
 414 676 l 1
 754 676 l 1
 754 651 l 1
 704 648 666 641 666 580 c 2
 666 505 l 1
 711 505 l 1
 711 458 l 1
 666 458 l 1
 666 96 l 2
 666 35 704 31 754 25 c 1
 754 0 l 1
 414 0 l 1
 414 25 l 1
 464 31 504 34 504 96 c 2
 504 326 l 1
 263 326 l 1
 263 96 l 2
 263 34 303 31 353 25 c 1
 353 0 l 1
 16 0 l 1
263 373 m 1
 504 373 l 1
 504 458 l 1
 263 458 l 1
 263 373 l 1
EndSplineSet
EndChar

StartChar: hbar
Encoding: 386 295 226
Width: 556
Flags: HMW
HStem: 0 21G<16 257 16 16> 406 67<282.5 390> 534 47<17 69 17 69 208 324> 656 20G<16 208 208 208>
VStem: 69 139<84 348 395 534 581 594 594 616.5> 346 139<82 85 85 324 324 333>
LayerCount: 2
Fore
SplineSet
16 0 m 1
 16 24 l 1
 57 32 69 40 69 84 c 2
 69 534 l 1
 17 534 l 1
 17 581 l 1
 69 581 l 1
 69 594 l 2
 69 639 57 644 16 652 c 1
 16 676 l 1
 208 676 l 1
 208 581 l 1
 324 581 l 1
 324 534 l 1
 208 534 l 1
 208 395 l 1
 246 440 287 473 351 473 c 0
 429 473 485 419 485 333 c 2
 485 85 l 2
 485 43 498 28 534 25 c 1
 534 1 l 1
 299 1 l 1
 299 25 l 1
 333 29 346 45 346 82 c 2
 346 324 l 2
 346 380 329 406 294 406 c 0
 271 406 208 370 208 348 c 2
 208 81 l 2
 208 46 220 28 257 24 c 1
 257 0 l 1
 16 0 l 1
EndSplineSet
EndChar

StartChar: Itilde
Encoding: 387 296 227
Width: 386
Flags: HMW
HStem: 0 25<16 366 16 16> 651 25<16 366 16 366> 757 78<270.5 284.5> 806 78<93 105.5>
VStem: 109 162<96 580>
LayerCount: 2
Fore
SplineSet
8 759 m 1
 26 845 62 884 124 884 c 0x10
 145 884 169 878 197 865 c 2
 237 847 l 2
 261 836 265 835 276 835 c 0x20
 303 835 317 848 330 884 c 1
 373 884 l 1x10
 350 797 313 757 256 757 c 0x20
 236 757 211 763 192 771 c 2
 163 784 l 2
 120 803 112 806 99 806 c 0
 73 806 54 787 50 759 c 1x10
 8 759 l 1
16 0 m 1
 16 25 l 1
 91 32 109 46 109 96 c 2xc8
 109 580 l 2
 109 631 88 646 16 651 c 1
 16 676 l 1
 366 676 l 1
 366 651 l 1
 292 648 271 632 271 580 c 2
 271 96 l 2
 271 44 290 30 366 25 c 1
 366 0 l 1
 16 0 l 1
EndSplineSet
EndChar

StartChar: itilde
Encoding: 388 297 228
Width: 278
Flags: HMW
HStem: 0 21<16 255 16 16> 441 20<16 208 208 208> 547 78<212.5 226.5> 596 78<35 47.5>
VStem: 69 139<84 378 378 398.5>
LayerCount: 2
Fore
SplineSet
-50 549 m 1
 -32 635 4 674 66 674 c 0x10
 87 674 111 668 139 655 c 2
 179 637 l 2
 203 626 207 625 218 625 c 0x20
 245 625 259 638 272 674 c 1
 315 674 l 1x10
 292 587 255 547 198 547 c 0x20
 178 547 153 553 134 561 c 2
 105 574 l 2
 62 593 54 596 41 596 c 0
 15 596 -4 577 -8 549 c 1x10
 -50 549 l 1
16 0 m 1
 16 24 l 1
 62 35 69 43 69 84 c 2
 69 378 l 2
 69 419 60 428 16 437 c 1
 16 461 l 1
 208 461 l 1xc8
 208 81 l 2
 208 43 220 29 255 24 c 1
 255 0 l 1
 16 0 l 1
EndSplineSet
EndChar

StartChar: Imacron
Encoding: 389 298 229
Width: 386
Flags: HMW
HStem: 0 25<16 366 16 16> 651 25<16 366 16 366> 775 72<25 355 25 355>
VStem: 109 162<96 580>
LayerCount: 2
Fore
SplineSet
16 0 m 1
 16 25 l 1
 91 32 109 46 109 96 c 2
 109 580 l 2
 109 631 88 646 16 651 c 1
 16 676 l 1
 366 676 l 1
 366 651 l 1
 292 648 271 632 271 580 c 2
 271 96 l 2
 271 44 290 30 366 25 c 1
 366 0 l 1
 16 0 l 1
25 775 m 1
 25 847 l 1
 355 847 l 1
 355 775 l 1
 25 775 l 1
EndSplineSet
EndChar

StartChar: imacron
Encoding: 390 299 230
Width: 278
Flags: HMW
HStem: 0 21<16 255 16 16> 441 20<16 208 208 208> 565 72<-33 297 -33 297>
VStem: 69 139<84 378 378 398.5>
LayerCount: 2
Fore
SplineSet
-33 565 m 1
 -33 637 l 1
 297 637 l 1
 297 565 l 1
 -33 565 l 1
16 0 m 1
 16 24 l 1
 62 35 69 43 69 84 c 2
 69 378 l 2
 69 419 60 428 16 437 c 1
 16 461 l 1
 208 461 l 1
 208 81 l 2
 208 43 220 29 255 24 c 1
 255 0 l 1
 16 0 l 1
EndSplineSet
EndChar

StartChar: Ibreve
Encoding: 391 300 231
Width: 386
Flags: HMW
HStem: 0 25<16 366 16 16> 651 25<16 366 16 366> 738 76<160 220.5 160 239.5> 881 20<38 82 82 82 297 341 341 341>
VStem: 109 162<96 580>
LayerCount: 2
Fore
SplineSet
16 0 m 1
 16 25 l 1
 91 32 109 46 109 96 c 2
 109 580 l 2
 109 631 88 646 16 651 c 1
 16 676 l 1
 366 676 l 1
 366 651 l 1
 292 648 271 632 271 580 c 2
 271 96 l 2
 271 44 290 30 366 25 c 1
 366 0 l 1
 16 0 l 1
38 901 m 1
 82 901 l 1
 92 840 130 814 190 814 c 0
 251 814 283 842 297 901 c 1
 341 901 l 1
 335 808 290 738 189 738 c 0
 88 738 39 805 38 901 c 1
EndSplineSet
EndChar

StartChar: ibreve
Encoding: 392 301 232
Width: 278
Flags: HMW
HStem: 0 21<16 255 16 16> 441 20<16 208 208 208> 528 76<102 162.5 102 181.5> 671 20<-20 24 24 24 239 283 283 283>
VStem: 69 139<84 378 378 398.5>
LayerCount: 2
Fore
SplineSet
-20 691 m 1
 24 691 l 1
 34 630 72 604 132 604 c 0
 193 604 225 632 239 691 c 1
 283 691 l 1
 277 598 232 528 131 528 c 0
 30 528 -19 595 -20 691 c 1
16 0 m 1
 16 24 l 1
 62 35 69 43 69 84 c 2
 69 378 l 2
 69 419 60 428 16 437 c 1
 16 461 l 1
 208 461 l 1
 208 81 l 2
 208 43 220 29 255 24 c 1
 255 0 l 1
 16 0 l 1
EndSplineSet
EndChar

StartChar: Iogonek
Encoding: 393 302 233
Width: 389
Flags: HMW
HStem: -173 69<402.5 407> 0 25<20 319 20 20> 651 25<20 370 20 370>
VStem: 113 162<96 580> 276 84<-115.5 -31.5>
LayerCount: 2
Fore
SplineSet
20 0 m 1
 20 25 l 1
 95 32 113 46 113 96 c 2
 113 580 l 2
 113 631 92 646 20 651 c 1
 20 676 l 1
 370 676 l 1
 370 651 l 1
 296 648 275 632 275 580 c 2
 275 96 l 2
 275 44 294 30 370 25 c 1
 370 0 l 1
 363 -11 360 -23 360 -40 c 0
 360 -81 382 -104 423 -104 c 0
 438 -104 449 -101 469 -91 c 0
 477 -87 478 -86 483 -84 c 1
 505 -98 l 1
 480 -144 432 -173 382 -173 c 0
 321 -173 276 -139 276 -92 c 0
 276 -64 285 -46 319 0 c 1
 20 0 l 1
EndSplineSet
Ligature2: "'ccmp' Glyph Composition/Decomposition in Latin lookup 8 subtable" I uni0328
EndChar

StartChar: iogonek
Encoding: 394 303 234
Width: 278
Flags: HMW
HStem: -173 69<285.5 290> -20 20G<16 202 16 16 255 255> 441 20G<16 208 208 208> 536 155<116.5 159>
VStem: 69 139<84 378 378 398.5> 159 84<-115.5 -30>
LayerCount: 2
Fore
SplineSet
16 0 m 1
 16 24 l 1
 62 35 69 43 69 84 c 2
 69 378 l 2
 69 419 60 428 16 437 c 1
 16 461 l 1
 208 461 l 1
 208 81 l 2
 208 43 220 29 255 24 c 1xf8
 255 0 l 1
 246 -10 243 -21 243 -39 c 0
 243 -81 265 -104 306 -104 c 0
 321 -104 332 -101 352 -91 c 0
 360 -87 361 -86 366 -84 c 1
 388 -98 l 1
 363 -144 315 -173 265 -173 c 0
 204 -173 159 -139 159 -92 c 0xf4
 159 -64 168 -46 202 0 c 1
 16 0 l 1
60 614 m 0
 60 656 95 691 138 691 c 0
 181 691 215 656 215 613 c 0
 215 569 181 536 137 536 c 0
 93 536 60 569 60 614 c 0
EndSplineSet
Ligature2: "'ccmp' Glyph Composition/Decomposition in Latin lookup 8 subtable" i uni0328
EndChar

StartChar: Idotaccent
Encoding: 395 304 235
Width: 386
Flags: HMW
HStem: 0 25<16 366 16 16> 651 25<16 366 16 366>
VStem: 109 162<96 580>
LayerCount: 2
Fore
SplineSet
16 0 m 1
 16 25 l 1
 91 32 109 46 109 96 c 2
 109 580 l 2
 109 631 88 646 16 651 c 1
 16 676 l 1
 366 676 l 1
 366 651 l 1
 292 648 271 632 271 580 c 2
 271 96 l 2
 271 44 290 30 366 25 c 1
 366 0 l 1
 16 0 l 1
127 813 m 0
 127 846 157 876 190 876 c 0x00
 226 876 256 846 256 810 c 0
 256 775 227 747 190 747 c 0
 155 747 127 776 127 813 c 0
EndSplineSet
EndChar

StartChar: dotlessi
Encoding: 396 305 236
Width: 278
Flags: HMW
HStem: 0 21G<16 255 16 16> 441 20G<16 208 208 208>
VStem: 69 139<84 378 378 398.5>
LayerCount: 2
Fore
SplineSet
16 0 m 1
 16 24 l 1
 62 35 69 43 69 84 c 2
 69 378 l 2
 69 419 60 428 16 437 c 1
 16 461 l 1
 208 461 l 1
 208 81 l 2
 208 43 220 29 255 24 c 1
 255 0 l 1
 16 0 l 1
EndSplineSet
EndChar

StartChar: IJ
Encoding: 397 306 237
Width: 882
Flags: HMW
HStem: -96 33<546 576.5 540.5 636> 0 25<16 366 16 16> 651 25<16 366 16 366>
VStem: 109 162<96 580> 393 143<25.5 53 25.5 55> 618 162<51.5 123 123 559>
LayerCount: 2
Fore
SplineSet
16 0 m 1
 16 25 l 1
 91 32 109 46 109 96 c 2
 109 580 l 2
 109 631 88 646 16 651 c 1
 16 676 l 1
 366 676 l 1
 366 651 l 1
 292 648 271 632 271 580 c 2
 271 96 l 2
 271 44 290 30 366 25 c 1
 366 0 l 1
 16 0 l 1
393 36 m 0
 393 74 426 108 463 108 c 0
 502 108 536 73 536 33 c 0
 536 18 533 10 521 -5 c 0
 512 -17 509 -23 509 -31 c 0
 509 -50 527 -63 554 -63 c 0
 599 -63 618 -38 618 24 c 2
 618 580 l 2
 618 634 598 648 517 651 c 1
 517 676 l 1
 869 676 l 1
 869 651 l 1
 794 646 780 631 780 559 c 2
 780 123 l 2
 780 -20 706 -96 566 -96 c 0
 526 -96 486 -87 460 -73 c 0
 421 -50 393 -5 393 36 c 0
EndSplineSet
EndChar

StartChar: ij
Encoding: 398 307 238
Width: 486
Flags: HMW
HStem: 0 21<16 255 16 16> 441 20<16 208 208 208 258 460 460 460> 536 155<116.5 159 363.5 406.5>
VStem: 69 139<84 378 378 398.5>
LayerCount: 2
Fore
SplineSet
16 0 m 1
 16 24 l 1
 62 35 69 43 69 84 c 2
 69 378 l 2
 69 419 60 428 16 437 c 1
 16 461 l 1
 208 461 l 1xf0
 208 81 l 2
 208 43 220 29 255 24 c 1
 255 0 l 1
 16 0 l 1
60 614 m 0
 60 656 95 691 138 691 c 0
 181 691 215 656 215 613 c 0
 215 569 181 536 137 536 c 0
 93 536 60 569 60 614 c 0
143 -103 m 0
 143 -67 168 -42 205 -42 c 0
 237 -42 264 -66 264 -96 c 0
 264 -106 260 -117 250 -133 c 0
 244 -143 241 -150 241 -155 c 0
 241 -165 254 -172 273 -172 c 0
 306 -172 321 -149 321 -96 c 2
 321 378 l 2
 321 421 309 433 258 437 c 1
 258 461 l 1
 460 461 l 1
 460 2 l 2
 460 -57 452 -95 433 -127 c 0
 405 -176 352 -203 283 -203 c 0
 201 -203 143 -162 143 -103 c 0
308 614 m 0
 308 656 342 691 385 691 c 0
 428 691 463 656 463 613 c 0
 463 570 428 536 385 536 c 0
 340 536 308 569 308 614 c 0
EndSplineSet
Ligature2: "'liga' Standard Ligatures in Latin lookup 14 subtable" i j
Ligature2: "'liga' Standard Ligatures in Latin lookup 14 subtable" I J
EndChar

StartChar: Jcircumflex
Encoding: 399 308 239
Width: 500
Flags: HMW
HStem: -96 33<156 186.5 150.5 246> 651 25<127 479 127 479> 894 20<252 344 344 344>
VStem: 3 143<25.5 53 25.5 55> 228 162<51.5 123 123 559>
LayerCount: 2
Fore
SplineSet
3 36 m 0
 3 74 36 108 73 108 c 0
 112 108 146 73 146 33 c 0
 146 18 143 10 131 -5 c 0
 122 -17 119 -23 119 -31 c 0
 119 -50 137 -63 164 -63 c 0
 209 -63 228 -38 228 24 c 2
 228 580 l 2
 228 634 208 648 127 651 c 1
 127 676 l 1
 479 676 l 1
 479 651 l 1
 404 646 390 631 390 559 c 2
 390 123 l 2
 390 -20 316 -96 176 -96 c 0
 136 -96 96 -87 70 -73 c 0
 31 -50 3 -5 3 36 c 0
130 738 m 1
 252 914 l 1
 344 914 l 1
 467 738 l 1
 410 738 l 1
 298 836 l 1
 186 738 l 1
 130 738 l 1
EndSplineSet
EndChar

StartChar: jcircumflex
Encoding: 400 309 240
Width: 333
Flags: HMW
HStem: -203 31<63.5 89.5 63.5 117.5> 437 24<58 260> 684 20<126 218 218 218>
VStem: -57 121<-101 -85> 121 139<-27.5 2 2 378 378 399.5>
LayerCount: 2
Fore
SplineSet
-57 -103 m 0
 -57 -67 -32 -42 5 -42 c 0
 37 -42 64 -66 64 -96 c 0
 64 -106 60 -117 50 -133 c 0
 44 -143 41 -150 41 -155 c 0
 41 -165 54 -172 73 -172 c 0
 106 -172 121 -149 121 -96 c 2
 121 378 l 2
 121 421 109 433 58 437 c 1
 58 461 l 1
 260 461 l 1
 260 2 l 2
 260 -57 252 -95 233 -127 c 0
 205 -176 152 -203 83 -203 c 0
 1 -203 -57 -162 -57 -103 c 0
4 528 m 1
 126 704 l 1
 218 704 l 1
 341 528 l 1
 284 528 l 1
 172 626 l 1
 60 528 l 1
 4 528 l 1
EndSplineSet
EndChar

StartChar: Kcedilla
Encoding: 401 310 241
Width: 764
Flags: HMW
HStem: -145 100<370 380.5> 0 26<448.5 451 448.5 755> 656 20<16 354 354 354 433 722 722 722>
VStem: 103 162<96 292 345 559> 409 47<-166 -95>
LayerCount: 2
Fore
SplineSet
16 0 m 1
 16 25 l 1
 88 33 103 45 103 96 c 2
 103 580 l 2
 103 632 85 647 16 651 c 1
 16 676 l 1
 354 676 l 1
 354 651 l 1
 280 646 265 630 265 559 c 2
 265 345 l 1
 482 563 l 2
 513 594 518 602 518 618 c 0
 518 638 505 646 469 648 c 0
 464 649 450 650 433 651 c 1
 433 676 l 1
 722 676 l 1
 722 651 l 1
 625 643 589 618 401 424 c 1
 706 46 l 2
 719 31 730 26 755 25 c 1
 755 0 l 1
 419 0 l 1
 419 25 l 1
 433 26 446 26 451 26 c 0
 484 28 498 33 498 46 c 0
 498 57 493 66 474 90 c 2
 292 317 l 1
 265 292 l 1
 265 96 l 2
 265 47 281 34 353 25 c 1
 353 0 l 1
 16 0 l 1
326 -97 m 0
 326 -68 354 -45 386 -45 c 0
 424 -45 456 -77 456 -113 c 0
 456 -172 419 -218 348 -234 c 1
 340 -219 l 1
 384 -207 409 -178 409 -154 c 0
 409 -146 403 -142 396 -142 c 0
 395 -142 382 -145 379 -145 c 0
 349 -145 326 -127 326 -97 c 0
EndSplineSet
Ligature2: "'ccmp' Glyph Composition/Decomposition in Latin lookup 8 subtable" K uni0327
Ligature2: "'ccmp' Glyph Composition/Decomposition in Latin lookup 8 subtable" K uni0326
EndChar

StartChar: kcedilla
Encoding: 402 311 242
Width: 556
Flags: HMW
HStem: -145 100<266 276.5> 0 24<22 261 22 22 537.5 543> 438 23<299 513 299 513> 652 24<22 209>
VStem: 70 139<84 198 245 594 594 613> 305 47<-166 -95>
LayerCount: 2
Fore
SplineSet
22 0 m 1
 22 24 l 1
 55 27 70 45 70 84 c 2
 70 594 l 2
 70 632 56 649 22 652 c 1
 22 676 l 1
 209 676 l 1
 209 245 l 1
 337 373 l 2
 348 384 358 402 358 411 c 0
 358 424 347 431 323 434 c 0
 320 435 310 436 299 438 c 1
 299 461 l 1
 513 461 l 1
 513 438 l 1
 450 430 424 412 324 307 c 1
 518 39 l 2
 527 27 532 24 543 24 c 1
 543 0 l 1
 309 0 l 1
 309 24 l 1
 337 25 351 31 351 43 c 0
 351 51 344 63 327 88 c 2
 232 222 l 1
 209 198 l 1
 209 84 l 2
 209 37 214 31 261 24 c 1
 261 0 l 1
 22 0 l 1
222 -97 m 0
 222 -68 250 -45 282 -45 c 0
 320 -45 352 -77 352 -113 c 0
 352 -172 315 -218 244 -234 c 1
 236 -219 l 1
 280 -207 305 -178 305 -154 c 0
 305 -146 299 -142 292 -142 c 0
 291 -142 278 -145 275 -145 c 0
 245 -145 222 -127 222 -97 c 0
EndSplineSet
Ligature2: "'ccmp' Glyph Composition/Decomposition in Latin lookup 8 subtable" k uni0327
Ligature2: "'ccmp' Glyph Composition/Decomposition in Latin lookup 8 subtable" k uni0326
EndChar

StartChar: kgreenlandic
Encoding: 403 312 243
Width: 556
Flags: HMW
HStem: 0 24<22 261 22 22 537.5 543> 441 20G<23 261 261 261 299 513 513 513>
VStem: 70 139<84 198 245 377>
LayerCount: 2
Fore
SplineSet
22 0 m 1
 22 24 l 1
 55 27 70 45 70 84 c 2
 70 379 l 2
 70 416 56 434 23 437 c 1
 23 461 l 1
 261 461 l 1
 261 437 l 1
 214 430 209 424 209 377 c 2
 209 245 l 1
 337 373 l 2
 348 384 358 402 358 411 c 0
 358 424 347 431 323 434 c 0
 320 435 310 436 299 438 c 1
 299 461 l 1
 513 461 l 1
 513 438 l 1
 450 430 424 412 324 307 c 1
 518 39 l 2
 527 27 532 24 543 24 c 1
 543 0 l 1
 309 0 l 1
 309 24 l 1
 337 25 351 31 351 43 c 0
 351 51 344 63 327 88 c 2
 232 222 l 1
 209 198 l 1
 209 84 l 2
 209 37 214 31 261 24 c 1
 261 0 l 1
 22 0 l 1
EndSplineSet
EndChar

StartChar: Lacute
Encoding: 404 313 244
Width: 664
Flags: HMW
HStem: 0 31<313.5 382.5 313.5 594> 656 20<16 365 365 365> 903 20<338.5 362.5>
VStem: 102 162<96 559>
LayerCount: 2
Fore
SplineSet
16 0 m 1
 16 25 l 1
 89 34 102 45 102 96 c 2
 102 580 l 2
 102 631 84 647 16 651 c 1
 16 676 l 1
 365 676 l 1
 365 651 l 1
 278 647 264 634 264 559 c 2
 264 87 l 2
 264 44 283 31 344 31 c 0
 421 31 477 49 518 86 c 0
 553 118 573 149 606 227 c 1
 635 227 l 1
 594 0 l 1
 16 0 l 1
158 738 m 1
 295 895 l 2
 312 914 329 923 348 923 c 0
 377 923 396 905 396 879 c 0
 396 856 388 846 356 826 c 2
 214 738 l 1
 158 738 l 1
EndSplineSet
EndChar

StartChar: lacute
Encoding: 405 314 245
Width: 278
Flags: HMW
HStem: 0 24<16 255 16 16> 652 24<16 206> 903 20<238.5 262.5>
VStem: 67 139<84 594 594 612.5>
LayerCount: 2
Fore
SplineSet
16 0 m 1
 16 24 l 1
 50 27 67 47 67 84 c 2
 67 594 l 2
 67 631 51 649 16 652 c 1
 16 676 l 1
 206 676 l 1
 206 84 l 2
 206 44 222 25 255 24 c 1
 255 0 l 1
 16 0 l 1
58 738 m 1
 195 895 l 2
 212 914 229 923 248 923 c 0
 277 923 296 905 296 879 c 0
 296 856 288 846 256 826 c 2
 114 738 l 1
 58 738 l 1
EndSplineSet
EndChar

StartChar: Lcedilla
Encoding: 406 315 246
Width: 664
Flags: HMW
HStem: -145 100<324 334.5> 0 31<313.5 382.5 313.5 594> 656 20<16 365 365 365>
VStem: 102 162<96 559> 363 47<-166 -95>
LayerCount: 2
Fore
SplineSet
16 0 m 1
 16 25 l 1
 89 34 102 45 102 96 c 2
 102 580 l 2
 102 631 84 647 16 651 c 1
 16 676 l 1
 365 676 l 1
 365 651 l 1
 278 647 264 634 264 559 c 2
 264 87 l 2
 264 44 283 31 344 31 c 0
 421 31 477 49 518 86 c 0
 553 118 573 149 606 227 c 1
 635 227 l 1
 594 0 l 1
 16 0 l 1
280 -97 m 0
 280 -68 308 -45 340 -45 c 0
 378 -45 410 -77 410 -113 c 0
 410 -172 373 -218 302 -234 c 1
 294 -219 l 1
 338 -207 363 -178 363 -154 c 0
 363 -146 357 -142 350 -142 c 0
 349 -142 336 -145 333 -145 c 0
 303 -145 280 -127 280 -97 c 0
EndSplineSet
Ligature2: "'ccmp' Glyph Composition/Decomposition in Latin lookup 8 subtable" L uni0327
Ligature2: "'ccmp' Glyph Composition/Decomposition in Latin lookup 8 subtable" L uni0326
EndChar

StartChar: lcedilla
Encoding: 407 316 247
Width: 278
Flags: HMW
HStem: 0 24<16 255 16 16> 652 24<16 206>
VStem: 67 139<84 594 594 612.5>
LayerCount: 2
Fore
SplineSet
16 0 m 1
 16 24 l 1
 50 27 67 47 67 84 c 2
 67 594 l 2
 67 631 51 649 16 652 c 1
 16 676 l 1
 206 676 l 1xe0
 206 84 l 2
 206 44 222 25 255 24 c 1
 255 0 l 1
 16 0 l 1
66 -97 m 0
 66 -68 94 -45 126 -45 c 0
 164 -45 196 -77 196 -113 c 0
 196 -172 159 -218 88 -234 c 1
 80 -219 l 1
 124 -207 149 -178 149 -154 c 0
 149 -146 143 -142 136 -142 c 0
 135 -142 122 -145 119 -145 c 0
 89 -145 66 -127 66 -97 c 0
EndSplineSet
Ligature2: "'ccmp' Glyph Composition/Decomposition in Latin lookup 8 subtable" l uni0327
Ligature2: "'ccmp' Glyph Composition/Decomposition in Latin lookup 8 subtable" l uni0326
EndChar

StartChar: Lcaron
Encoding: 408 317 248
Width: 664
Flags: HMW
HStem: 0 31<313.5 382.5 313.5 594> 656 20<16 365 365 365>
VStem: 102 162<96 559>
LayerCount: 2
Fore
SplineSet
16 0 m 1
 16 25 l 1
 89 34 102 45 102 96 c 2
 102 580 l 2
 102 631 84 647 16 651 c 1
 16 676 l 1
 365 676 l 1
 365 651 l 1
 278 647 264 634 264 559 c 2
 264 87 l 2
 264 44 283 31 344 31 c 0
 421 31 477 49 518 86 c 0
 553 118 573 149 606 227 c 1
 635 227 l 1xe0
 594 0 l 1
 16 0 l 1
430 617 m 0
 430 662 460 691 505 691 c 0
 559 691 595 649 595 586 c 0
 595 508 548 449 446 406 c 1
 436 425 l 1
 502 454 534 494 534 529 c 0
 534 539 526 548 517 548 c 0
 516 548 501 546 497 546 c 0
 456 546 430 574 430 617 c 0
EndSplineSet
Ligature2: "'ccmp' Glyph Composition/Decomposition in Latin lookup 8 subtable" L caroncomb
EndChar

StartChar: lcaron
Encoding: 409 318 249
Width: 390
Flags: HMW
HStem: 0 24<16 255 16 16> 652 24<16 206>
VStem: 67 139<84 594 594 612.5>
LayerCount: 2
Fore
SplineSet
16 0 m 1
 16 24 l 1
 50 27 67 47 67 84 c 2
 67 594 l 2
 67 631 51 649 16 652 c 1
 16 676 l 1
 206 676 l 1xe0
 206 84 l 2
 206 44 222 25 255 24 c 1
 255 0 l 1
 16 0 l 1
232 617 m 0
 232 662 262 691 307 691 c 0
 361 691 397 649 397 586 c 0
 397 508 350 449 248 406 c 1
 238 425 l 1
 304 454 336 494 336 529 c 0
 336 539 328 548 319 548 c 0
 318 548 303 546 299 546 c 0
 258 546 232 574 232 617 c 0
EndSplineSet
Ligature2: "'ccmp' Glyph Composition/Decomposition in Latin lookup 8 subtable" l caroncomb
EndChar

StartChar: Ldot
Encoding: 410 319 250
Width: 667
Flags: HMW
HStem: 0 31<313.5 382.5 313.5 594> 256 169<408 454> 656 20G<16 365 365 365>
VStem: 102 162<96 559> 347 169<317 363 316.5 363.5>
LayerCount: 2
Fore
SplineSet
16 0 m 1
 16 25 l 1
 89 34 102 45 102 96 c 2
 102 580 l 2
 102 631 84 647 16 651 c 1
 16 676 l 1
 365 676 l 1
 365 651 l 1
 278 647 264 634 264 559 c 2
 264 87 l 2
 264 44 283 31 344 31 c 0
 421 31 477 49 518 86 c 0
 553 118 573 149 606 227 c 1
 635 227 l 1
 594 0 l 1
 16 0 l 1
347 341 m 0
 347 386 385 425 431 425 c 0
 478 425 516 386 516 340 c 0
 516 293 478 256 430 256 c 0
 383 256 347 293 347 341 c 0
EndSplineSet
Ligature2: "'ccmp' Glyph Composition/Decomposition in Latin lookup 8 subtable" L periodcentered
EndChar

StartChar: ldot
Encoding: 411 320 251
Width: 528
Flags: HMW
HStem: 0 21G<16 255 16 16> 248 169<380 426> 656 20G<16 206 206 206>
VStem: 67 139<84 594 594 612.5> 319 169<309 355 308.5 355.5>
LayerCount: 2
Fore
SplineSet
16 0 m 1
 16 24 l 1
 50 27 67 47 67 84 c 2
 67 594 l 2
 67 631 51 649 16 652 c 1
 16 676 l 1
 206 676 l 1
 206 84 l 2
 206 44 222 25 255 24 c 1
 255 0 l 1
 16 0 l 1
319 333 m 0
 319 378 357 417 403 417 c 0
 450 417 488 378 488 332 c 0
 488 285 450 248 402 248 c 0
 355 248 319 285 319 333 c 0
EndSplineSet
Ligature2: "'ccmp' Glyph Composition/Decomposition in Latin lookup 8 subtable" l periodcentered
EndChar

StartChar: Lslash
Encoding: 412 321 252
Width: 667
Flags: HMW
HStem: 0 25<19 597 19 19> 651 25<19 368 19 368>
VStem: 105 162<96 286 286 286 347 381 442 559>
LayerCount: 2
Fore
SplineSet
19 0 m 1
 19 25 l 1
 92 34 105 45 105 96 c 2
 105 286 l 1
 24 237 l 1
 24 298 l 1
 105 347 l 1
 105 580 l 2
 105 631 87 647 19 651 c 1
 19 676 l 1
 368 676 l 1
 368 651 l 1
 281 647 267 634 267 559 c 2
 267 442 l 1
 390 518 l 1
 390 457 l 1
 267 381 l 1
 267 87 l 2
 267 44 286 31 347 31 c 0
 424 31 480 49 521 86 c 0
 556 118 576 149 609 227 c 1
 638 227 l 1
 597 0 l 1
 19 0 l 1
EndSplineSet
EndChar

StartChar: lslash
Encoding: 413 322 253
Width: 278
Flags: HMW
HStem: 0 24<16 255 16 16> 652 24<16 206>
VStem: 67 139<84 311 311 311 361 400 450 594 594 612.5>
LayerCount: 2
Fore
SplineSet
-22 239 m 1
 -22 289 l 1
 67 361 l 1
 67 594 l 2
 67 631 51 649 16 652 c 1
 16 676 l 1
 206 676 l 1
 206 450 l 1
 303 530 l 1
 303 480 l 1
 206 400 l 1
 206 84 l 2
 206 44 222 25 255 24 c 1
 255 0 l 1
 16 0 l 1
 16 24 l 1
 50 27 67 47 67 84 c 2
 67 311 l 1
 -22 239 l 1
EndSplineSet
EndChar

StartChar: Nacute
Encoding: 414 323 254
Width: 722
Flags: HMW
HStem: -18 21<595 623 595 595> 651 25<19 29> 903 20<454.5 478.5>
VStem: 104 44<105 124 124 526> 579 44<247 552 552 571 -18 587.5>
LayerCount: 2
Fore
SplineSet
16 0 m 1
 16 25 l 1
 89 34 104 48 104 105 c 2
 104 579 l 1
 56 636 39 651 19 651 c 1
 19 676 l 1
 230 676 l 1
 579 247 l 1
 579 552 l 2
 579 623 560 644 486 651 c 1
 486 676 l 1
 701 676 l 1
 701 651 l 1
 636 641 623 628 623 571 c 2
 623 -18 l 1
 595 -18 l 1
 148 526 l 1
 148 124 l 2
 148 53 166 34 243 25 c 1
 243 0 l 1
 16 0 l 1
274 738 m 1
 411 895 l 2
 428 914 445 923 464 923 c 0
 493 923 512 905 512 879 c 0
 512 856 504 846 472 826 c 2
 330 738 l 1
 274 738 l 1
EndSplineSet
EndChar

StartChar: nacute
Encoding: 415 324 255
Width: 556
Flags: HMW
HStem: 0 24<21 262 21 21> 406 67<287.5 396> 693 20<378.5 402.5>
VStem: 74 139<84 348> 351 139<81 323 323 332>
LayerCount: 2
Fore
SplineSet
21 0 m 1
 21 24 l 1
 66 33 74 42 74 84 c 2
 74 378 l 2
 74 420 65 430 21 437 c 1
 21 461 l 1
 212 461 l 1
 212 386 l 1
 249 445 295 473 355 473 c 0
 437 473 490 418 490 332 c 2
 490 81 l 2
 490 39 500 27 539 24 c 1
 539 0 l 1
 304 0 l 1
 304 24 l 1
 338 28 351 44 351 81 c 2
 351 323 l 2
 351 379 334 406 299 406 c 0
 276 406 252 394 230 371 c 0
 220 362 213 352 213 348 c 2
 213 81 l 2
 213 44 225 29 262 24 c 1
 262 0 l 1
 21 0 l 1
198 528 m 1
 335 685 l 2
 352 704 369 713 388 713 c 0
 417 713 436 695 436 669 c 0
 436 646 428 636 396 616 c 2
 254 528 l 1
 198 528 l 1
EndSplineSet
EndChar

StartChar: Ncedilla
Encoding: 416 325 256
Width: 722
Flags: HMW
HStem: -145 100<340 350.5> -18 21<595 623 595 595> 651 25<19 29>
VStem: 104 44<105 124 124 526> 379 47<-166 -95> 579 44<247 552 552 571 -18 587.5>
LayerCount: 2
Fore
SplineSet
16 0 m 1
 16 25 l 1
 89 34 104 48 104 105 c 2
 104 579 l 1
 56 636 39 651 19 651 c 1
 19 676 l 1
 230 676 l 1
 579 247 l 1
 579 552 l 2
 579 623 560 644 486 651 c 1
 486 676 l 1
 701 676 l 1
 701 651 l 1
 636 641 623 628 623 571 c 2
 623 -18 l 1
 595 -18 l 1
 148 526 l 1
 148 124 l 2
 148 53 166 34 243 25 c 1
 243 0 l 1
 16 0 l 1
296 -97 m 0
 296 -68 324 -45 356 -45 c 0
 394 -45 426 -77 426 -113 c 0
 426 -172 389 -218 318 -234 c 1
 310 -219 l 1
 354 -207 379 -178 379 -154 c 0
 379 -146 373 -142 366 -142 c 0
 365 -142 352 -145 349 -145 c 0
 319 -145 296 -127 296 -97 c 0
EndSplineSet
Ligature2: "'ccmp' Glyph Composition/Decomposition in Latin lookup 8 subtable" N uni0327
Ligature2: "'ccmp' Glyph Composition/Decomposition in Latin lookup 8 subtable" N uni0326
EndChar

StartChar: ncedilla
Encoding: 417 326 257
Width: 556
Flags: HMW
HStem: -145 100<262 272.5> 0 24<21 262 21 21> 406 67<287.5 396>
VStem: 74 139<84 348> 301 47<-166 -95> 351 139<81 323 323 332>
LayerCount: 2
Fore
SplineSet
21 0 m 1
 21 24 l 1
 66 33 74 42 74 84 c 2
 74 378 l 2
 74 420 65 430 21 437 c 1
 21 461 l 1
 212 461 l 1
 212 386 l 1
 249 445 295 473 355 473 c 0
 437 473 490 418 490 332 c 2
 490 81 l 2
 490 39 500 27 539 24 c 1
 539 0 l 1
 304 0 l 1
 304 24 l 1
 338 28 351 44 351 81 c 2
 351 323 l 2
 351 379 334 406 299 406 c 0
 276 406 252 394 230 371 c 0
 220 362 213 352 213 348 c 2
 213 81 l 2
 213 44 225 29 262 24 c 1
 262 0 l 1
 21 0 l 1
218 -97 m 0
 218 -68 246 -45 278 -45 c 0
 316 -45 348 -77 348 -113 c 0
 348 -172 311 -218 240 -234 c 1
 232 -219 l 1
 276 -207 301 -178 301 -154 c 0
 301 -146 295 -142 288 -142 c 0
 287 -142 274 -145 271 -145 c 0
 241 -145 218 -127 218 -97 c 0
EndSplineSet
Ligature2: "'ccmp' Glyph Composition/Decomposition in Latin lookup 8 subtable" n uni0327
Ligature2: "'ccmp' Glyph Composition/Decomposition in Latin lookup 8 subtable" n uni0326
EndChar

StartChar: Ncaron
Encoding: 418 327 258
Width: 722
Flags: HMW
HStem: -18 21<595 623 595 595> 651 25<19 29> 894 20<186 242 242 242 466 523 523 523>
VStem: 104 44<105 124 124 526> 579 44<247 552 552 571 -18 587.5>
LayerCount: 2
Fore
SplineSet
16 0 m 1
 16 25 l 1
 89 34 104 48 104 105 c 2
 104 579 l 1
 56 636 39 651 19 651 c 1
 19 676 l 1
 230 676 l 1
 579 247 l 1
 579 552 l 2
 579 623 560 644 486 651 c 1
 486 676 l 1
 701 676 l 1
 701 651 l 1
 636 641 623 628 623 571 c 2
 623 -18 l 1
 595 -18 l 1
 148 526 l 1
 148 124 l 2
 148 53 166 34 243 25 c 1
 243 0 l 1
 16 0 l 1
186 914 m 1
 242 914 l 1
 354 815 l 1
 466 914 l 1
 523 914 l 1
 400 738 l 1
 308 738 l 1
 186 914 l 1
EndSplineSet
EndChar

